<?xml version="1.0" encoding="UTF-8"?>
<svg width="167px" height="34px" viewBox="0 0 167 34" version="1.1" xmlns="http://www.w3.org/2000/svg" xmlns:xlink="http://www.w3.org/1999/xlink">
    <title>digikala-mag-logo-white</title>
    <defs>
        <path d="M83.0513834,20.9644269 L90.3083004,20.9644269 L90.3083004,11.2885375 L83.0513834,11.2885375 C81.7991975,11.2885375 80.6324111,12.4582484 80.6324111,13.7075099 L80.6324111,18.5454545 C80.6324111,19.7948984 81.7991975,20.9644269 83.0513834,20.9644269 Z M112.079051,20.9644269 L119.335968,20.9644269 L119.335968,11.2885375 L112.079051,11.2885375 C110.826865,11.2885375 109.660079,12.4582484 109.660079,13.7075099 L109.660079,18.5454545 C109.660079,19.7948984 110.826865,20.9644269 112.079051,20.9644269 Z M95.1462451,7.66007905 L95.1462451,24.5928854 C95.1462451,25.1265115 94.4719998,25.8023715 93.9367589,25.8023715 L91.5181743,25.8277971 C90.9825678,25.8277971 90.3083004,25.1266939 90.3083004,24.5928854 L90.3083004,23.7865613 L89.2107538,25.1045021 C88.876411,25.5591603 88.0513863,25.8023715 87.486166,25.8023715 L83.0513834,25.8023715 C79.1601015,25.8023715 75.7944664,22.4276486 75.7944664,18.5454545 L75.7944664,13.7075099 C75.7944664,9.82531586 79.1601015,6.45059289 83.0513834,6.45059289 L93.9367589,6.45059289 C94.4712686,6.45059289 95.1462451,7.12700003 95.1462451,7.66007905 Z M124.173913,7.66007905 L124.173913,24.5928854 C124.173913,25.1265115 123.499668,25.8023715 122.964427,25.8023715 L120.545842,25.8277971 C120.010236,25.8277971 119.335968,25.1266939 119.335968,24.5928854 L119.335968,23.7865613 L118.238422,25.1045021 C117.904079,25.5591603 117.079054,25.8023715 116.513834,25.8023715 L112.079051,25.8023715 C108.187769,25.8023715 104.822134,22.4276486 104.822134,18.5454545 L104.822134,13.7075099 C104.822134,9.82531586 108.187769,6.45059289 112.079051,6.45059289 L122.964427,6.45059289 C123.498937,6.45059289 124.173913,7.12700003 124.173913,7.66007905 Z M43.541502,11.2885375 L36.284585,11.2885375 C35.0322163,11.2885375 33.8656126,12.4582484 33.8656126,13.7075099 L33.8656126,18.5454545 C33.8656126,19.7950808 35.0322163,20.9644269 36.284585,20.9644269 L43.541502,20.9644269 L43.541502,11.2885375 Z M48.3794466,7.66007905 L48.3794466,25.8023715 L48.3794466,26.2055336 C48.3794466,30.0877276 45.0138115,33.0592885 41.1225296,33.0592885 L37.3831518,33.0592885 C36.826706,33.0592885 36.3024331,32.7990409 35.9668107,32.3560546 L33.8382775,29.5456722 C33.4847407,29.0791597 33.6825323,28.2213439 34.2687747,28.2213439 L41.1225296,28.2213439 C42.3747155,28.2213439 43.541502,27.4547951 43.541502,26.2055336 L43.541502,25.8023715 L36.284585,25.8023715 C32.3934859,25.8023715 29.027668,22.4276486 29.027668,18.5454545 L29.027668,13.7075099 C29.027668,9.82549823 32.3934859,6.45059289 36.284585,6.45059289 L40.7193676,6.45059289 C41.274351,6.45059289 41.8791877,6.89703441 42.2710076,7.256917 L43.541502,8.46640316 L43.541502,7.66007905 C43.541502,7.1271824 44.2170268,6.45059289 44.7509881,6.45059289 L47.1699605,6.45059289 C47.7050186,6.45059289 48.3794466,7.12608816 48.3794466,7.66007905 Z M4.83794466,18.5454545 C4.83794466,19.794716 6.00473111,20.9644269 7.256917,20.9644269 L14.513834,20.9644269 L14.513834,11.2885375 L7.256917,11.2885375 C6.00473111,11.2885375 4.83794466,12.4582484 4.83794466,13.7075099 L4.83794466,18.5454545 Z M18.1422925,0 C18.6777162,0 19.3517787,0.675677649 19.3517787,1.20948617 L19.3517787,24.5928854 C19.3517787,25.1265115 18.6777162,25.8023715 18.1422925,25.8023715 L15.7233202,25.8023715 C15.1880792,25.8023715 14.513834,25.1268763 14.513834,24.5928854 L14.513834,23.7865613 L13.2455675,25.1437125 C12.9019732,25.5253084 12.239371,25.8023715 11.6916996,25.8023715 L7.256917,25.8023715 C3.36563511,25.8023715 0,22.4276486 0,18.5454545 L0,13.7444295 C0,9.86223546 3.36563511,6.45059289 7.256917,6.45059289 L14.513834,6.45059289 L14.513834,1.20948617 C14.513834,0.675677649 15.1880792,0 15.7233202,0 L18.1422925,0 Z M68.1343874,16.1264822 L74.8675752,7.60371296 C75.2421342,7.13920654 74.910899,6.44892138 74.3135058,6.44892138 L70.4624401,6.44892138 C70.1712384,6.44892138 69.8955747,6.57968327 69.7113114,6.80491508 L62.8932806,15.3201581 L62.8932806,1.20948617 C62.8932806,0.675677649 62.2188526,0 61.6837945,0 L59.2648221,0 C58.7295812,0 58.055336,0.675677649 58.055336,1.20948617 L58.055336,24.5928854 C58.055336,25.1266939 58.7295812,25.8023715 59.2648221,25.8023715 L61.6837945,25.8023715 C62.2190354,25.8023715 62.8932806,25.1266939 62.8932806,24.5928854 L62.8932806,16.9328063 L69.7149674,25.4668791 C69.8988651,25.6948465 70.1763568,25.8277971 70.469935,25.8277971 L74.316979,25.8277971 C74.9143722,25.8277971 75.245973,25.137147 74.8712312,24.672823 L68.1343874,16.1264822 Z M52.0079051,0 C51.4730298,0 50.798419,0.675677649 50.798419,1.20948617 L50.798419,3.6284585 C50.798419,4.16226702 51.4730298,4.83794466 52.0079051,4.83794466 L54.4268775,4.83794466 C54.9619356,4.83794466 55.6363636,4.16226702 55.6363636,3.6284585 L55.6363636,1.20948617 C55.6363636,0.675677649 54.9619356,0 54.4268775,0 L52.0079051,0 Z M52.0079051,6.45059289 C51.4730298,6.45059289 50.798419,7.12645291 50.798419,7.66007905 L50.798419,24.5928854 C50.798419,25.1265115 51.6626409,25.8276148 52.1975162,25.8276148 L54.4268775,25.8023715 C54.9619356,25.8023715 55.6363636,25.1265115 55.6363636,24.5928854 L55.6363636,7.66007905 C55.6363636,7.12645291 54.9619356,6.45059289 54.4268775,6.45059289 L52.0079051,6.45059289 Z M22.9802372,0 C22.445179,0 21.770751,0.675677649 21.770751,1.20948617 L21.770751,3.6284585 C21.770751,4.16226702 22.445179,4.83794466 22.9802372,4.83794466 L25.3992095,4.83794466 C25.9342676,4.83794466 26.6086957,4.16226702 26.6086957,3.6284585 L26.6086957,1.20948617 C26.6086957,0.675677649 25.9342676,0 25.3992095,0 L22.9802372,0 Z M22.9802372,6.45059289 C22.445179,6.45059289 21.770751,7.12645291 21.770751,7.66007905 L21.770751,24.5928854 C21.770751,25.1265115 22.445179,25.8023715 22.9802372,25.8023715 L25.3992095,25.8023715 C25.9342676,25.8023715 26.6086957,25.1265115 26.6086957,24.5928854 L26.6086957,7.66007905 C26.6086957,7.12645291 25.9342676,6.45059289 25.3992095,6.45059289 L22.9802372,6.45059289 Z M102.403162,1.20948617 L102.403162,24.5928854 C102.403162,25.1265115 101.728917,25.8023715 101.193676,25.8023715 L98.7747036,25.8023715 C98.2394626,25.8023715 97.5652174,25.1265115 97.5652174,24.5928854 L97.5652174,1.20948617 C97.5652174,0.675677649 98.2394626,0 98.7747036,0 L101.193676,0 C101.728917,0 102.403162,0.675677649 102.403162,1.20948617 Z" id="path-1"></path>
    </defs>
    <g id="digikala-mag-logo-white" stroke="none" stroke-width="1" fill="none" fill-rule="evenodd">
        <g id="Digikala-Mag-Logo">
            <g id="Group" transform="translate(126.391304, 6.652174)" fill="#FFFFFF">
                <path d="M34.678546,0.670298873 C37.5684248,0.670298873 39.7767284,2.86704071 39.7767284,5.74178928 L39.7767284,5.74178928 L39.7767284,13.9863512 C39.7767284,16.8339795 37.5138988,19.1120822 34.678546,19.1120822 L34.678546,19.1120822 L0.517997149,19.1120822 L0.517997149,0.670298873 Z M31.188881,4.52137715 C28.1354241,4.52137715 25.8180684,6.88084061 25.8180684,9.80982972 C25.8180684,12.7116986 28.1081611,15.071162 31.325196,15.071162 C34.2696009,15.071162 36.3688525,13.1456229 36.3688525,10.2166338 L36.3688525,10.2166338 L36.3688525,9.40302568 L31.243407,9.40302568 L31.243407,11.1658432 L34.3513899,11.1658432 C33.9969708,12.3320148 32.9609765,13.0913823 31.352459,13.0913823 C29.1986814,13.0913823 27.835531,11.6540081 27.835531,9.78270945 C27.835531,7.85717031 29.2259444,6.44691629 31.188881,6.44691629 C32.4429793,6.44691629 33.4789736,7.04356222 33.9424448,7.85717031 L33.9424448,7.85717031 L35.6600143,6.88084061 C34.787598,5.49770686 33.1518175,4.52137715 31.188881,4.52137715 Z M6.62491091,4.73833931 L4.55292231,4.73833931 L4.55292231,14.8813201 L6.57038489,14.8813201 L6.57038489,8.31821489 L9.46026372,13.0100215 L9.70563079,13.0100215 L12.5955096,8.31821489 L12.5955096,14.8813201 L14.5857092,14.8813201 L14.5857092,4.73833931 L12.5137206,4.73833931 L9.56931575,9.53862703 L6.62491091,4.73833931 Z M21.7013542,4.73833931 L19.1931575,4.73833931 L15.5944405,14.8541999 L17.7754811,14.8541999 L18.4025303,13.0371418 L22.4919815,13.0371418 L23.0917676,14.8541999 L25.3000713,14.8541999 L21.7013542,4.73833931 Z M20.4472559,7.04356222 L21.8649323,11.1929635 L19.0295795,11.1929635 L20.4472559,7.04356222 Z" id="Combined-Shape"></path>
            </g>
            <g id="📕05-Brand/01-Digikala/Logo/Logotype/En/Mono" transform="translate(0.000000, 0.286723)">
                <mask id="mask-2" fill="white">
                    <use xlink:href="#path-1"></use>
                </mask>
                <use id="Combined-Shape" fill="#FFFFFF" xlink:href="#path-1"></use>
            </g>
        </g>
    </g>
</svg>