<svg xmlns="http://www.w3.org/2000/svg" width="938" height="118" viewBox="0 0 938 118">
    <g fill="#19BFD3" fill-rule="nonzero">
        <path d="M61.5 47.5h137V116a1.5 1.5 0 0 0 1.5 1.5h738v-3H201.5V46a1.5 1.5 0 0 0-1.5-1.5H60a1.5 1.5 0 0 0-1.5 1.5v68.5H0v3h60a1.5 1.5 0 0 0 1.5-1.5V47.5z"/>
        <path d="M127.073 37.878c1.654-8.48 3.583-15.507 5.793-21.088 6.868-17.345 25.332-21.942 36.04-10.54 9.619 10.242 4.943 25.22-8.388 31.502-5.877 2.77-16.092 5.673-30.697 8.74l-2.302.478c-.176.036-.358.04-.536.01l-2.07-.351c-13.338-2.299-22.144-4.561-26.54-6.853l-.431-.233c-11.563-6.475-12.816-18.552-4.924-27.255 7.867-8.677 21.709-6.704 28.02 5.919 1.734 3.465 3.59 9.381 5.593 17.786l.442 1.885zm1.972 5.717c-.12.707-.24 1.423-.357 2.148-.265 1.637-2.575 1.69-2.914.068l-.152-.726-.303-1.426 1.879.32 1.847-.384zm-5.051-.167l1.325.231-.28-1.29c-2.455-11.259-4.684-18.885-6.647-22.81-5.378-10.758-16.725-12.375-23.188-5.247-6.649 7.333-5.635 17.117 4.175 22.61 3.714 2.08 11.959 4.27 24.615 6.506zm5.05.167l.746-.157c14.089-2.978 23.93-5.789 29.475-8.401 11.639-5.485 15.58-18.11 7.49-26.724-9.16-9.754-25.042-5.8-31.137 9.59-2.56 6.468-4.755 15.036-6.573 25.692z"/>
    </g>
</svg>
