<?xml version="1.0" encoding="utf-8"?>
<!-- Generator: Adobe Illustrator 22.1.0, SVG Export Plug-In . SVG Version: 6.00 Build 0)  -->
<svg version="1.1" id="Layer_1" xmlns="http://www.w3.org/2000/svg" xmlns:xlink="http://www.w3.org/1999/xlink" x="0px" y="0px"
	 viewBox="0 0 262.8 262.8" style="enable-background:new 0 0 262.8 262.8;" xml:space="preserve">
<style type="text/css">
	.st0{fill-rule:evenodd;clip-rule:evenodd;fill:#3CC0C4;}
	.st1{fill:#3CC0C4;}
</style>
<g id="XMLID_1_">
	<g id="XMLID_2_">
		<path id="XMLID_19_" class="st0" d="M88.5,195.9l0-13.6c-13.3,0.9-18.8-1-25.8-8c-5.8-5.7-9.3-15.3-4.9-25.4
			c3.1-7.1,10-12.9,19.1-14.8c7.3-1.5,24.7-0.6,33.1-0.6h85c4.9,0,11.5,0.9,14.7-1.9c3.8-3.2,2.7-8.5-1.2-10.7
			c-2.9-1.7-11.6-1-15.6-1l-101.7,0c-11.7,0-19.2-0.5-28.5,4.9c-24.5,14.2-29,56.5,11.1,69.3C80,196.1,81.8,195.6,88.5,195.9z"/>
	</g>
	<g id="XMLID_3_">
		<path id="XMLID_4_" class="st0" d="M84.4,55.5c12.9-1.5,23.4,8.3,24.7,19.5c1.5,13.2-8.1,23.7-19.6,25.1
			c-13.3,1.6-23.7-8.2-25-19.7C63,67,72.8,56.9,84.4,55.5L84.4,55.5z M130.3,112.8l0.1-12.4l-16.8-0.1c1.9-4,4.1-5.3,6.1-11.9
			C130.9,51,82,26.2,58.5,57.4c-13.1,17.3-5.9,39.6,7.8,49.1c9.2,6.3,15.8,6.4,28.6,6.4C101.8,112.9,125.3,113.2,130.3,112.8z"/>
	</g>
	<g id="XMLID_7_">
		<path id="XMLID_8_" class="st0" d="M161.7,82.5c-2.8-13.7,6.9-24.4,17.6-26.5c13.6-2.6,24.6,7,26.5,17.8
			c2.4,13.6-6.9,24.2-17.9,26.3C174.4,102.6,163.9,93.1,161.7,82.5L161.7,82.5z M157.1,100.4l-16.9,0.2l0,12.5c11.7,0,23.4,0,35.2,0
			c12.3,0,20.2-0.1,28.8-6.4c16.4-11.9,19.2-33.9,7.9-49.2c-17.5-23.9-57.5-16-62.4,15.7C148,83.8,152,94.6,157.1,100.4z"/>
	</g>
	<g id="XMLID_11_">
		<path id="XMLID_18_" class="st0" d="M88.5,175.2l0-12.8c-2.5,0.5-5.6,0.5-7.2-0.9c-1.7-1.6-2.3-3.7-0.5-5.6
			c3.1-3.1,10.5-1.9,15.4-1.9c8.6,0,99.3,0.4,103.2-0.1c0.9-2.3,4.2-11.3,4.3-13c-31.9-0.1-63.8-0.1-95.8-0.2
			c-14.4,0-32.5-1.1-38.6,9.5c-3.4,5.7-1.7,13.7,1.9,18.1c1.6,2,4,4.1,6.8,5.3C82.7,175.7,84.2,174.3,88.5,175.2z"/>
	</g>
	<g id="XMLID_12_">
		<path id="XMLID_17_" class="st0" d="M109,182.4l-0.1,13.4c28.3-0.4,53.4,0,81.9,0c7.6,0,21.8,2.4,21.5-7c-0.1-4.3-3.9-6.5-8.1-6.5
			L109,182.4z"/>
	</g>
	<g id="XMLID_13_">
		<path id="XMLID_16_" class="st0" d="M109.1,162.5l0,12.3l94.5-0.8l-3.7-10.6c-0.9-1.8,0-0.7-1.2-1.5L109.1,162.5z"/>
	</g>
	<g id="XMLID_14_">
		<path id="XMLID_15_" class="st1" d="M109,219.6l-0.9-1c-0.9-1-7.8-12.5-9.5-15.8c-2,3-3.5,5.7-4.9,8.2c-1,1.8-1.9,3.5-3,5.2
			l-2.7,3.1l0-13.1l0-42.9l0-4.3l21.5,0l0,4.4l0,15.8l-0.2,9.7L109,219.6z M98.9,200.5l0.3,1.1c0.3,0.9,6.5,11.3,8.9,15l0.1-10.6
			l0.1-17.2l0.2-9.7l0-15.8l0-3.4l-19.5,0l0,3.3l0,42.9l0,10.4l0.9-1c1-1.6,1.9-3.3,2.9-5c1.5-2.8,3.1-5.6,5.5-9L98.9,200.5z"/>
	</g>
</g>
</svg>
