<?xml version="1.0" encoding="UTF-8"?>
<svg width="170px" height="93px" viewBox="0 0 170 93" version="1.1" xmlns="http://www.w3.org/2000/svg" xmlns:xlink="http://www.w3.org/1999/xlink">
    <!-- Generator: Sketch 59.1 (86144) - https://sketch.com -->
    <title>MyDK/Branding/MyDK Logo</title>
    <desc>Created with Sketch.</desc>
    <defs>
        <polygon id="path-1" points="0.0346745896 0.815750912 34.4105 0.815750912 34.4105 34.999815 0.0346745896 34.999815"></polygon>
        <polygon id="path-3" points="0 0.0640312474 52.8247958 0.0640312474 52.8247958 31.0603165 0 31.0603165"></polygon>
    </defs>
    <g id="MyDK/Branding/MyDK-Logo" stroke="none" stroke-width="1" fill="none" fill-rule="evenodd">
        <g id="Page-Title">
            <g id="For-You" transform="translate(28.484940, 46.986842)">
                <g id="Group-3" transform="translate(79.000000, 10.500000)">
                    <mask id="mask-2" fill="white">
                        <use xlink:href="#path-1"></use>
                    </mask>
                    <g id="Clip-2"></g>
                    <path d="M33.64685,0.832096774 C33.137225,0.736129032 32.646725,1.07258065 32.549975,1.58290323 L32.5421,1.63032258 C31.701725,6.10580645 30.524975,10.781129 28.234475,14.4222581 C27.6506,15.2825806 26.960975,16.1508065 26.283725,16.5448387 C25.950725,16.7401613 25.682975,16.8158065 25.464725,16.7875806 C25.244225,16.7729032 24.96185,16.6724194 24.636725,16.4240323 C23.9786,15.9351613 23.3351,15.0477419 22.7366,14.105 C22.422725,13.6217742 22.1471,13.1317742 21.718475,12.5367742 C21.497975,12.2466129 21.26285,11.9304839 20.8061,11.5827419 C20.56985,11.4145161 20.251475,11.2259677 19.8116,11.1458065 C19.376225,11.06 18.8756,11.1491935 18.554975,11.3027419 C17.9036,11.6166129 17.62235,11.9722581 17.362475,12.2635484 C17.11385,12.566129 16.92035,12.8517742 16.7426,13.1306452 C16.388225,13.6883871 16.0946,14.2280645 15.807725,14.7677419 C15.240725,15.8301613 14.71535,16.9569355 14.2046,17.8748387 C13.082975,19.8032258 11.73635,21.6943548 10.2986,23.5008065 C8.8586,25.3106452 7.304975,27.0358065 5.7041,28.698871 C4.098725,30.3382258 2.38085,31.9437097 0.56285,33.0851613 L0.507725,33.1201613 C0.0611,33.4012903 -0.097525,33.985 0.154475,34.4591935 C0.4166,34.9559677 1.031975,35.1445161 1.52585,34.8803226 C3.803975,33.6654839 5.6051,32.061129 7.3826,30.4285484 C9.152225,28.7880645 10.7801,27.021129 12.33935,25.1864516 C13.88285,23.3370968 15.3656,21.4324194 16.646975,19.2917742 C17.28935,18.1491935 17.76185,17.1330645 18.31535,16.1169355 C18.586475,15.6156452 18.863225,15.121129 19.144475,14.6853226 C19.23785,14.5396774 19.3301,14.4087097 19.421225,14.2890323 C19.67885,14.6503226 19.98035,15.1674194 20.2931,15.6630645 C20.962475,16.696129 21.664475,17.8093548 22.88735,18.7645161 C23.49035,19.2262903 24.321725,19.6654839 25.2836,19.7106452 C26.249975,19.7772581 27.14435,19.423871 27.8036,19.003871 C29.138975,18.1277419 29.8736,17.0337097 30.5981,15.9509677 C31.294475,14.8512903 31.816475,13.7041935 32.277725,12.5446774 C32.691725,11.3727419 33.062975,10.1974194 33.3476,9.01080645 C33.940475,6.63532258 34.2791,4.25870968 34.4096,1.80758065 C34.43435,1.34354839 34.113725,0.921290323 33.64685,0.832096774" id="Fill-1" fill="#3B2314" mask="url(#mask-2)"></path>
                </g>
                <path d="M87.5661569,27.4418587 C88.0252158,27.6111126 88.541508,27.3981441 88.7215545,26.9677234 C89.543091,24.9972037 90.3181255,23.0031454 90.9202677,20.9519219 C91.5641425,18.9130281 92.0065084,16.8203318 92.3904485,14.7153056 C92.7314637,12.6024333 92.9448963,10.4660224 92.9937831,8.31391898 C93.0235921,6.13603519 92.9592046,4.05118504 92.5120693,1.74327834 C92.5072999,1.71749793 92.5013381,1.68723398 92.4941839,1.66145358 C92.2867132,0.848810372 91.4162898,0.347773804 90.5518283,0.541687285 C89.6861743,0.737842541 89.1531891,1.55496929 89.3606599,2.3676125 L89.3845071,2.45952525 C89.8387965,4.24061497 90.0605756,6.34115754 90.1333096,8.33185317 C90.2036589,10.3516919 90.1201937,12.3849812 89.9103382,14.4126661 C89.65875,16.4358675 89.3523133,18.4624315 88.8431753,20.4553689 C88.3793469,22.4572734 87.7402416,24.4221886 87.0534418,26.3747741 L87.0450953,26.4016754 C86.8972425,26.8208872 87.1237911,27.2782091 87.5661569,27.4418587" id="Fill-4" fill="#3B2314"></path>
                <path d="M82.8190853,32.7423651 C83.2214865,31.9496977 83.5755115,31.0115763 83.5733126,29.9043224 C83.5898045,28.795941 83.1005462,27.6638811 82.4496679,26.9174432 C81.1237231,25.4211846 79.5833843,24.8190731 78.1925716,24.2248544 C77.776977,24.0545944 77.3294981,23.8843343 76.9501855,23.7264774 C77.0040589,23.6058296 77.0436393,23.4885644 77.10301,23.3679166 C77.687921,22.14227 78.4685352,20.9211336 79.2909288,19.7372064 C80.950009,17.3693519 82.8289804,15.0860637 84.770621,12.9200406 L84.7860134,12.9031274 C85.0718721,12.5840308 85.0729715,12.0879089 84.7794166,11.7654297 C84.4715687,11.4271648 83.9537246,11.4102515 83.6227882,11.7259655 C81.4590574,13.8017845 79.4019739,15.9463842 77.4757258,18.2939427 C76.520298,19.4756149 75.593456,20.692241 74.7864548,22.0960405 C74.5874531,22.447836 74.3840536,22.8030141 74.2246324,23.2100596 L74.1014932,23.5077327 L74.0421226,23.6576968 L74.0168351,23.7276049 C73.992647,23.807661 73.9728568,23.8910996 73.9585639,23.9756659 C73.9288785,24.1414157 73.9332764,24.3150583 73.9585639,24.4875735 C74.1014932,25.1708686 74.3972471,25.3715725 74.5500716,25.5384498 C74.7303825,25.6985619 74.8513227,25.7695975 74.9766608,25.8507811 C75.8716185,26.3536683 76.4851153,26.5408415 77.1557839,26.8441524 C78.4333526,27.3842487 79.6614457,28.0280796 80.2815393,28.8015788 C80.5827904,29.1860732 80.6960345,29.5141902 80.694935,29.9099602 C80.6982334,30.3079852 80.5366132,30.8187653 80.2584507,31.3396932 C79.6966283,32.3883145 78.7554934,33.4358082 77.7604851,34.3705469 C76.7687752,35.301903 75.6869098,36.1205041 74.5214857,36.7632075 C72.2027315,38.0700377 69.538748,38.6529809 66.9671188,38.3767312 C64.4042852,38.1185223 61.9195131,36.9131716 60.3461906,34.9253014 C58.7145969,32.9791506 58.1736642,30.2628832 58.7585751,27.6379474 C59.307204,24.9938433 60.7958684,22.4951931 62.5890822,20.2773027 L62.5978779,20.2660272 C62.8782393,19.9176144 62.8595486,19.4023241 62.5429051,19.0764622 C62.2042724,18.7291769 61.656743,18.7291769 61.3192098,19.0742071 C59.1983578,21.2447404 57.2940988,23.852763 56.4299259,27.0482389 C55.9890437,28.6301912 55.8703024,30.3542148 56.1528628,32.0410292 C56.4343237,33.7289711 57.1368765,35.3548979 58.1626696,36.7113402 C60.2428417,39.4321177 63.4224704,40.9994119 66.6317845,41.3917992 C69.8663861,41.8056099 73.154861,41.0061772 75.9408843,39.4433932 C77.3393932,38.6631288 78.6279564,37.6979462 79.7691925,36.594075 C80.8939367,35.4913314 81.978001,34.325445 82.8190853,32.7423651" id="Fill-6" fill="#3B2314"></path>
                <g id="Group-10" transform="translate(0.000000, 2.500000)">
                    <mask id="mask-4" fill="white">
                        <use xlink:href="#path-3"></use>
                    </mask>
                    <g id="Clip-9"></g>
                    <path d="M16.3735043,21.4227034 C17.109866,19.9365655 18.3345043,18.6518414 19.7102489,18.130669 C20.4015043,17.8587034 20.9732277,17.8734966 21.2641638,18.0851517 C21.5832915,18.2706345 21.8640787,18.8384621 21.9114404,19.5587724 C22.0208234,21.0084966 21.3600149,22.7279103 20.3947383,24.0536 C19.5219298,25.191531 17.9657596,26.1633241 16.4118447,26.8517724 C16.1806745,26.5866345 15.996866,26.2873586 15.8739511,25.9550828 C15.3383128,24.6510138 15.6236106,22.8940483 16.3735043,21.4227034 M52.0921213,15.6340483 C51.6782702,15.5942207 51.3095255,15.9014621 51.2700574,16.3202207 L51.2655468,16.3657379 C51.0512915,18.6416 50.5833128,20.9891517 49.7432064,23.0032897 C49.3192064,24.0058069 48.750866,24.9059103 48.0923128,25.5397379 C47.7630362,25.8572207 47.4100787,26.1018759 47.0390787,26.2623241 C46.7041638,26.4022897 46.1493553,26.5536345 45.7343766,26.6002897 C44.8311213,26.7129448 44.1872277,26.4990138 43.7733766,26.0586345 C43.3223128,25.6341862 43.0065681,24.8080483 42.8565894,23.8578759 C42.5645255,21.9199793 42.8825255,19.6634621 43.3200574,17.4604276 L43.3200574,17.4592897 L43.3189298,17.4581517 C43.3200574,17.4536 43.3223128,17.4501862 43.3234404,17.4456345 C43.3268234,17.436531 43.3324617,17.4194621 43.334717,17.4103586 C43.6132489,16.512531 43.1182064,15.556669 42.228483,15.2756 C41.3387596,14.994531 40.3915255,15.4940828 40.1129936,16.3919103 L40.0385681,16.6274621 L40.0385681,16.6286 C39.8040149,17.469531 39.6010362,18.3320828 39.4499298,19.2139793 C39.1082489,20.4702552 38.6910149,21.7140138 38.1869511,22.882669 C37.7652064,23.8703931 37.2814404,24.829669 36.6894191,25.653531 C36.1176957,26.4830828 35.4117809,27.1874621 34.7126319,27.4787724 C34.4092915,27.6164621 33.9435681,27.6961172 33.5443766,27.6949793 C33.1451851,27.6904276 32.8260574,27.5937034 32.5599298,27.4241517 C32.0209085,27.1078069 31.6363766,26.2919103 31.4412915,25.3440138 C31.0725468,23.4140828 31.3307809,21.1871517 31.8100362,19.0831172 L31.8100362,19.0808414 L31.7965043,19.0797034 C31.8043979,19.0410138 31.8145468,19.0057379 31.8224404,18.9670483 C31.9961,18.0851517 31.4536957,17.2100828 30.5808872,16.9927379 C29.6821426,16.7697034 28.7755043,17.3238759 28.554483,18.229669 L28.4586319,18.6233931 L28.4586319,18.625669 C28.4575043,18.6632207 28.4563766,18.7007724 28.4541213,18.7394621 L28.4473553,18.7383241 C28.5296745,22.0974966 27.1888872,26.0870828 24.3054617,27.6494621 C22.9071638,28.4528414 21.1818447,28.5939448 19.4982489,28.3310828 C20.6033553,27.6608414 21.6486957,26.8312897 22.5609723,25.6614966 C23.7968872,23.8647034 24.7057809,21.792531 24.5738447,19.3493931 C24.526483,18.7428759 24.3968021,18.1101862 24.1148872,17.4866 C23.8419936,16.8664276 23.3672489,16.249669 22.7222277,15.8252207 C22.081717,15.3882552 21.3025043,15.2209793 20.6180149,15.2289448 C19.9245043,15.2369103 19.3042915,15.3984966 18.7506106,15.6169793 C16.5358872,16.5250483 15.0079085,18.3059103 14.0482702,20.2574621 C13.5622489,21.2417724 13.237483,22.3171172 13.0976532,23.4470828 C12.9803766,24.5770483 13.0626957,25.7969103 13.5532277,26.9382552 C13.6637383,27.2011172 13.8001851,27.4537379 13.9524191,27.6983931 C13.0367596,27.9225655 12.1075681,28.062531 11.1930362,28.1057724 C9.48688723,28.1524276 7.81005745,27.8178759 6.55722766,26.9894621 C5.2897383,26.1758414 4.44963191,24.8990828 3.92639787,23.3560483 C3.42684468,21.7879793 3.2588234,20.0480828 3.29603617,18.2023586 C3.31295106,16.3463931 3.47307872,14.4813241 3.7053766,12.619669 C3.93541915,10.7568759 4.2658234,8.89863448 4.68305745,7.05746207 C5.0721,5.21856552 5.58067447,3.35918621 6.1321,1.61018621 L6.15127021,1.54873793 C6.32154681,1.00025517 6.05992979,0.398289655 5.52654681,0.1616 C4.95369574,-0.0932965517 4.28386596,0.168427586 4.03239787,0.746496552 C2.4221,4.43225517 1.36435532,8.21928966 0.655057447,12.1508414 C0.294206383,14.1092207 0.112653191,16.1074276 0.0258234043,18.1158759 C-0.0564957447,20.1266 0.0280787234,22.3034621 0.696780851,24.432531 C1.06665319,25.489669 1.53914255,26.5479448 2.2631,27.4844621 C2.97578085,28.4221172 3.89820638,29.2129793 4.9131,29.7933241 C6.9688234,30.9847379 9.27488723,31.1633931 11.3666957,31.0166 C13.0953979,30.8629793 14.7496745,30.4476345 16.3329085,29.8513586 C17.2339085,30.3133586 18.1800149,30.5739448 19.0990574,30.7013931 C21.1694404,30.9904276 23.4495681,30.7901517 25.417334,29.7011517 C26.9385468,28.888669 28.1135681,27.6323931 29.0202064,26.2543586 C29.1780787,26.7926 29.3765468,27.3342552 29.6821426,27.8679448 C30.0486319,28.4892552 30.5662277,29.118531 31.2676319,29.5452552 C31.9645255,29.977669 32.7798234,30.1631517 33.5082915,30.1586 C34.2345043,30.1597379 34.907717,30.0709793 35.6485894,29.7751172 C37.0446319,29.1742897 37.9602915,28.161531 38.7248447,27.1806345 C39.0834404,26.7038414 39.4025681,26.2168069 39.7036532,25.7240828 C40.0396957,26.7413931 40.588866,27.766669 41.542866,28.6019103 C42.2059298,29.1833931 43.0618234,29.5680138 43.8951638,29.7182207 C44.7352702,29.877531 45.5415468,29.8183586 46.2688872,29.6624621 C47.0199085,29.4906345 47.6119298,29.2926345 48.3494191,28.9148414 C49.0440574,28.5404621 49.6394617,28.0340828 50.1232277,27.4799103 C51.0930149,26.3601862 51.6365468,25.0834276 52.0255894,23.8419448 C52.7709723,21.330531 52.9220787,18.8543931 52.7732277,16.3463931 C52.7518021,15.9788414 52.4676319,15.6704621 52.0921213,15.6340483" id="Fill-8" fill="#3B2314" mask="url(#mask-4)"></path>
                </g>
                <path d="M33.6419488,10.8628 C36.5962837,11.3812 39.5495249,11.4904 42.5016722,11.5 C45.4538195,11.4676 48.4070607,11.3368 51.3570204,10.7968 C51.6742204,10.738 51.9378245,10.4632 51.9903266,10.096 C52.0570479,9.6364 51.771568,9.2032 51.3515514,9.13 C48.3972165,8.6152 45.4439754,8.5084 42.4918281,8.5 C39.5396807,8.5348 36.5864396,8.6692 33.6364798,9.2128 C33.3225613,9.2704 33.0633323,9.5416 33.0097365,9.9052 C32.9430151,10.3612 33.2263075,10.7896 33.6419488,10.8628" id="Fill-11" fill="#3B2314"></path>
                <path d="M39.9161911,4.35399996 L40.0277519,4.2490788 C40.374234,3.92405127 40.7089164,3.57051255 41.0114177,3.32531634 C41.321428,3.07099655 41.6067662,2.90449122 41.9060495,2.79500827 C42.2106963,2.68894665 42.5453787,2.61937935 42.9594408,2.61367712 C43.1611084,2.60455354 43.38423,2.63648607 43.6148605,2.62850293 C43.8476364,2.65587367 44.0879212,2.68666575 44.3560962,2.68210397 L44.4515665,2.67982307 C44.5920902,2.67640173 44.7315411,2.61709846 44.8377384,2.50191326 C45.0565692,2.26812153 45.0533511,1.89063342 44.8323749,1.66026303 C44.621053,1.43787577 44.3839864,1.24514015 44.1340473,1.0615281 C43.8594361,0.920112616 43.5912611,0.745624153 43.2758873,0.662371487 C42.6644484,0.446826914 41.9285762,0.443405572 41.2388301,0.666933277 C40.5415752,0.893882324 39.9462267,1.39681966 39.5729271,1.97958832 C39.1942641,2.57262101 38.9947419,3.19644578 39.0001054,3.91948948 C39.0022508,4.05520272 39.0473042,4.19205642 39.1384837,4.30153938 C39.3390785,4.54445469 39.687706,4.56726364 39.9161911,4.35399996" id="Fill-13" fill="#3B2314"></path>
                <path d="M104.345197,38.1831377 L104.145101,38.1523041 C103.702619,38.0844701 103.380814,38.07522 103.199283,37.9755246 C103.006407,37.8830237 102.97959,37.8439677 102.866133,37.7586613 C102.766085,37.6702716 102.567019,37.5551594 102.330823,37.3639908 C102.093595,37.1831002 101.797576,36.9261533 101.420074,36.7226513 L101.17872,36.5910945 C101.116835,36.5571775 101.048761,36.5325105 100.975529,36.5170937 C100.560896,36.428704 100.153483,36.6918177 100.06478,37.1049883 C99.937915,37.6980219 100.001863,38.2047212 100.217431,38.7268374 C100.436094,39.232509 100.805344,39.7587363 101.419042,40.1133231 C102.011081,40.4905212 102.86407,40.6056335 103.495303,40.3969925 C104.155415,40.2191853 104.595834,39.8142369 104.884633,39.3465934 C104.936204,39.2623148 104.974367,39.164675 104.99087,39.0608684 C105.05585,38.6405032 104.767051,38.2478883 104.345197,38.1831377" id="Fill-15" fill="#3B2314"></path>
            </g>
            <path d="M156.522379,29.7631579 C157.243312,30.4566598 157.93316,31.1253838 158.591942,31.7693498 C159.250726,32.4133159 159.953002,33.1191912 160.698795,33.8869969 C160.002722,34.5557309 159.325305,35.2244549 158.666521,35.8931889 C158.007738,36.5619228 157.293031,37.2554143 156.522379,37.9736842 L152.457831,33.8869969 C153.178764,33.1439591 153.849967,32.4566595 154.47146,31.8250774 C155.092954,31.1934953 155.776587,30.5061956 156.522379,29.7631579 Z M148.281415,29.7631579 C149.002348,30.4566598 149.692196,31.1253838 150.350978,31.7693498 C151.009762,32.4133159 151.712039,33.1191912 152.457831,33.8869969 C151.761758,34.5557309 151.084341,35.2244549 150.425557,35.8931889 C149.766774,36.5619228 149.052068,37.2554143 148.281415,37.9736842 L144.216867,33.8869969 C144.9378,33.1439591 145.609003,32.4566595 146.230497,31.8250774 C146.85199,31.1934953 147.535623,30.5061956 148.281415,29.7631579 Z M136.95009,29.7631579 C137.671022,30.4566598 138.36087,31.1253838 139.019653,31.7693498 C139.678437,32.4133159 140.380713,33.1191912 141.126506,33.8869969 C140.430433,34.5557309 139.753015,35.2244549 139.094232,35.8931889 C138.435449,36.5619228 137.720742,37.2554143 136.95009,37.9736842 L133.391,34.394 L133.225807,34.5557283 C132.770048,35.001548 132.322578,35.4473662 131.883388,35.8931889 C131.224606,36.5619228 130.509899,37.2554143 129.739246,37.9736842 L125.674699,33.8869969 C126.395632,33.1439591 127.066835,32.4566595 127.688328,31.8250774 C128.309821,31.1934953 128.993454,30.5061956 129.739246,29.7631579 C130.460179,30.4566598 131.150027,31.1253838 131.80881,31.7693498 C132.313276,32.262469 132.843245,32.7918905 133.398728,33.3576237 C133.928271,32.8147277 134.428006,32.303891 134.899171,31.8250774 C135.520665,31.1934953 136.204298,30.5061956 136.95009,29.7631579 Z M164.763343,29.7631579 C165.484276,30.4566598 166.174123,31.1253838 166.832906,31.7693498 C167.49169,32.4133159 168.193966,33.1191912 168.939759,33.8869969 C168.243686,34.5557309 167.566268,35.2244549 166.907485,35.8931889 C166.248702,36.5619228 165.533995,37.2554143 164.763343,37.9736842 L160.698795,33.8869969 C161.419728,33.1439591 162.090931,32.4566595 162.712424,31.8250774 C163.333918,31.1934953 164.017551,30.5061956 164.763343,29.7631579 Z M42.7278289,9.23684211 C43.4964433,9.86403824 44.2687418,10.5624962 45.0447472,11.3322369 C45.8207525,12.1019775 46.5265368,12.9144694 47.1621226,13.7697368 C47.7977073,14.6250043 48.3224274,15.5087674 48.7362962,16.4210526 C49.150166,17.3333378 49.3866599,18.2384824 49.4457831,19.1365131 C49.4457831,20.1485796 49.2351568,21.1107411 48.813897,22.0230263 C48.3926372,22.9353116 47.8235749,23.7371128 47.1066938,24.4284539 C46.3898127,25.1197952 45.558391,25.6685834 44.6124038,26.0748355 C43.6664157,26.4810876 42.6613198,26.6842105 41.5970842,26.6842105 L36.0542169,26.6842105 L36.0542169,22.5789474 L41.5083978,22.5789474 C42.1292025,22.5789474 42.6723981,22.4756041 43.1380011,22.2689145 C43.6036042,22.0622248 43.9879057,21.7949577 44.290917,21.4671053 C44.5939293,21.1392528 44.8230322,20.7650789 44.9782329,20.3445724 C45.1334335,19.9240659 45.2184234,19.5071292 45.2332044,19.09375 C45.1592991,18.594844 44.9523673,18.0603099 44.6124038,17.4901316 C44.2724394,16.9199533 43.8474902,16.34622 43.337544,15.7689145 C42.8275978,15.1916089 42.2585355,14.6178757 41.6303408,14.0476974 C41.0021461,13.477519 40.3702661,12.9358579 39.7346803,12.4226974 L42.7278289,9.23684211 Z M54.5965212,1.02631579 L54.5965212,19.0019476 C54.5965212,19.5054693 54.6792204,19.9622285 54.8446208,20.3722389 C55.0100213,20.7822494 55.2257587,21.1347093 55.491838,21.429629 C55.7579172,21.7245489 56.0707365,21.9655163 56.4303028,22.1525386 C56.7366984,22.3119043 57.0535324,22.4242614 57.3808127,22.4896121 L59.2917887,22.4896121 L59.2702141,14.958405 C59.2702141,13.9082028 59.4715688,12.9227538 59.8742842,12.0020286 C60.2769995,11.0813033 60.8235328,10.2756808 61.513901,9.58513691 C62.2042702,8.89459291 63.0132838,8.34792049 63.9409669,7.94510327 C64.868649,7.54228594 65.8574437,7.34088033 66.9073792,7.34088033 C67.5977484,7.34088033 68.2701279,7.43798661 68.9245399,7.63220209 C69.5789519,7.82641757 70.1938027,8.0997538 70.7691093,8.45221892 C71.344417,8.80468404 71.8729726,9.22907445 72.3547923,9.7254029 C72.836612,10.2217314 73.2572989,10.7720003 73.6168662,11.3762263 L77.306005,11.3762263 C78.3559405,11.3762263 79.3411393,11.5776319 80.2616306,11.9804492 C81.1821229,12.3832665 81.9875405,12.9299389 82.6779087,13.6204828 C83.3682779,14.3110267 83.9148112,15.1202457 84.3175265,16.0481642 C84.7202419,16.9760826 84.9215956,17.9651281 84.9215956,19.0153304 L84.9215956,22.4896121 L88.1792566,22.4896121 C88.5675893,22.4320668 88.9415333,22.3097848 89.3010996,22.1227625 C89.6606669,21.9357402 89.9770811,21.6947727 90.2503522,21.3998529 C90.5236233,21.1049331 90.7393597,20.7524733 90.8975693,20.3424628 C91.0557789,19.9324523 91.1348822,19.4756932 91.1348822,18.9721715 L91.1348822,10.9446385 L95.2554998,10.9446385 L95.2554998,18.9721715 C95.2554998,19.4756932 95.338199,19.9324523 95.5035994,20.3424628 C95.6690009,20.7524733 95.8847373,21.1049331 96.1508176,21.3998529 C96.4168968,21.6947727 96.7297151,21.9357402 97.0892824,22.1227625 C97.4488497,22.3097848 97.8227937,22.4320668 98.2111253,22.4896121 L98.2111253,22.4939381 C98.2143869,22.4924992 98.2176554,22.4910567 98.220932,22.4896121 C98.6092647,22.4320668 98.9832087,22.3097848 99.342775,22.1227625 C99.7023422,21.9357402 100.015162,21.6947727 100.281241,21.3998529 C100.54732,21.1049331 100.763057,20.7524733 100.928458,20.3424628 C101.093858,19.9324523 101.176558,19.4756932 101.176558,18.9721715 L101.176558,10.9446385 L105.297175,10.9446385 L105.297175,18.9721715 C105.297175,19.5332384 105.397852,20.0367525 105.59921,20.4827289 C105.800567,20.9287051 106.063048,21.3027442 106.386658,21.6048572 C106.710268,21.9069701 107.080617,22.137148 107.497714,22.2953976 C107.914812,22.4536472 108.339095,22.5327709 108.770575,22.5327709 C109.202055,22.5327709 109.622742,22.4536472 110.032649,22.2953976 C110.442555,22.137148 110.809308,21.9069701 111.132918,21.6048572 C111.456529,21.3027442 111.719008,20.9287051 111.920366,20.4827289 C112.121724,20.0367525 112.222401,19.5332384 112.222401,18.9721715 L112.222401,10.9446385 L116.386166,10.9446385 L116.386166,18.9721715 C116.386166,19.5332384 116.483247,20.033156 116.677414,20.4719392 C116.87158,20.9107223 117.130464,21.2811647 117.454074,21.5832778 C117.777685,21.8853907 118.144437,22.1155686 118.554344,22.2738182 C118.964251,22.4320678 119.384938,22.5183846 119.816418,22.5327709 C120.247898,22.5183846 120.668585,22.4320678 121.078491,22.2738182 C121.488398,22.1155686 121.855151,21.8853907 122.178761,21.5832778 C122.502372,21.2811647 122.764851,20.9107223 122.966209,20.4719392 C123.167567,20.033156 123.268243,19.5332384 123.268243,18.9721715 L123.268243,10.9446385 L127.388861,10.9446385 L127.388861,18.9721715 C127.388861,19.4756932 127.47156,19.9324523 127.636961,20.3424628 C127.802362,20.7524733 128.018098,21.1049331 128.284179,21.3998529 C128.550258,21.6947727 128.85948,21.9357402 129.211857,22.1227625 C129.564232,22.3097848 129.93458,22.4320668 130.322913,22.4896121 L135.375131,22.4896121 C137.201732,22.4320668 138.294798,22.3097848 138.654366,22.1227625 C139.013933,21.9357402 139.330347,21.6947727 139.603617,21.3998529 C139.876888,21.1049331 140.092626,20.7524733 140.250835,20.3424628 C140.409045,19.9324523 140.488148,19.4756932 140.488148,18.9721715 L140.488148,10.9446385 L144.608765,10.9446385 L144.608765,18.9721715 C144.608765,19.4756932 144.691464,19.9324523 144.856865,20.3424628 C145.022266,20.7524733 145.238003,21.1049331 145.504083,21.3998529 C145.770162,21.6947727 146.082981,21.9357402 146.442547,22.1227625 C146.802115,22.3097848 147.176059,22.4320668 147.564391,22.4896121 L158.470984,22.4896121 C161.807766,22.5759301 163.655913,22.3097848 164.015479,22.1227625 C164.375047,21.9357402 164.687865,21.6947727 164.953945,21.3998529 C165.220024,21.1049331 165.435762,20.7524733 165.601162,20.3424628 C165.766563,19.9324523 165.849262,19.4756932 165.849262,18.9721715 L165.849262,10.9446385 L169.96988,10.9446385 L169.96988,19.0584891 C169.96988,20.0655324 169.786503,21.0114194 169.419744,21.8961789 C169.052986,22.7809383 168.5496,23.5649816 167.909571,24.2483324 C167.269541,24.9316831 166.518058,25.4855486 165.655097,25.9099455 C164.792137,26.3343422 162.397456,26.7479454 158.470984,26.6760138 L147.564391,26.6760138 L147.564391,26.6544344 C146.658283,26.5825028 145.780952,26.3415353 144.932374,25.9315248 C144.083796,25.5215144 143.29276,24.9712454 142.559244,24.2807015 C141.825726,24.9568591 141.038287,25.5035315 140.1969,25.9207352 C139.355513,26.3379387 137.748273,26.5825028 135.375131,26.6544344 L130.322913,26.6544344 C129.416804,26.5825028 128.543069,26.3415353 127.701682,25.9315248 C126.860296,25.5215144 126.072856,24.9712454 125.339339,24.2807015 C124.533909,25.0144045 123.667366,25.5898491 122.739683,26.0070527 C121.812,26.4242563 120.85197,26.6472411 119.859566,26.6760138 C118.867161,26.6760138 117.896345,26.4602221 116.947087,26.028632 C115.99783,25.5970421 115.113309,25.0072114 114.293496,24.2591221 C113.430536,25.0647567 112.535227,25.6509909 111.607545,26.0178423 C110.679862,26.3846938 109.727023,26.6040821 108.749001,26.6760138 C107.799744,26.6616275 106.846906,26.4494322 105.890457,26.0394218 C104.93401,25.6294113 104.045892,25.043177 103.22608,24.2807015 C102.492563,24.9568591 101.705123,25.5035315 100.863736,25.9207352 C100.022349,26.3379387 99.1414233,26.5825028 98.220932,26.6544344 C98.2176554,26.653393 98.2143869,26.6523526 98.2111253,26.6513131 L98.2111253,26.6544344 C97.3050168,26.5825028 96.4276866,26.3415353 95.5791088,25.9315248 C94.73053,25.5215144 93.939495,24.9712454 93.2059778,24.2807015 C92.4724615,24.9568591 91.6850214,25.5035315 90.8436345,25.9207352 C90.0022475,26.3379387 89.1141306,26.5825028 88.1792566,26.6544344 L57.5521467,26.6544344 L57.5521467,26.6842105 C56.559742,26.6122789 55.6356689,26.3641183 54.7798992,25.9397216 C53.9241296,25.5153247 53.1762417,24.9614593 52.5362124,24.2781085 C51.8961831,23.5947578 51.3927969,22.8107144 51.0260388,21.925955 C50.6592797,21.0411956 50.4759036,20.0953085 50.4759036,19.0882652 L50.4759036,1.02631579 L54.5965212,1.02631579 Z M4.06575334,1.02631579 L4.06575334,19.0019476 C4.06575334,19.5054693 4.14735145,19.9622285 4.31054967,20.3722389 C4.47374789,20.7822494 4.6866128,21.1347093 4.94914936,21.429629 C5.21168593,21.7245489 5.52034015,21.9655163 5.87511897,22.1525386 C6.17743506,22.3119043 6.49005049,22.4242614 6.81297319,22.4896121 L8.69850539,22.4896121 L8.67721811,14.958405 C8.67721811,13.9082028 8.87589183,12.9227538 9.27324522,12.0020286 C9.6705986,11.0813033 10.209855,10.2756808 10.8910312,9.58513691 C11.5722085,8.89459291 12.3704504,8.34792049 13.2857818,7.94510327 C14.2011123,7.54228594 15.1767416,7.34088033 16.2126977,7.34088033 C16.8938749,7.34088033 17.557302,7.43798661 18.2030008,7.63220209 C18.8486995,7.82641757 19.4553638,8.0997538 20.0230105,8.45221892 C20.5906582,8.80468404 21.1121764,9.22907445 21.5875808,9.7254029 C22.0629853,10.2217314 22.478071,10.7720003 22.8328508,11.3762263 L26.4728703,11.3762263 C27.5088264,11.3762263 28.4809077,11.5776319 29.389143,11.9804492 C30.2973793,12.3832665 31.0920732,12.9299389 31.7732495,13.6204828 C32.4544267,14.3110267 32.9936831,15.1202457 33.3910365,16.0481642 C33.7883899,16.9760826 33.9870626,17.9651281 33.9870626,19.0153304 L33.9870626,22.4896121 L33.9939759,26.6544344 L6.98202603,26.6544344 L6.98202603,26.6842105 C6.00283475,26.6122789 5.09106525,26.3641183 4.2466898,25.9397216 C3.40231435,25.5153247 2.66438423,24.9614593 2.03287667,24.2781085 C1.4013691,23.5947578 0.904685295,22.8107144 0.542810384,21.925955 C0.180934483,21.0411956 -4.26325641e-14,20.0953085 -4.26325641e-14,19.0882652 L-4.26325641e-14,1.02631579 L4.06575334,1.02631579 Z M26.3664369,16.5238917 L23.7481772,16.5238917 L23.7481772,19.0122267 C23.7481772,19.501362 23.6807703,20.0372448 23.5459535,20.6198913 C23.4111377,21.2025377 23.2231071,21.8247372 22.9818578,22.4865085 L29.9213103,22.4865085 L29.9213103,20.0197529 C29.9213103,19.5881629 29.8432592,19.1601759 29.6871571,18.7357791 C29.5310539,18.3113824 29.3004508,17.9373433 28.9953397,17.6136508 C28.6902295,17.2899584 28.3177164,17.0274118 27.8777904,16.8260032 C27.4378635,16.6245945 26.9340846,16.5238917 26.3664369,16.5238917 Z M77.1981353,16.5238917 L74.5445443,16.5238917 L74.5445443,18.9991888 C74.5445443,19.4883241 74.4762278,20.0242069 74.3395917,20.6068534 C74.2029566,21.1894998 74.0123887,21.8116993 73.767884,22.4734706 L80.800979,22.4734706 L80.800979,20.0197529 C80.800979,19.5881629 80.7218747,19.1601759 80.5636661,18.7357791 C80.4054565,18.3113824 80.1717415,17.9373433 79.8625132,17.6136508 C79.5532858,17.2899584 79.1757459,17.0274118 78.7298835,16.8260032 C78.28402,16.6245945 77.773443,16.5238917 77.1981353,16.5238917 Z M66.8858057,12.4453869 C66.4543249,12.4741596 66.0300421,12.5712659 65.612945,12.7367087 C65.1958469,12.9021516 64.8254989,13.1359259 64.5018878,13.4380389 C64.1782778,13.7401518 63.9157984,14.1105943 63.7144407,14.5493775 C63.5130831,14.9881606 63.4124062,15.4952712 63.4124062,16.0707244 L63.4124062,22.4606889 L66.9073792,22.4606889 C67.33886,22.4606889 67.7631428,22.3959513 68.1802399,22.2664743 C68.597338,22.1369973 68.967686,21.9248021 69.291297,21.6298823 C69.6149071,21.3349625 69.8773875,20.9609234 70.0787441,20.507754 C70.2801018,20.0545846 70.3807797,19.5115087 70.3807797,18.8785101 L70.3807797,16.0707244 C70.3807797,15.4377258 70.2801018,14.8910535 70.0787441,14.4306908 C69.8773875,13.9703282 69.6149071,13.5926927 69.291297,13.2977728 C68.967686,13.0028531 68.593742,12.7834648 68.1694531,12.6396014 C67.7451642,12.4957381 67.3172864,12.4310006 66.8858057,12.4453869 Z M16.1914114,12.4453869 C15.7656756,12.4741596 15.3470419,12.5712659 14.9354983,12.7367087 C14.5239537,12.9021516 14.1585367,13.1359259 13.8392344,13.4380389 C13.519933,13.7401518 13.2609485,14.1105943 13.0622718,14.5493775 C12.8635951,14.9881606 12.7642587,15.4952712 12.7642587,16.0707244 L12.7642587,22.4554311 L16.2126977,22.4554311 C16.6384334,22.4554311 17.0570672,22.3906936 17.4686108,22.2612166 C17.8801553,22.1317396 18.2455724,21.9195444 18.5648747,21.6246245 C18.884176,21.3297048 19.1431616,20.9556657 19.3418373,20.5024963 C19.540514,20.0493268 19.6398513,19.5062509 19.6398513,18.8732523 L19.6398513,16.0707244 C19.6398513,15.4377258 19.540514,14.8910535 19.3418373,14.4306908 C19.1431616,13.9703282 18.884176,13.5926927 18.5648747,13.2977728 C18.2455724,13.0028531 17.8766073,12.7834648 17.4579676,12.6396014 C17.0393279,12.4957381 16.6171472,12.4310006 16.1914114,12.4453869 Z M88.5344269,1.59872116e-13 C89.2553598,0.693501921 89.9452078,1.36222588 90.6039905,2.00619195 C91.2627742,2.65015802 91.9650506,3.35603332 92.7108434,4.12383901 C92.0147704,4.79257301 91.3373528,5.46129697 90.6785692,6.13003096 C90.0197865,6.79876496 89.3050796,7.49225644 88.5344269,8.21052632 L84.4698795,4.12383901 C85.1908124,3.38080124 85.8620152,2.69350161 86.4835086,2.0619195 C87.1050019,1.4303374 87.7886352,0.743037771 88.5344269,1.59872116e-13 Z M114.287439,1.59872116e-13 C115.008372,0.693501921 115.69822,1.36222588 116.357003,2.00619195 C117.015786,2.65015802 117.718063,3.35603332 118.463855,4.12383901 C117.767782,4.79257301 117.090365,5.46129697 116.431581,6.13003096 C115.772799,6.79876496 115.058092,7.49225644 114.287439,8.21052632 L110.222892,4.12383901 C110.943824,3.38080124 111.615027,2.69350161 112.236521,2.0619195 C112.858014,1.4303374 113.541647,0.743037771 114.287439,1.59872116e-13 Z M106.046475,1.59872116e-13 C106.767408,0.693501921 107.457256,1.36222588 108.116039,2.00619195 C108.774822,2.65015802 109.477099,3.35603332 110.222892,4.12383901 C109.526819,4.79257301 108.849401,5.46129697 108.190617,6.13003096 C107.531835,6.79876496 106.817128,7.49225644 106.046475,8.21052632 L101.981928,4.12383901 C102.702861,3.38080124 103.374063,2.69350161 103.995557,2.0619195 C104.61705,1.4303374 105.300683,0.743037771 106.046475,1.59872116e-13 Z M122.528403,1.59872116e-13 C123.249336,0.693501921 123.939184,1.36222588 124.597966,2.00619195 C125.25675,2.65015802 125.959026,3.35603332 126.704819,4.12383901 C126.008746,4.79257301 125.331329,5.46129697 124.672545,6.13003096 C124.013762,6.79876496 123.299056,7.49225644 122.528403,8.21052632 L118.463855,4.12383901 C119.184788,3.38080124 119.855991,2.69350161 120.477484,2.0619195 C121.098978,1.4303374 121.782611,0.743037771 122.528403,1.59872116e-13 Z" id="Offers-Logo" fill="#EF5661"></path>
        </g>
    </g>
</svg>