<svg width="1332" height="294" viewBox="0 0 1332 294" fill="none" xmlns="http://www.w3.org/2000/svg">
<g clip-path="url(#clip0)">
<rect width="1332" height="293" transform="translate(0 0.724976)" fill="url(#paint0_linear)"/>
<rect y="117.725" width="1332" height="237" fill="url(#paint1_linear)"/>
<g filter="url(#filter0_d)">
<circle cx="664.873" cy="213.83" r="136.437" fill="#C4C4C4"/>
</g>
<path d="M644.288 40.9055L644.288 40.9062L644.288 40.9067L644.289 40.9071L644.29 40.9144L644.292 40.9233C645.004 43.7707 647.49 46.3026 650.428 46.6701L650.428 46.6702L650.437 46.6712C653.64 47.0274 656.542 45.593 657.988 42.7003C657.988 42.6997 657.989 42.6991 657.989 42.6985L665.859 27.2493L673.728 42.6986C673.729 42.6991 673.729 42.6996 673.729 42.7001C675.18 45.6013 678.415 47.0278 681.285 46.6707C684.579 46.3021 686.722 43.7395 687.425 40.9233L687.425 40.9233L687.428 40.9128L687.428 40.9123L687.428 40.9118L687.428 40.9115L687.428 40.911L687.431 40.9C687.434 40.8883 687.439 40.8688 687.446 40.8418C687.461 40.7878 687.485 40.7038 687.521 40.5928C687.592 40.3708 687.71 40.0408 687.889 39.6262C688.247 38.7969 688.854 37.6294 689.839 36.3087C691.634 33.9007 694.7 30.9653 699.853 28.6442C697.745 33.9402 695.573 40.3106 694.078 46.8923C692.437 54.1184 691.603 61.6436 692.598 68.2967C692.968 71.2298 695.167 73.39 698.013 74.102L698.022 74.1043C763.006 89.3879 808.168 146.617 808.168 213.281C808.168 291.973 744.159 356.033 665.532 356.033C627.519 356.033 591.781 341.077 564.811 314.085L564.808 314.082C537.845 287.422 523.223 251.332 523.223 213.281C523.223 146.618 568.709 89.39 633.692 74.4318L633.692 74.4319L633.705 74.4287C636.547 73.7174 638.746 71.5603 639.118 68.631C641.33 55.6351 636.595 39.7064 632.181 28.6188C637.172 30.8113 640.157 33.7381 641.913 36.1769C642.877 37.5168 643.475 38.7146 643.83 39.5705C644.007 39.9984 644.123 40.3404 644.195 40.5715C644.23 40.687 644.255 40.7747 644.27 40.8314C644.277 40.8598 644.282 40.8804 644.285 40.8929L644.288 40.9055Z" fill="url(#paint2_linear)" stroke="url(#paint3_linear)" stroke-width="1.38373"/>
<g opacity="0.7">
<path d="M842.742 190.219C842.742 189.831 843.056 189.517 843.444 189.517H882.33C882.718 189.517 883.032 189.831 883.032 190.219V300.487C883.032 300.874 882.718 301.188 882.33 301.188H843.444C843.056 301.188 842.742 300.874 842.742 300.487V190.219Z" fill="url(#paint4_linear)"/>
<path d="M881.351 190.391C881.351 190.003 881.665 189.689 882.052 189.689H951.57C951.957 189.689 952.271 190.003 952.271 190.391V300.659C952.271 301.046 951.957 301.36 951.57 301.36H882.052C881.665 301.36 881.351 301.046 881.351 300.659V190.391Z" fill="url(#paint5_linear)"/>
<rect x="856.768" y="232.772" width="12.0217" height="16.0289" rx="0.70138" fill="#93115C"/>
<rect x="856.768" y="214.243" width="12.0217" height="16.0289" rx="0.70138" fill="#93115C"/>
<rect x="856.768" y="195.543" width="12.0217" height="16.0289" rx="0.70138" fill="#940555"/>
<path d="M853.644 270.247C853.644 266.373 856.784 263.233 860.658 263.233L865.115 263.233C868.988 263.233 872.128 266.373 872.128 270.247V301.636L853.644 301.636V270.247Z" fill="url(#paint6_linear)"/>
<path d="M843 188.426C843 188.039 843.314 187.725 843.702 187.725H882.299C882.686 187.725 883 188.039 883 188.426V191.023C883 191.411 882.686 191.725 882.299 191.725H843V188.426Z" fill="url(#paint7_linear)"/>
<path d="M882 187.725H951.299C951.686 187.725 952 188.039 952 188.426V191.725H882.702C882.314 191.725 882 191.411 882 191.023V187.725Z" fill="url(#paint8_linear)"/>
<g opacity="0.5">
<path d="M1054.95 125.495H1016.05C1015.66 125.495 1015.35 125.809 1015.35 126.197V300.277C1015.35 300.664 1015.66 300.978 1016.05 300.978H1054.95C1055.33 300.978 1055.65 300.664 1055.65 300.277V126.196C1055.65 125.809 1055.33 125.495 1054.95 125.495Z" fill="url(#paint9_linear)"/>
<path d="M1059.85 119.618H1011.15V126.335H1059.85V119.618Z" fill="#770054"/>
</g>
<path d="M856.875 129.236H855.476V131.745L853.666 129.936L852.677 130.926L854.486 132.735H851.977V134.134H854.486L852.712 135.908L853.701 136.898L855.476 135.124V137.633H856.875V135.124L858.614 136.863L859.603 135.873L857.864 134.134H860.373V132.735H857.864L859.639 130.961L858.649 129.971L856.875 131.745V129.236Z" fill="white"/>
<path d="M1039.42 85.3962H1038.02V87.9052L1036.21 86.0959L1035.22 87.0854L1037.03 88.8947H1034.52V90.2941H1037.03L1035.26 92.0682L1036.25 93.0577L1038.02 91.2836V93.7926H1039.42V91.2836L1041.16 93.0225L1042.15 92.033L1040.41 90.2941H1042.92V88.8947H1040.41L1042.18 87.1206L1041.19 86.1311L1039.42 87.9052V85.3962Z" fill="white"/>
<path d="M1010.04 208.86H1028.52V300.652H1010.04V208.86Z" fill="url(#paint10_linear)"/>
<rect x="1014.04" y="240.249" width="10.6859" height="15.361" rx="0.70138" fill="#950354"/>
<rect x="1014.04" y="220.881" width="10.6859" height="15.361" rx="0.70138" fill="#770054"/>
<rect x="1007.37" y="203.517" width="22.7076" height="6.67871" rx="0.70138" fill="#770054"/>
<rect x="963.287" y="208.86" width="48.0867" height="91.4983" fill="url(#paint11_linear)"/>
<rect x="961.949" y="203.516" width="52.0939" height="6.67871" rx="0.70138" fill="#770054"/>
<rect x="972.637" y="220.881" width="10.6859" height="15.361" rx="0.70138" fill="#770054"/>
<rect x="972.637" y="240.249" width="10.6859" height="15.361" rx="0.70138" fill="#770054"/>
<rect x="972.637" y="259.618" width="10.6859" height="15.361" rx="0.70138" fill="#770054"/>
<rect x="991.336" y="220.881" width="10.6859" height="15.361" rx="0.70138" fill="#770054"/>
<rect x="991.336" y="240.249" width="10.6859" height="15.361" rx="0.70138" fill="#770054"/>
<rect x="991.336" y="259.618" width="10.6859" height="15.361" rx="0.70138" fill="#770054"/>
<path d="M894.837 150.795H940.967V301.36H894.837V150.795Z" fill="url(#paint12_linear)"/>
<rect x="894.837" y="150.795" width="45.4152" height="5.34296" rx="0.70138" fill="url(#paint13_linear)"/>
<rect x="893" y="147.725" width="50" height="4" rx="0.70138" fill="url(#paint14_linear)"/>
<path d="M938.918 150.795H965.633L965.633 301.36H938.918L938.918 150.795Z" fill="url(#paint15_linear)"/>
<rect x="941" y="147.725" width="27" height="4" rx="0.70138" fill="url(#paint16_linear)"/>
<rect x="947.599" y="162.817" width="9.35019" height="16.0289" rx="0.70138" fill="#7C0547"/>
<rect x="947.599" y="184.189" width="9.35019" height="16.0289" rx="0.70138" fill="#770054"/>
<rect x="947.599" y="205.561" width="9.35019" height="16.0289" rx="0.70138" fill="#770054"/>
<rect x="947.599" y="226.933" width="9.35019" height="16.0289" rx="0.70138" fill="#81064A"/>
<rect x="947.599" y="248.304" width="9.35019" height="16.0289" rx="0.70138" fill="#770054"/>
<rect x="947.599" y="269.676" width="9.35019" height="16.0289" rx="0.70138" fill="#770054"/>
<rect x="902.852" y="165.489" width="10.6859" height="9.35019" rx="0.70138" fill="#770054"/>
<rect x="920.217" y="165.489" width="10.6859" height="9.35019" rx="0.70138" fill="#770054"/>
<rect x="894" y="176.725" width="40" height="2" rx="0.70138" fill="url(#paint17_linear)"/>
<path d="M932 176.725H936.299C936.686 176.725 937 177.039 937 177.426V178.024C937 178.411 936.686 178.725 936.299 178.725H932V176.725Z" fill="url(#paint18_linear)"/>
<rect x="902.852" y="186.86" width="10.6859" height="9.35019" rx="0.70138" fill="#770054"/>
<rect x="920.217" y="186.86" width="10.6859" height="9.35019" rx="0.70138" fill="#770054"/>
<rect x="894" y="197.725" width="40" height="2" rx="0.70138" fill="url(#paint19_linear)"/>
<path d="M932 197.725H937.299C937.686 197.725 938 198.039 938 198.426V199.024C938 199.411 937.686 199.725 937.299 199.725H932V197.725Z" fill="url(#paint20_linear)"/>
<rect x="902.852" y="208.232" width="10.6859" height="9.35019" rx="0.70138" fill="#770054"/>
<rect x="920.217" y="208.232" width="10.6859" height="9.35019" rx="0.70138" fill="#770054"/>
<rect x="894" y="219.725" width="40" height="2" rx="0.70138" fill="url(#paint21_linear)"/>
<path d="M932 219.725H937.299C937.686 219.725 938 220.039 938 220.426V221.024C938 221.411 937.686 221.725 937.299 221.725H932V219.725Z" fill="url(#paint22_linear)"/>
<rect x="902.852" y="229.604" width="10.6859" height="9.35019" rx="0.70138" fill="#770054"/>
<rect x="920.217" y="229.604" width="10.6859" height="9.35019" rx="0.70138" fill="#770054"/>
<rect x="894" y="240.725" width="40" height="2" rx="0.70138" fill="url(#paint23_linear)"/>
<path d="M932 240.725H937.299C937.686 240.725 938 241.039 938 241.426V242.024C938 242.411 937.686 242.725 937.299 242.725H932V240.725Z" fill="url(#paint24_linear)"/>
<rect x="902.852" y="250.976" width="10.6859" height="9.35019" rx="0.70138" fill="#770054"/>
<rect x="920.217" y="250.976" width="10.6859" height="9.35019" rx="0.70138" fill="#770054"/>
<rect x="894" y="262.725" width="40" height="2" rx="0.70138" fill="url(#paint25_linear)"/>
<path d="M932 262.725H937.299C937.686 262.725 938 263.039 938 263.426V264.024C938 264.411 937.686 264.725 937.299 264.725H932V262.725Z" fill="url(#paint26_linear)"/>
<rect x="902.852" y="272.348" width="10.6859" height="9.35019" rx="0.70138" fill="#770054"/>
<rect x="920.217" y="272.348" width="10.6859" height="9.35019" rx="0.70138" fill="#770054"/>
<rect x="894" y="283.725" width="40" height="2" rx="0.70138" fill="url(#paint27_linear)"/>
<path d="M932 283.725H937.299C937.686 283.725 938 284.039 938 284.426V285.024C938 285.411 937.686 285.725 937.299 285.725H932V283.725Z" fill="url(#paint28_linear)"/>
<path d="M953.694 119.871C953.694 117.159 951.496 114.961 948.784 114.961H913.188C910.477 114.961 908.279 117.159 908.279 119.871V155.577C908.279 158.289 910.477 160.487 913.188 160.487H944.287C944.455 160.487 944.618 160.548 944.745 160.658L952.534 167.388C952.988 167.781 953.694 167.458 953.694 166.858V119.871Z" fill="url(#paint29_linear)"/>
<path fill-rule="evenodd" clip-rule="evenodd" d="M929.429 128.764H940.56C942.404 128.764 943.899 130.259 943.899 132.103V143.234C943.899 145.079 942.404 146.574 940.56 146.574H929.429C928.814 146.574 928.316 146.075 928.316 145.461C928.316 144.846 927.817 144.348 927.203 144.348C926.588 144.348 926.09 144.846 926.09 145.461C926.09 146.075 925.591 146.574 924.976 146.574H922.75C920.906 146.574 919.411 145.079 919.411 143.234V132.103C919.411 130.259 920.906 128.764 922.75 128.764H924.976C925.591 128.764 926.09 129.262 926.09 129.877C926.09 130.492 926.588 130.99 927.203 130.99C927.817 130.99 928.316 130.492 928.316 129.877C928.316 129.262 928.814 128.764 929.429 128.764ZM927.203 133.216C925.749 133.216 924.512 132.287 924.053 130.99H922.75C922.135 130.99 921.637 131.488 921.637 132.103V143.234C921.637 143.849 922.135 144.348 922.75 144.348H924.053C924.512 143.051 925.749 142.121 927.203 142.121C928.657 142.121 929.894 143.051 930.352 144.348H940.56C941.175 144.348 941.673 143.849 941.673 143.234V132.103C941.673 131.488 941.175 130.99 940.56 130.99H930.352C929.894 132.287 928.657 133.216 927.203 133.216ZM933.325 135.443C934.247 135.443 934.994 134.695 934.994 133.773C934.994 132.851 934.247 132.103 933.325 132.103C932.403 132.103 931.655 132.851 931.655 133.773C931.655 134.695 932.403 135.443 933.325 135.443ZM939.447 141.565C939.447 142.487 938.699 143.234 937.777 143.234C936.855 143.234 936.107 142.487 936.107 141.565C936.107 140.643 936.855 139.895 937.777 139.895C938.699 139.895 939.447 140.643 939.447 141.565ZM931.824 141.531L933.712 142.711L939.278 133.806L937.39 132.626L931.824 141.531ZM928.316 141.008H926.09V138.782H928.316V141.008ZM926.09 136.556H928.316V134.329H926.09V136.556Z" fill="#E8D18E"/>
<circle cx="836.705" cy="271.532" r="13.3574" fill="url(#paint30_linear)"/>
<path d="M1039.55 233.855C1039.55 233.467 1039.87 233.153 1040.25 233.153L1081.67 233.153C1082.06 233.153 1082.37 233.467 1082.37 233.855L1082.37 299.622C1082.37 300.01 1082.06 300.324 1081.67 300.324L1040.25 300.324C1039.87 300.324 1039.55 300.01 1039.55 299.622L1039.55 233.855Z" fill="url(#paint31_linear)"/>
<path d="M1080.69 233.855C1080.69 233.467 1081.01 233.153 1081.39 233.153H1115.26C1115.64 233.153 1115.96 233.467 1115.96 233.855V299.622C1115.96 300.01 1115.64 300.324 1115.26 300.324H1081.39C1081.01 300.324 1080.69 300.01 1080.69 299.622V233.855Z" fill="url(#paint32_linear)"/>
<path d="M1049.63 278.121C1049.63 274.247 1052.77 271.107 1056.64 271.107H1063.6C1067.48 271.107 1070.62 274.247 1070.62 278.121V299.794C1070.62 300.181 1070.3 300.495 1069.92 300.495H1050.33C1049.94 300.495 1049.63 300.181 1049.63 299.794V278.121Z" fill="url(#paint33_linear)"/>
<rect x="1081.53" y="229.795" width="36.9438" height="6.71705" rx="0.70138" fill="#770054"/>
<rect x="1036.19" y="229.795" width="47.859" height="6.71705" rx="0.70138" fill="#770054"/>
<circle cx="1116.38" cy="272.736" r="13.3574" fill="url(#paint34_linear)"/>
<circle cx="1116.38" cy="257.826" r="10.6859" fill="url(#paint35_linear)"/>
<path d="M1018.66 198.814C1018.66 196.102 1020.86 193.904 1023.57 193.904H1059.17C1061.88 193.904 1064.08 196.102 1064.08 198.814V234.52C1064.08 237.232 1061.88 239.43 1059.17 239.43H1028.07C1027.9 239.43 1027.74 239.49 1027.61 239.601L1019.82 246.331C1019.37 246.724 1018.66 246.401 1018.66 245.801V198.814Z" fill="url(#paint36_linear)"/>
<path d="M472.875 200.541H472.675C472.225 200.541 471.875 200.89 471.875 201.34V206.039H473.675V201.34C473.675 200.89 473.325 200.541 472.875 200.541Z" fill="#770054"/>
<path d="M458.73 199.091H502.418V197.792H482.524H478.625H458.73V199.091Z" fill="#770054"/>
<path d="M499.668 206.039V201.34C499.668 200.89 499.318 200.541 498.868 200.541H498.668C498.219 200.541 497.869 200.89 497.869 201.34V206.039H499.168H499.668Z" fill="#770054"/>
<path d="M470.628 206.039V201.34C470.628 200.941 470.728 200.591 470.928 200.291H469.478C469.678 200.591 469.778 200.941 469.778 201.34V206.039H470.628Z" fill="#770054"/>
<path d="M469.275 210.339H491.769V207.289H489.92H486.821H484.671H481.622H479.523H476.473H474.324H471.225H469.275V210.339Z" fill="#9B016F"/>
<path d="M502.419 206.039V200.341H500.669C500.869 200.641 500.969 200.991 500.969 201.391V206.039H502.419Z" fill="#770054"/>
<path d="M498.419 221.385H498.119V224.334L498.869 225.034H499.969L500.568 224.384V221.385H500.469C500.319 221.385 500.169 221.335 500.069 221.235L499.419 220.635L498.919 221.185C498.769 221.335 498.619 221.385 498.419 221.385Z" fill="#9B016F"/>
<path d="M497.568 210.339H498.568V207.289H497.218H495.069H493.02V210.339H493.869H497.518H497.568Z" fill="#9B016F"/>
<path d="M496.619 206.039V201.34C496.619 200.941 496.719 200.591 496.919 200.291H495.419C495.619 200.591 495.719 200.941 495.719 201.34V206.039H496.619Z" fill="#770054"/>
<path d="M494.471 201.34C494.471 200.89 494.121 200.541 493.671 200.541H493.421C492.971 200.541 492.621 200.89 492.621 201.34V206.039H494.421V201.34H494.471Z" fill="#770054"/>
<path d="M495.22 215.237H496.319L496.919 214.637V211.588H494.47V214.537L495.22 215.237Z" fill="#9B016F"/>
<path d="M465.327 215.237H466.427L467.027 214.587V211.588H464.578V214.537L465.327 215.237Z" fill="#770054"/>
<path d="M500.619 211.588H499.169H498.169V214.587L498.869 215.237H500.019L500.619 214.587V211.588Z" fill="#9B016F"/>
<path d="M463.327 211.588H461.927H460.928V214.587L461.628 215.237H462.727L463.327 214.587V211.588Z" fill="#770054"/>
<path d="M463.28 206.039V201.34C463.28 200.89 462.93 200.541 462.48 200.541H462.23C461.78 200.541 461.43 200.89 461.43 201.34V206.039H461.88H463.28Z" fill="#770054"/>
<path d="M461.177 221.385H460.877V224.334L461.627 225.034H462.727L463.327 224.384V221.385H463.227C463.077 221.385 462.927 221.335 462.827 221.235L462.177 220.635L461.677 221.185C461.527 221.335 461.377 221.385 461.177 221.385Z" fill="#770054"/>
<path d="M468.027 210.339V207.289H466.077H463.928H462.528V210.339H463.978H467.677H468.027Z" fill="#770054"/>
<path d="M491.37 206.039V201.34C491.37 200.941 491.47 200.591 491.67 200.291H490.221C490.421 200.591 490.521 200.941 490.521 201.34V206.039H491.37Z" fill="#770054"/>
<path d="M480.973 206.039V201.34C480.973 200.941 481.073 200.591 481.273 200.291H479.874C480.073 200.591 480.173 200.941 480.173 201.34V206.039H480.973Z" fill="#770054"/>
<path d="M478.125 200.541H477.875C477.425 200.541 477.075 200.89 477.075 201.34V206.039H478.874V201.34C478.924 200.89 478.575 200.541 478.125 200.541Z" fill="#770054"/>
<path d="M475.824 206.039V201.34C475.824 200.941 475.924 200.591 476.124 200.291H474.624C474.824 200.591 474.924 200.941 474.924 201.34V206.039H475.824Z" fill="#770054"/>
<path d="M483.273 200.541H483.023C482.573 200.541 482.223 200.89 482.223 201.34V206.039H484.022V201.34C484.072 200.89 483.673 200.541 483.273 200.541Z" fill="#770054"/>
<path d="M486.222 206.039V201.34C486.222 200.941 486.322 200.591 486.522 200.291H485.022C485.222 200.591 485.322 200.941 485.322 201.34V206.039H486.222Z" fill="#770054"/>
<path d="M446.232 206.039V201.34C446.232 200.941 446.332 200.591 446.532 200.291H445.083C445.283 200.591 445.383 200.941 445.383 201.34V206.039H446.232Z" fill="#770054"/>
<path d="M443.333 200.541H443.083C442.633 200.541 442.283 200.89 442.283 201.34V206.039H444.083V201.34C444.133 200.89 443.783 200.541 443.333 200.541Z" fill="#770054"/>
<path d="M441.134 207.289V210.339H442.534H446.233H446.633V207.289H444.733H441.684H441.134Z" fill="#770054"/>
<path d="M439.484 221.385V224.334L440.184 225.034H441.284L441.884 224.384V221.385H441.784C441.634 221.385 441.484 221.335 441.384 221.235L440.734 220.635L440.234 221.185C440.134 221.335 439.934 221.385 439.784 221.385H439.484Z" fill="#770054"/>
<path d="M502.568 215.237H503.718L504.318 214.587V211.588H501.869V214.537L502.568 215.237Z" fill="#9B016F"/>
<path d="M439.484 214.587L440.234 215.237H441.334L441.934 214.587V211.588H440.484H439.484V214.587Z" fill="#770054"/>
<path d="M465.426 206.039V201.34C465.426 200.941 465.526 200.591 465.726 200.291H464.227C464.427 200.591 464.527 200.941 464.527 201.34V206.039H465.426Z" fill="#770054"/>
<path d="M523.313 216.336L522.663 215.737L522.163 216.286C522.063 216.436 521.863 216.486 521.713 216.486H521.463V219.486L522.163 220.135H523.263L523.862 219.486V216.486H523.763C523.613 216.486 523.463 216.436 523.313 216.336Z" fill="#B10955"/>
<path d="M440.484 206.039H441.034V201.34C441.034 200.941 441.134 200.591 441.334 200.291H439.834C440.034 200.591 440.134 200.941 440.134 201.34V206.039H440.484Z" fill="#770054"/>
<path d="M443.934 215.237H445.033L445.633 214.587V211.588H443.184V214.537L443.934 215.237Z" fill="#770054"/>
<path d="M490.722 180.496H492.921C491.771 177.597 488.972 175.647 485.823 175.647H475.226C472.077 175.647 469.277 177.597 468.128 180.496H470.327H490.722Z" fill="#9B016F"/>
<path d="M458.73 187.744V196.542H478.625H482.524H502.418V187.744C502.418 183.895 499.269 180.746 495.42 180.746H490.722H470.377H465.678C461.879 180.746 458.73 183.895 458.73 187.744Z" fill="#9B016F"/>
<path d="M448.531 200.541H448.281C447.831 200.541 447.481 200.89 447.481 201.34V206.039H449.281V201.34C449.281 200.89 448.931 200.541 448.531 200.541Z" fill="#770054"/>
<path d="M500.319 207.289H499.819V210.339H501.218H504.918H505.317V207.289H503.018H500.319Z" fill="#9B016F"/>
<path d="M505.418 200.341H503.669V206.039H505.119V201.341C505.119 200.991 505.219 200.641 505.418 200.341Z" fill="#B10955"/>
<path d="M451.481 206.039V201.34C451.481 200.941 451.581 200.591 451.781 200.291H450.281C450.481 200.591 450.581 200.941 450.581 201.34V206.039H451.481Z" fill="#770054"/>
<path d="M443.783 219.486V216.486H443.683C443.533 216.486 443.383 216.436 443.283 216.336L442.633 215.737L442.133 216.286C442.033 216.436 441.833 216.486 441.684 216.486H441.434V219.486L442.133 220.135H443.183L443.783 219.486Z" fill="#770054"/>
<path d="M447.882 207.289V210.339H454.531V207.289H452.081H449.932H447.882Z" fill="#770054"/>
<path d="M438.734 288.867H442.583L441.883 226.234C441.783 226.284 441.683 226.334 441.583 226.334H439.933C439.783 226.334 439.633 226.284 439.533 226.184L439.433 226.084L438.734 288.867Z" fill="url(#paint37_linear)"/>
<path d="M454.53 201.34C454.53 200.89 454.18 200.541 453.73 200.541H453.48C453.03 200.541 452.68 200.89 452.68 201.34V206.039H454.48V201.34H454.53Z" fill="#770054"/>
<path d="M488.471 200.541H488.221C487.771 200.541 487.421 200.89 487.421 201.34V206.039H489.221V201.34C489.271 200.89 488.921 200.541 488.471 200.541Z" fill="#770054"/>
<path d="M503.667 187.744V196.542H526.81V188.344C526.81 184.145 523.411 180.746 519.212 180.746H499.768C502.067 182.195 503.667 184.795 503.667 187.744Z" fill="#B10955"/>
<path d="M491.072 175.448H499.97C497.92 173.648 492.971 170.049 485.473 168.45C488.823 170.699 490.522 174.248 491.072 175.448Z" fill="#B10955"/>
<path d="M494.268 180.496H495.418H508.414C508.264 180.396 508.114 180.196 508.114 179.996C508.114 177.597 506.165 175.647 503.766 175.647H490.319C492.169 176.747 493.568 178.447 494.268 180.496Z" fill="#B10955"/>
<path d="M471.675 175.448H474.474C474.524 175.448 474.574 175.448 474.624 175.498C474.874 175.498 475.074 175.448 475.324 175.448H485.921C486.171 175.448 486.371 175.448 486.621 175.498C486.671 175.498 486.721 175.448 486.771 175.448H489.77C488.82 173.448 485.921 168.6 480.622 167.85C475.174 168.6 472.524 173.448 471.675 175.448Z" fill="#9B016F"/>
<path d="M466.877 180.496C467.576 178.447 468.976 176.747 470.776 175.647H457.329C454.93 175.647 452.98 177.597 452.98 179.996C452.98 180.196 452.88 180.396 452.68 180.496H465.677H466.877Z" fill="#730282"/>
<path d="M475.477 168.549C468.229 170.149 463.48 173.648 461.43 175.447H470.328C470.778 174.198 472.328 170.799 475.477 168.549Z" fill="#730282"/>
<path d="M525.061 201.341V206.039H526.811V200.341H524.812C524.961 200.641 525.061 200.991 525.061 201.341Z" fill="#B10955"/>
<path d="M523.262 214.537L524.012 215.237H525.112L525.712 214.587V211.588H523.262V214.537Z" fill="#B10955"/>
<path d="M521.363 207.289H521.213V210.339H522.613H526.312H526.711V207.289H524.412H521.363Z" fill="#B10955"/>
<path d="M457.482 187.744C457.482 184.795 459.031 182.245 461.381 180.746H441.986C437.787 180.746 434.388 184.145 434.388 188.344V196.542H457.532V187.744H457.482Z" fill="#730282"/>
<path d="M523.011 200.541H522.761C522.312 200.541 521.962 200.89 521.962 201.34V206.039H523.761V201.34C523.811 200.89 523.461 200.541 523.011 200.541Z" fill="#B10955"/>
<path d="M526.813 197.792H503.669V199.041H526.813V197.792Z" fill="#B10955"/>
<path d="M521.961 226.184C521.861 226.234 521.761 226.284 521.662 226.284H520.012C519.862 226.284 519.712 226.234 519.612 226.134L519.512 226.034L518.812 288.817H522.661L521.961 226.184Z" fill="url(#paint38_linear)"/>
<path d="M457.532 197.792H434.388V199.041H457.532V197.792Z" fill="#770054"/>
<path d="M439.483 220.135L440.033 219.536V216.486H439.933C439.783 216.486 439.633 216.436 439.533 216.336L438.883 215.737L438.384 216.286C438.284 216.436 438.084 216.486 437.934 216.486H437.634V219.436L438.384 220.135H439.483Z" fill="#770054"/>
<path d="M435.837 201.34C435.837 200.941 435.937 200.591 436.137 200.291H434.388V206.039H435.837V201.34Z" fill="#770054"/>
<path d="M437.886 200.541C437.436 200.541 437.086 200.89 437.086 201.34V206.039H438.885V201.34C438.885 200.89 438.536 200.541 438.086 200.541H437.886Z" fill="#770054"/>
<path d="M438.235 214.637V211.588H435.835V214.537L436.535 215.237H437.685L438.235 214.637Z" fill="#770054"/>
<path d="M438.887 210.339H439.886V207.289H439.536H436.487H434.388V210.339H435.187H438.837H438.887Z" fill="#770054"/>
<path d="M506.567 207.289V210.339H513.215V207.289H510.966H508.817H506.567Z" fill="#B10955"/>
<path d="M465.177 219.486V216.486H465.077C464.927 216.486 464.777 216.436 464.677 216.336L464.027 215.737L463.527 216.286C463.427 216.436 463.228 216.486 463.078 216.486H462.828V219.486L463.527 220.135H464.627L465.177 219.486Z" fill="#770054"/>
<path d="M498.168 220.135L498.718 219.536V216.486H498.668C498.518 216.486 498.368 216.436 498.268 216.336L497.619 215.737L497.119 216.286C497.019 216.436 496.819 216.486 496.669 216.486H496.369V219.436L497.119 220.135H498.168Z" fill="#9B016F"/>
<path d="M500.568 226.184C500.468 226.234 500.368 226.284 500.268 226.284H498.618C498.468 226.284 498.318 226.234 498.218 226.134L498.118 226.034L497.418 288.817H501.267L500.568 226.184Z" fill="url(#paint39_linear)"/>
<path d="M502.418 219.486V216.486H502.318C502.168 216.486 502.018 216.436 501.918 216.336L501.268 215.737L500.768 216.286C500.668 216.436 500.468 216.486 500.318 216.486H500.068V219.486L500.768 220.135H501.868L502.418 219.486Z" fill="#9B016F"/>
<path d="M463.279 226.184C463.179 226.234 463.079 226.284 462.979 226.284H461.329C461.179 226.284 461.029 226.234 460.929 226.134L460.83 226.034L460.18 288.867H464.029L463.279 226.184Z" fill="url(#paint40_linear)"/>
<path d="M455.78 201.341V206.039H457.53V200.341H455.53C455.68 200.641 455.78 200.991 455.78 201.341Z" fill="#770054"/>
<path d="M458.73 206.039H460.18V201.34C460.18 200.941 460.28 200.591 460.48 200.291H458.73V206.039Z" fill="#770054"/>
<path d="M460.926 220.135L461.476 219.536V216.486H461.376C461.226 216.486 461.076 216.436 460.976 216.336L460.327 215.737L459.827 216.286C459.727 216.436 459.527 216.486 459.377 216.486H459.077V219.436L459.827 220.135H460.926Z" fill="#770054"/>
<path d="M455.781 207.289V210.339H456.581H460.28H461.279V207.289H460.829H458.13H455.781Z" fill="#770054"/>
<path d="M457.98 215.237H459.08L459.63 214.637V211.588H457.23V214.537L457.98 215.237Z" fill="#770054"/>
<path d="M517.815 200.541H517.565C517.115 200.541 516.765 200.89 516.765 201.34V206.039H518.565V201.34C518.565 200.89 518.215 200.541 517.815 200.541Z" fill="#B10955"/>
<path d="M519.863 221.385H519.563V224.334L520.313 225.034H521.413L522.013 224.384V221.385H521.913C521.763 221.385 521.613 221.335 521.513 221.235L520.863 220.635L520.363 221.185C520.213 221.335 520.013 221.385 519.863 221.385Z" fill="#B10955"/>
<path d="M519.813 201.34V206.039H520.563H520.713V201.34C520.713 200.941 520.813 200.591 521.013 200.291H519.513C519.713 200.641 519.813 200.991 519.813 201.34Z" fill="#B10955"/>
<path d="M522.013 211.588H520.563H519.614V214.587L520.313 215.237H521.413L522.013 214.587V211.588Z" fill="#B10955"/>
<path d="M514.665 201.34V206.039H515.515V201.34C515.515 200.941 515.615 200.591 515.815 200.291H514.365C514.515 200.641 514.665 200.991 514.665 201.34Z" fill="#B10955"/>
<path d="M516.615 215.237H517.765L518.314 214.637V211.588H515.915V214.537L516.615 215.237Z" fill="#B10955"/>
<path d="M468.525 201.34C468.525 200.89 468.175 200.541 467.726 200.541H467.476C467.026 200.541 466.676 200.89 466.676 201.34V206.039H468.475V201.34H468.525Z" fill="#770054"/>
<path d="M510.316 206.039V201.34C510.316 200.941 510.416 200.591 510.616 200.291H509.116C509.316 200.591 509.416 200.941 509.416 201.34V206.039H510.316Z" fill="#B10955"/>
<path d="M513.415 201.34C513.415 200.89 513.065 200.541 512.615 200.541H512.365C511.915 200.541 511.565 200.89 511.565 201.34V206.039H513.365V201.34H513.415Z" fill="#B10955"/>
<path d="M519.562 220.135L520.112 219.536V216.486H520.012C519.862 216.486 519.712 216.436 519.612 216.336L518.962 215.737L518.462 216.286C518.362 216.436 518.163 216.486 518.013 216.486H517.713V219.436L518.462 220.135H519.562Z" fill="#B10955"/>
<path d="M514.464 207.289V210.339H515.263H518.912H518.962H519.962V207.289H519.212H516.163H514.464Z" fill="#B10955"/>
<path d="M507.366 200.541H507.166C506.716 200.541 506.366 200.89 506.366 201.34V206.039H508.166V201.34C508.166 200.89 507.816 200.541 507.366 200.541Z" fill="#B10955"/>
<g opacity="0.5">
<path d="M266.543 70.8037H264.206L261.619 16.725L259.032 70.8037H256.695L253.691 75.0599H269.547L266.543 70.8037Z" fill="#770054"/>
<path d="M270.988 104.047H252.461L249.958 300.52H273.492L270.988 104.047Z" fill="url(#paint41_linear)"/>
<path d="M276.391 85.5754C276.391 78.899 269.547 75.0601 269.547 75.0601H253.691C253.691 75.0601 246.848 78.9824 246.848 85.5754H243.092V90.7496H280.146V85.5754H276.391Z" fill="#770054"/>
<path d="M238.336 90.7498L252.356 104.103H270.883L284.903 90.7498H238.336Z" fill="#770054"/>
</g>
<path d="M394.623 73.1521C394.623 72.7647 394.937 72.4507 395.324 72.4507H405.943C406.331 72.4507 406.645 72.7647 406.645 73.1521V90.4497C406.645 90.837 406.331 91.1511 405.943 91.1511H395.324C394.937 91.1511 394.623 90.837 394.623 90.4497V73.1521Z" fill="url(#paint42_linear)"/>
<path d="M382.625 90.6464C382.625 90.2591 382.939 89.9451 383.326 89.9451H400.395C400.782 89.9451 401.096 90.2591 401.096 90.6464V99.3193C401.096 99.7066 400.782 100.021 400.395 100.021H383.326C382.939 100.021 382.625 99.7066 382.625 99.3193V90.6464Z" fill="url(#paint43_linear)"/>
<path d="M418.664 90.6464C418.664 90.2591 418.35 89.9451 417.962 89.9451H400.118C399.73 89.9451 399.416 90.2591 399.416 90.6464V99.3193C399.416 99.7066 399.73 100.021 400.118 100.021H417.962C418.35 100.021 418.664 99.7066 418.664 99.3193V90.6464Z" fill="url(#paint44_linear)"/>
<path d="M366.67 99.0427C366.67 98.6553 366.984 98.3413 367.372 98.3413H400.441C400.829 98.3413 401.143 98.6553 401.143 99.0427V119.47C401.143 119.858 400.829 120.172 400.441 120.172H367.372C366.984 120.172 366.67 119.858 366.67 119.47V99.0427Z" fill="url(#paint45_linear)"/>
<path d="M434.693 99.0427C434.693 98.6553 434.379 98.3413 433.992 98.3413H400.118C399.731 98.3413 399.417 98.6553 399.417 99.0427V119.47C399.417 119.858 399.731 120.172 400.118 120.172H433.992C434.379 120.172 434.693 119.858 434.693 119.47V99.0427Z" fill="url(#paint46_linear)"/>
<path d="M359.892 119.235C359.892 118.848 360.206 118.534 360.593 118.534H400.395C400.782 118.534 401.096 118.848 401.096 119.235V127.85C401.096 128.238 400.782 128.552 400.395 128.552H360.593C360.206 128.552 359.892 128.238 359.892 127.85V119.235Z" fill="url(#paint47_linear)"/>
<path d="M441.372 119.235C441.372 118.848 441.058 118.534 440.671 118.534H400.118C399.731 118.534 399.417 118.848 399.417 119.235V127.85C399.417 128.238 399.731 128.552 400.118 128.552H440.671C441.058 128.552 441.372 128.238 441.372 127.85V119.235Z" fill="url(#paint48_linear)"/>
<path d="M349.207 127.59C349.207 127.203 349.521 126.889 349.908 126.889L400.396 126.889C400.783 126.889 401.097 127.203 401.097 127.59V300.831C401.097 301.218 400.783 301.532 400.396 301.532H349.908C349.521 301.532 349.207 301.218 349.207 300.831V127.59Z" fill="url(#paint49_linear)"/>
<path d="M399.417 127.59C399.417 127.203 399.731 126.889 400.118 126.889H451.356C451.744 126.889 452.058 127.203 452.058 127.59V300.831C452.058 301.218 451.744 301.532 451.356 301.532H400.118C399.731 301.532 399.417 301.218 399.417 300.831V127.59Z" fill="url(#paint50_linear)"/>
<rect x="360.561" y="211.367" width="10.6859" height="18.7004" rx="0.70138" fill="#770054"/>
<rect x="360.561" y="187.324" width="10.6859" height="18.7004" rx="0.70138" fill="#770054"/>
<rect x="360.561" y="163.281" width="10.6859" height="18.7004" rx="0.70138" fill="#770054"/>
<rect x="360.561" y="139.238" width="10.6859" height="18.7004" rx="0.70138" fill="#770054"/>
<rect x="379.26" y="211.367" width="10.6859" height="18.7004" rx="0.70138" fill="#770054"/>
<rect x="407.979" y="214.039" width="15.361" height="33.3935" rx="0.70138" fill="#770054"/>
<rect x="407.979" y="175.302" width="15.361" height="33.3935" rx="0.70138" fill="#770054"/>
<rect x="407.979" y="136.566" width="15.361" height="33.3935" rx="0.70138" fill="#770054"/>
<rect x="428.682" y="214.039" width="15.361" height="33.3935" rx="0.70138" fill="#770054"/>
<rect x="428.682" y="175.302" width="15.361" height="33.3935" rx="0.70138" fill="#770054"/>
<rect x="428.682" y="136.566" width="15.361" height="33.3935" rx="0.70138" fill="#770054"/>
<rect x="379.26" y="187.324" width="10.6859" height="18.7004" rx="0.70138" fill="#770054"/>
<rect x="379.26" y="163.281" width="10.6859" height="18.7004" rx="0.70138" fill="#770054"/>
<rect x="379.611" y="139.588" width="9.98455" height="17.999" rx="0.35069" stroke="#770054" stroke-width="0.70138"/>
<path d="M412.852 263.206C412.852 259.332 415.992 256.192 419.866 256.192H431.867C435.74 256.192 438.881 259.332 438.881 263.206V300.831C438.881 301.218 438.567 301.532 438.179 301.532H413.553C413.166 301.532 412.852 301.218 412.852 300.831V263.206Z" fill="url(#paint51_linear)"/>
<circle cx="393.464" cy="272.811" r="13.3574" fill="url(#paint52_linear)"/>
<path d="M393.462 273.145C393.462 282.495 393.462 301.196 393.462 301.196" stroke="#770054" stroke-opacity="0.47" stroke-linecap="round"/>
<rect x="289.426" y="136.792" width="22.7076" height="6.67871" rx="0.70138" fill="#770054"/>
<rect x="305.376" y="136.792" width="52.0939" height="6.67871" rx="0.70138" fill="#770054"/>
<path d="M281.082 142.531C281.082 142.144 281.396 141.83 281.783 141.83H323.826V301.36H281.082V142.531Z" fill="url(#paint53_linear)"/>
<path d="M322.17 142.531C322.17 142.144 322.484 141.83 322.871 141.83H364.29C364.677 141.83 364.991 142.144 364.991 142.531V300.659C364.991 301.046 364.677 301.36 364.29 301.36H322.871C322.484 301.36 322.17 301.046 322.17 300.659V142.531Z" fill="url(#paint54_linear)"/>
<rect x="330.504" y="259.454" width="10.6859" height="18.7004" rx="0.70138" fill="#770054"/>
<rect x="349.204" y="259.454" width="10.6859" height="18.7004" rx="0.70138" fill="#770054"/>
<rect x="330.504" y="235.411" width="10.6859" height="18.7004" rx="0.70138" fill="#770054"/>
<rect x="349.204" y="235.411" width="10.6859" height="18.7004" rx="0.70138" fill="#770054"/>
<rect x="305.126" y="235.411" width="10.6859" height="18.7004" rx="0.70138" fill="#770054"/>
<rect x="305.126" y="259.454" width="10.6859" height="18.7004" rx="0.70138" fill="#770054"/>
<rect x="289.096" y="235.411" width="10.6859" height="18.7004" rx="0.70138" fill="#770054"/>
<rect x="289.096" y="259.454" width="10.6859" height="18.7004" rx="0.70138" fill="#770054"/>
<rect x="330.504" y="211.367" width="10.6859" height="18.7004" rx="0.70138" fill="#770054"/>
<rect x="349.204" y="211.367" width="10.6859" height="18.7004" rx="0.70138" fill="#770054"/>
<rect x="305.126" y="211.367" width="10.6859" height="18.7004" rx="0.70138" fill="#770054"/>
<rect x="330.504" y="187.324" width="10.6859" height="18.7004" rx="0.70138" fill="#770054"/>
<rect x="349.204" y="187.324" width="10.6859" height="18.7004" rx="0.70138" fill="#770054"/>
<rect x="305.126" y="187.324" width="10.6859" height="18.7004" rx="0.70138" fill="#770054"/>
<rect x="289.096" y="187.324" width="10.6859" height="18.7004" rx="0.70138" fill="#770054"/>
<rect x="289.096" y="187.324" width="10.6859" height="18.7004" rx="0.70138" fill="#770054"/>
<rect x="289.096" y="211.367" width="10.6859" height="18.7004" rx="0.70138" fill="#770054"/>
<rect x="330.504" y="163.281" width="10.6859" height="18.7004" rx="0.70138" fill="#770054"/>
<rect x="349.204" y="163.281" width="10.6859" height="18.7004" rx="0.70138" fill="#770054"/>
<rect x="305.126" y="163.281" width="10.6859" height="18.7004" rx="0.70138" fill="#770054"/>
<rect x="289.096" y="163.281" width="10.6859" height="18.7004" rx="0.70138" fill="#770054"/>
<path d="M194.547 210.68H213.858V301.339H194.547V210.68Z" fill="url(#paint55_linear)"/>
<rect x="198.59" y="241.797" width="10.6859" height="15.361" rx="0.70138" fill="#770054"/>
<rect x="198.59" y="261.166" width="10.6859" height="15.361" rx="0.70138" fill="#770054"/>
<rect x="198.59" y="222.429" width="10.6859" height="15.361" rx="0.70138" fill="#770054"/>
<rect x="192.029" y="205.642" width="22.7076" height="6.67871" rx="0.70138" fill="#770054"/>
<path d="M212.179 210.68H260.265V301.339H212.179V210.68Z" fill="url(#paint56_linear)"/>
<rect x="210.499" y="205.642" width="52.0939" height="6.67871" rx="0.70138" fill="#770054"/>
<rect x="221.301" y="222.429" width="10.6859" height="15.361" rx="0.70138" fill="#770054"/>
<rect x="221.301" y="241.797" width="10.6859" height="15.361" rx="0.70138" fill="#770054"/>
<rect x="221.301" y="261.166" width="10.6859" height="15.361" rx="0.70138" fill="#770054"/>
<rect x="239.999" y="222.429" width="10.6859" height="15.361" rx="0.70138" fill="#770054"/>
<rect x="239.999" y="241.797" width="10.6859" height="15.361" rx="0.70138" fill="#770054"/>
<rect x="239.999" y="261.166" width="10.6859" height="15.361" rx="0.70138" fill="#770054"/>
<path d="M415.992 97.1037C415.992 94.3922 418.19 92.1941 420.902 92.1941H456.498C459.209 92.1941 461.407 94.3922 461.407 97.1038V132.81C461.407 135.522 459.209 137.72 456.498 137.72H425.399C425.231 137.72 425.068 137.781 424.941 137.891L417.152 144.621C416.698 145.014 415.992 144.691 415.992 144.091V97.1037Z" fill="url(#paint57_linear)"/>
<path fill-rule="evenodd" clip-rule="evenodd" d="M442.832 104.031C443.596 104.289 444.116 104.615 444.941 105.335L445.538 105.862L445.659 105.961L445.817 106.078L446.545 106.546C447.476 107.147 447.929 107.548 448.395 108.209C448.82 108.813 449.04 109.323 449.28 110.259L449.531 111.306L449.59 111.513L449.644 111.671L449.962 112.471C450.361 113.488 450.499 114.092 450.499 114.902C450.499 115.712 450.361 116.316 449.962 117.333L449.688 118.017L449.6 118.261L449.531 118.497L449.28 119.545C449.04 120.481 448.819 120.991 448.394 121.596C447.932 122.252 447.479 122.654 446.563 123.247L445.816 123.727L445.66 123.842L445.464 124.005L444.94 124.47C444.115 125.189 443.595 125.515 442.827 125.774C442.062 126.03 441.485 126.077 440.352 125.996L439.587 125.938L439.368 125.932L439.272 125.933L439.036 125.945L438.384 125.996C437.25 126.077 436.673 126.03 435.902 125.772C435.139 125.515 434.62 125.189 433.794 124.47L433.133 123.889L432.973 123.765L432.858 123.685L432.17 123.245C431.255 122.653 430.802 122.25 430.341 121.594C429.877 120.935 429.657 120.388 429.389 119.274L429.226 118.582L429.158 118.333L429.092 118.133L428.774 117.333C428.375 116.316 428.237 115.712 428.237 114.902C428.237 114.092 428.375 113.488 428.774 112.471L429.092 111.672L429.183 111.385L429.226 111.222L429.389 110.53L429.52 110.017C429.737 109.231 429.954 108.759 430.341 108.21C430.802 107.554 431.253 107.152 432.169 106.56L432.784 106.168L432.954 106.053L433.132 105.916L433.271 105.798L433.794 105.334C434.62 104.615 435.139 104.289 435.905 104.03C436.673 103.773 437.25 103.726 438.384 103.808L439.163 103.866L439.417 103.872L439.723 103.857L440.351 103.808C441.486 103.726 442.064 103.773 442.832 104.031ZM440.682 106.016L439.692 106.09C439.575 106.096 439.469 106.099 439.368 106.099L439.062 106.091L438.889 106.08L438.262 106.031L437.833 106.004C437.261 105.978 436.979 106.018 436.615 106.141L436.495 106.183C436.105 106.33 435.804 106.533 435.228 107.038L434.615 107.578L434.443 107.718L434.285 107.837L434.03 108.013L433.227 108.527C432.652 108.908 432.412 109.134 432.162 109.491C431.906 109.854 431.776 110.154 431.595 110.879L431.38 111.786L431.324 111.998L431.267 112.187L431.163 112.489L430.78 113.456C430.531 114.11 430.463 114.451 430.463 114.902L430.465 115.034C430.479 115.424 430.556 115.76 430.78 116.348L431.19 117.388L431.269 117.622L431.351 117.908L431.595 118.925C431.776 119.65 431.906 119.95 432.162 120.314C432.438 120.706 432.702 120.941 433.411 121.397L434.033 121.793C434.164 121.879 434.26 121.947 434.362 122.024L434.444 122.086L434.712 122.309L435.228 122.766C435.861 123.322 436.162 123.511 436.61 123.662C437.06 123.812 437.382 123.839 438.262 123.773L438.602 123.745L439.22 123.708L439.368 123.706C439.469 123.706 439.575 123.708 439.692 123.714L439.877 123.726L440.473 123.773C441.353 123.839 441.675 123.812 442.119 123.664C442.572 123.511 442.873 123.322 443.507 122.766L443.938 122.383L444.174 122.181L444.375 122.022L444.582 121.874L444.702 121.793L445.505 121.279C446.081 120.898 446.322 120.671 446.574 120.314C446.852 119.918 446.982 119.598 447.19 118.721L447.291 118.287C447.327 118.133 447.356 118.014 447.384 117.908L447.468 117.619L447.573 117.315L447.956 116.348C448.205 115.694 448.273 115.353 448.273 114.902C448.273 114.451 448.205 114.11 447.956 113.456L447.546 112.416L447.439 112.09L447.356 111.785L447.19 111.083L447.081 110.649C446.96 110.201 446.854 109.937 446.702 109.685L446.574 109.491C446.323 109.134 446.083 108.908 445.506 108.526L444.811 108.082C444.696 108.008 444.608 107.949 444.528 107.893L444.291 107.718L444.119 107.578L443.342 106.895C442.876 106.498 442.598 106.32 442.255 106.189L442.013 106.107C441.654 105.998 441.342 105.974 440.682 106.016ZM443.82 118.798C443.82 117.875 443.073 117.128 442.151 117.128C441.229 117.128 440.481 117.875 440.481 118.798C440.481 119.72 441.229 120.467 442.151 120.467C443.073 120.467 443.82 119.72 443.82 118.798ZM441.817 109.781L443.598 111.117L436.919 120.022L435.138 118.686L441.817 109.781ZM438.255 111.006C438.255 110.084 437.507 109.336 436.585 109.336C435.663 109.336 434.916 110.084 434.916 111.006C434.916 111.928 435.663 112.675 436.585 112.675C437.507 112.675 438.255 111.928 438.255 111.006Z" fill="#E8D08C"/>
<path d="M358.558 217.989C358.558 215.277 356.359 213.079 353.648 213.079H318.052C315.341 213.079 313.142 215.277 313.142 217.989V253.695C313.142 256.407 315.341 258.605 318.052 258.605H329.514C329.72 258.605 329.916 258.696 330.049 258.854L335.968 265.858C336.253 266.195 336.775 266.189 337.051 265.845L342.652 258.867C342.785 258.701 342.986 258.605 343.199 258.605H353.999C356.516 258.605 358.558 256.564 358.558 254.046V217.989Z" fill="url(#paint58_linear)"/>
<path fill-rule="evenodd" clip-rule="evenodd" d="M347.426 228.662V244.246C347.426 244.861 346.927 245.359 346.312 245.359H328.503C328.207 245.359 327.924 245.242 327.716 245.033L323.263 240.58C323.054 240.372 322.937 240.089 322.937 239.793V233.115C322.937 232.819 323.054 232.536 323.263 232.328L327.716 227.875C327.924 227.666 328.207 227.549 328.503 227.549H346.312C346.927 227.549 347.426 228.047 347.426 228.662ZM345.199 243.133V229.775H328.964L325.163 233.576V239.332L328.964 243.133H345.199ZM338.521 233.671C338.521 234.593 337.773 235.341 336.851 235.341C335.929 235.341 335.181 234.593 335.181 233.671C335.181 232.749 335.929 232.002 336.851 232.002C337.773 232.002 338.521 232.749 338.521 233.671ZM341.303 240.906C342.226 240.906 342.973 240.159 342.973 239.237C342.973 238.315 342.226 237.567 341.303 237.567C340.381 237.567 339.634 238.315 339.634 239.237C339.634 240.159 340.381 240.906 341.303 240.906ZM332.955 236.454C332.955 238.298 331.46 239.793 329.616 239.793C327.771 239.793 326.276 238.298 326.276 236.454C326.276 234.61 327.771 233.115 329.616 233.115C331.46 233.115 332.955 234.61 332.955 236.454ZM328.503 236.454C328.503 237.069 329.001 237.567 329.616 237.567C330.231 237.567 330.729 237.069 330.729 236.454C330.729 235.839 330.231 235.341 329.616 235.341C329.001 235.341 328.503 235.839 328.503 236.454ZM342.804 232.591L337.238 241.496L335.35 240.317L340.916 231.412L342.804 232.591Z" fill="#E8D08C"/>
<path d="M507.589 130.915H506.189V133.424L504.38 131.614L503.39 132.604L505.2 134.413H502.691V135.813H505.2L503.426 137.587L504.415 138.576L506.189 136.802V139.311H507.589V136.802L509.327 138.541L510.317 137.552L508.578 135.813H511.087V134.413H508.578L510.352 132.639L509.363 131.65L507.589 133.424V130.915Z" fill="white"/>
<path d="M371.568 30.9987H370.168V33.5076L368.359 31.6984L367.369 32.6879L369.179 34.4971H366.67V35.8965H369.179L367.405 37.6706L368.394 38.6601L370.168 36.886V39.395H371.568V36.886L373.306 38.625L374.296 37.6354L372.557 35.8965H375.066V34.4971H372.557L374.331 32.723L373.342 31.7335L371.568 33.5076V30.9987Z" fill="white"/>
<path d="M180.132 190.529H178.733V193.038L176.924 191.229L175.934 192.218L177.743 194.027H175.234V195.427H177.743L175.969 197.201L176.959 198.19L178.733 196.416V198.925H180.132V196.416L181.871 198.155L182.861 197.166L181.122 195.427H183.631V194.027H181.122L182.896 192.253L181.906 191.264L180.132 193.038V190.529Z" fill="white"/>
<circle cx="186.913" cy="272.811" r="13.3574" fill="url(#paint59_linear)"/>
<path d="M186.912 273.145C186.912 282.495 186.912 301.196 186.912 301.196" stroke="#770054" stroke-opacity="0.47" stroke-linecap="round"/>
<path d="M264.233 301.568C264.233 301.568 264.233 275.204 264.233 257.154C264.233 253.281 267.373 250.142 271.246 250.142H273.582C277.455 250.142 280.595 253.283 280.595 257.156L280.595 265.837" stroke="#770054" stroke-opacity="0.47" stroke-linecap="round"/>
<circle cx="280.992" cy="262.793" r="6.67871" fill="#770054"/>
</g>
<rect y="142.725" width="1332" height="285" fill="url(#paint60_linear)"/>
<g filter="url(#filter1_dd)">
<path fill-rule="evenodd" clip-rule="evenodd" d="M631.572 170.138H634.036C641.586 170.138 647.696 176.282 647.696 183.802V190.618V195.546C647.632 196.25 647.024 196.826 646.288 196.826H643.665H642.257H625.622H623.607H616.953C614.201 196.826 611.674 195.706 609.851 193.882C608.027 192.09 606.907 189.53 606.907 186.778V180.73V167.45C606.907 166.682 607.547 166.042 608.315 166.042H612.282C613.05 166.042 613.69 166.682 613.69 167.45V186.778C613.69 187.706 614.041 188.474 614.649 189.082C615.257 189.69 616.057 190.042 616.953 190.042H640.85V183.738C640.818 179.994 637.779 176.986 634.036 176.986H631.317H624.087H620.664C619.512 176.986 618.84 175.642 619.544 174.714L629.749 161.338C630.005 160.986 630.421 160.794 630.869 160.794H636.819C637.587 160.794 638.035 161.69 637.555 162.298L631.572 170.138ZM601.246 166.074C602.014 166.074 602.654 166.714 602.654 167.482H602.622V180.762V186.81C602.622 189.562 601.502 192.122 599.679 193.914C597.887 195.738 595.328 196.858 592.577 196.858H579.364C578.597 196.858 577.957 196.218 577.957 195.45V191.482C577.957 190.714 578.597 190.074 579.364 190.074H592.577C593.504 190.074 594.272 189.722 594.88 189.114C595.488 188.506 595.84 187.706 595.84 186.81V167.482C595.84 166.714 596.48 166.074 597.247 166.074H601.246ZM724.603 176.986H720.636C719.869 176.986 719.229 177.626 719.229 178.394V186.778C719.229 187.674 718.877 188.474 718.269 189.082C717.661 189.69 716.894 190.042 715.966 190.042H705.025V180.186V180.058C704.993 177.37 703.873 174.874 702.082 173.114C700.258 171.29 697.731 170.17 694.98 170.17H685.255C684.807 170.17 684.391 170.394 684.135 170.746L680.68 175.354C680.168 176.026 680.648 176.986 681.48 176.986H694.98C695.875 176.986 696.675 177.338 697.283 177.946C697.859 178.522 698.211 179.322 698.243 180.186V190.042H671.818C671.051 190.042 670.411 190.682 670.411 191.45V195.418C670.411 196.186 671.051 196.826 671.818 196.826H676.233C676.169 197.594 675.817 198.298 675.305 198.81C674.697 199.418 673.93 199.77 673.002 199.77H661.997C661.101 199.77 660.302 199.418 659.694 198.81C659.086 198.202 658.734 197.434 658.734 196.506V185.018C658.734 184.25 658.094 183.61 657.326 183.61H653.36C652.592 183.61 651.952 184.25 651.952 185.018V190.458V196.506C651.952 199.258 653.072 201.818 654.895 203.61C656.719 205.434 659.246 206.554 661.997 206.554H673.002C675.753 206.554 678.312 205.434 680.104 203.61C681.863 201.882 682.951 199.45 683.047 196.794H699.65H702.178H703.681C704.449 196.794 705.089 196.154 705.089 195.386V194.074L706.72 196.218C706.976 196.57 707.392 196.794 707.84 196.794H708.992H715.966C718.717 196.794 721.276 195.674 723.068 193.85C724.891 192.026 726.011 189.498 726.011 186.746V178.362C726.043 177.626 725.403 176.986 724.603 176.986ZM750.261 173.146C748.469 171.322 745.91 170.202 743.159 170.202H731.066C730.298 170.202 729.658 170.842 729.658 171.61V175.578C729.658 176.346 730.298 176.986 731.066 176.986H743.159C744.054 176.986 744.854 177.338 745.462 177.946C746.07 178.554 746.422 179.322 746.422 180.25V186.81C746.422 187.706 746.07 188.506 745.462 189.114C744.854 189.722 744.086 190.074 743.159 190.074H731.066C730.298 190.074 729.658 190.714 729.658 191.482V195.45C729.658 196.218 730.298 196.858 731.066 196.858H737.112H743.159C745.91 196.858 748.469 195.738 750.261 193.914C752.084 192.09 753.204 189.562 753.204 186.81V180.25C753.204 177.466 752.084 174.938 750.261 173.146ZM692.548 200.474H688.581C687.813 200.474 687.173 201.114 687.173 201.882V205.178C687.173 205.946 687.813 206.586 688.581 206.586H692.548C693.316 206.586 693.956 205.946 693.956 205.178V201.914C693.956 201.114 693.316 200.474 692.548 200.474ZM711.104 200.474H721.053C721.821 200.474 722.461 201.114 722.461 201.914V205.178C722.461 205.946 721.821 206.586 721.053 206.586H711.104C710.336 206.586 709.697 205.946 709.697 205.178V201.882C709.697 201.114 710.336 200.474 711.104 200.474ZM583.043 184.762C583.203 185.37 583.779 185.818 584.419 185.818H588.289C589.217 185.818 589.889 184.922 589.665 184.026L585.058 167.13C584.898 166.522 584.323 166.074 583.683 166.074H579.812C578.884 166.074 578.212 166.97 578.436 167.866L583.043 184.762Z" fill="url(#paint61_linear)"/>
</g>
<g filter="url(#filter2_dd)">
<path fill-rule="evenodd" clip-rule="evenodd" d="M721.755 123.131H725.722C726.521 123.131 727.129 123.739 727.129 124.539V132.891C727.129 135.643 726.01 138.171 724.186 139.995C722.395 141.819 719.835 142.939 717.084 142.939H710.11H708.958C708.51 142.939 708.095 142.715 707.839 142.363L706.207 140.219V141.531C706.207 142.299 705.567 142.939 704.8 142.939H703.296H700.769H684.997C684.581 142.939 684.229 142.587 684.229 142.171V140.507L684.165 140.571C682.374 142.395 679.815 143.515 677.063 143.515H671.017H664.971C664.203 143.515 663.563 142.875 663.563 142.107V138.139C663.563 137.371 664.203 136.731 664.971 136.731H677.063C677.991 136.731 678.759 136.379 679.367 135.771C679.975 135.163 680.326 134.363 680.326 133.467V126.907C680.326 125.979 679.975 125.211 679.367 124.603C678.759 123.995 677.959 123.643 677.063 123.643H664.971C664.203 123.643 663.563 123.003 663.563 122.235V118.267C663.563 117.499 664.203 116.859 664.971 116.859H677.063C679.815 116.859 682.374 117.979 684.165 119.803C685.989 121.595 687.109 124.155 687.109 126.907V133.499C687.109 134.427 686.949 135.323 686.725 136.187H699.329V109.787C699.329 109.051 699.905 108.475 700.641 108.475H704.832C705.567 108.475 706.143 109.051 706.143 109.787V136.187H717.084C718.012 136.187 718.78 135.835 719.387 135.227C719.995 134.619 720.347 133.819 720.347 132.923V124.539C720.347 123.771 720.987 123.131 721.755 123.131ZM711.228 147.163H721.177C721.945 147.163 722.585 147.803 722.585 148.571V151.867C722.585 152.635 721.945 153.275 721.177 153.275H711.228C710.46 153.275 709.821 152.635 709.821 151.867V148.571C709.821 147.803 710.46 147.163 711.228 147.163ZM653.676 142.907H658.059C658.699 142.907 659.243 142.363 659.243 141.723V109.787C659.243 109.147 658.699 108.603 658.059 108.603H653.676C653.037 108.603 652.493 109.147 652.493 109.787V141.723C652.493 142.395 653.037 142.907 653.676 142.907ZM626.037 116.635H645.967C647.055 116.635 647.919 117.499 647.919 118.587V121.851C647.919 122.939 647.023 123.835 645.935 123.835H631.283V126.555H647.663V134.523C647.343 136.699 646.319 138.683 644.847 140.155C643.056 141.979 640.497 143.099 637.745 143.099H615.64C612.888 143.099 610.361 141.979 608.538 140.155C606.714 138.363 605.594 135.803 605.594 133.051V127.003V121.563C605.594 120.795 606.234 120.155 607.002 120.155H610.969C611.737 120.155 612.377 120.795 612.377 121.563V133.019C612.377 133.947 612.728 134.715 613.336 135.323C613.944 135.931 614.744 136.283 615.64 136.283H637.745C638.673 136.283 639.441 135.931 640.049 135.323C640.561 134.811 640.912 134.107 640.976 133.339H625.461C624.693 133.339 624.053 132.699 624.053 131.931V127.963V127.963C624.053 127.867 624.053 127.739 624.085 127.643V122.107C624.053 122.043 624.053 121.947 624.053 121.883V121.883V118.619C624.053 117.531 624.949 116.635 626.037 116.635Z" fill="url(#paint62_linear)"/>
</g>
<ellipse cx="725.404" cy="124.792" rx="5.86506" ry="5.86054" fill="url(#paint63_radial)"/>
<ellipse rx="0.308625" ry="9.78431" transform="matrix(0.857785 0.514008 -0.514593 0.857435 725.456 124.703)" fill="url(#paint64_radial)"/>
<ellipse rx="0.308458" ry="10.7614" transform="matrix(0.3548 -0.934942 0.934879 0.354968 724.168 124.487)" fill="url(#paint65_radial)" fill-opacity="0.5"/>
<ellipse rx="0.203486" ry="4.28311" transform="matrix(0.936692 -0.350155 0.349986 0.936755 725.204 124.719)" fill="url(#paint66_radial)" fill-opacity="0.5"/>
<ellipse rx="6.24144" ry="6.23577" transform="matrix(0.973032 0.230671 -0.230487 0.973076 608.147 167.254)" fill="url(#paint67_radial)"/>
<ellipse rx="0.328444" ry="10.4114" transform="matrix(0.716179 0.697994 -0.698383 0.715649 608.221 167.175)" fill="url(#paint68_radial)"/>
<ellipse rx="0.32819" ry="11.0637" transform="matrix(0.459019 -0.888394 0.888342 0.459245 608.086 167.287)" fill="url(#paint69_radial)" fill-opacity="0.5"/>
</g>
<defs>
<filter id="filter0_d" x="447.488" y="-2.17132" width="434.77" height="434.77" filterUnits="userSpaceOnUse" color-interpolation-filters="sRGB">
<feFlood flood-opacity="0" result="BackgroundImageFix"/>
<feColorMatrix in="SourceAlpha" type="matrix" values="0 0 0 0 0 0 0 0 0 0 0 0 0 0 0 0 0 0 127 0"/>
<feMorphology radius="38.0527" operator="dilate" in="SourceAlpha" result="effect1_dropShadow"/>
<feOffset dy="1.38373"/>
<feGaussianBlur stdDeviation="21.4479"/>
<feColorMatrix type="matrix" values="0 0 0 0 1 0 0 0 0 0.738462 0 0 0 0 0.00833333 0 0 0 0.26 0"/>
<feBlend mode="normal" in2="BackgroundImageFix" result="effect1_dropShadow"/>
<feBlend mode="normal" in="SourceGraphic" in2="effect1_dropShadow" result="shape"/>
</filter>
<filter id="filter1_dd" x="573.114" y="157.335" width="184.933" height="58.2451" filterUnits="userSpaceOnUse" color-interpolation-filters="sRGB">
<feFlood flood-opacity="0" result="BackgroundImageFix"/>
<feColorMatrix in="SourceAlpha" type="matrix" values="0 0 0 0 0 0 0 0 0 0 0 0 0 0 0 0 0 0 127 0"/>
<feOffset dy="4.1512"/>
<feGaussianBlur stdDeviation="2.42153"/>
<feColorMatrix type="matrix" values="0 0 0 0 0 0 0 0 0 0 0 0 0 0 0 0 0 0 0.2 0"/>
<feBlend mode="normal" in2="BackgroundImageFix" result="effect1_dropShadow"/>
<feColorMatrix in="SourceAlpha" type="matrix" values="0 0 0 0 0 0 0 0 0 0 0 0 0 0 0 0 0 0 127 0"/>
<feOffset/>
<feGaussianBlur stdDeviation="1.72967"/>
<feColorMatrix type="matrix" values="0 0 0 0 0.501961 0 0 0 0 0.0470588 0 0 0 0 0.176471 0 0 0 0.04 0"/>
<feBlend mode="normal" in2="effect1_dropShadow" result="effect2_dropShadow"/>
<feBlend mode="normal" in="SourceGraphic" in2="effect2_dropShadow" result="shape"/>
</filter>
<filter id="filter2_dd" x="600.751" y="105.016" width="131.221" height="57.2532" filterUnits="userSpaceOnUse" color-interpolation-filters="sRGB">
<feFlood flood-opacity="0" result="BackgroundImageFix"/>
<feColorMatrix in="SourceAlpha" type="matrix" values="0 0 0 0 0 0 0 0 0 0 0 0 0 0 0 0 0 0 127 0"/>
<feOffset dy="4.1512"/>
<feGaussianBlur stdDeviation="2.42153"/>
<feColorMatrix type="matrix" values="0 0 0 0 0 0 0 0 0 0 0 0 0 0 0 0 0 0 0.2 0"/>
<feBlend mode="normal" in2="BackgroundImageFix" result="effect1_dropShadow"/>
<feColorMatrix in="SourceAlpha" type="matrix" values="0 0 0 0 0 0 0 0 0 0 0 0 0 0 0 0 0 0 127 0"/>
<feOffset/>
<feGaussianBlur stdDeviation="1.72967"/>
<feColorMatrix type="matrix" values="0 0 0 0 0.501961 0 0 0 0 0.0470588 0 0 0 0 0.176471 0 0 0 0.04 0"/>
<feBlend mode="normal" in2="effect1_dropShadow" result="effect2_dropShadow"/>
<feBlend mode="normal" in="SourceGraphic" in2="effect2_dropShadow" result="shape"/>
</filter>
<linearGradient id="paint0_linear" x1="666" y1="0" x2="666" y2="293" gradientUnits="userSpaceOnUse">
<stop stop-color="#660049"/>
<stop offset="0.548892" stop-color="#E40143"/>
</linearGradient>
<linearGradient id="paint1_linear" x1="666" y1="117.725" x2="665.993" y2="334.411" gradientUnits="userSpaceOnUse">
<stop stop-color="#DB014E" stop-opacity="0"/>
<stop offset="0.46742" stop-color="#DC024F"/>
</linearGradient>
<linearGradient id="paint2_linear" x1="665.695" y1="252.85" x2="665.263" y2="25.7258" gradientUnits="userSpaceOnUse">
<stop stop-color="#E10143"/>
<stop offset="1" stop-color="#B00262"/>
</linearGradient>
<linearGradient id="paint3_linear" x1="665.695" y1="179.996" x2="665.695" y2="256.116" gradientUnits="userSpaceOnUse">
<stop stop-color="#E4CC89"/>
<stop offset="1" stop-color="#FFF1C9" stop-opacity="0"/>
</linearGradient>
<linearGradient id="paint4_linear" x1="862.779" y1="190.028" x2="862.779" y2="294.719" gradientUnits="userSpaceOnUse">
<stop stop-color="#A60151"/>
<stop offset="0.614583" stop-color="#E93067"/>
<stop offset="1" stop-color="#E40244"/>
</linearGradient>
<linearGradient id="paint5_linear" x1="916.874" y1="190.2" x2="916.874" y2="301.734" gradientUnits="userSpaceOnUse">
<stop stop-color="#710283"/>
<stop offset="1" stop-color="#E3004D"/>
</linearGradient>
<linearGradient id="paint6_linear" x1="862.886" y1="263.233" x2="862.886" y2="301.636" gradientUnits="userSpaceOnUse">
<stop stop-color="#770054"/>
<stop offset="1" stop-color="#770054" stop-opacity="0"/>
</linearGradient>
<linearGradient id="paint7_linear" x1="863" y1="187.725" x2="863" y2="191.725" gradientUnits="userSpaceOnUse">
<stop stop-color="#A60151"/>
<stop offset="1" stop-color="#E93067"/>
</linearGradient>
<linearGradient id="paint8_linear" x1="917" y1="187.725" x2="917" y2="191.725" gradientUnits="userSpaceOnUse">
<stop stop-color="#710283"/>
<stop offset="1" stop-color="#E3004D"/>
</linearGradient>
<linearGradient id="paint9_linear" x1="1036.58" y1="125.495" x2="1036.58" y2="301.587" gradientUnits="userSpaceOnUse">
<stop stop-color="#710283"/>
<stop offset="1" stop-color="#E3004D"/>
</linearGradient>
<linearGradient id="paint10_linear" x1="1019.39" y1="208.86" x2="1019.39" y2="300.358" gradientUnits="userSpaceOnUse">
<stop stop-color="#710283"/>
<stop offset="1" stop-color="#E3004D"/>
</linearGradient>
<linearGradient id="paint11_linear" x1="987.331" y1="238.099" x2="987.331" y2="300.358" gradientUnits="userSpaceOnUse">
<stop stop-color="#A60151"/>
<stop offset="1" stop-color="#E93067" stop-opacity="0"/>
</linearGradient>
<linearGradient id="paint12_linear" x1="918.179" y1="150.795" x2="918.179" y2="300.878" gradientUnits="userSpaceOnUse">
<stop stop-color="#710283"/>
<stop offset="1" stop-color="#E3004D"/>
</linearGradient>
<linearGradient id="paint13_linear" x1="917.545" y1="150.795" x2="917.545" y2="156.138" gradientUnits="userSpaceOnUse">
<stop stop-color="#A60151"/>
<stop offset="1" stop-color="#E93067"/>
</linearGradient>
<linearGradient id="paint14_linear" x1="918" y1="147.725" x2="918" y2="151.725" gradientUnits="userSpaceOnUse">
<stop stop-color="#A60151"/>
<stop offset="1" stop-color="#E93067"/>
</linearGradient>
<linearGradient id="paint15_linear" x1="952.436" y1="150.795" x2="952.436" y2="300.878" gradientUnits="userSpaceOnUse">
<stop stop-color="#710283"/>
<stop offset="1" stop-color="#E3004D"/>
</linearGradient>
<linearGradient id="paint16_linear" x1="954.5" y1="147.725" x2="954.5" y2="151.725" gradientUnits="userSpaceOnUse">
<stop stop-color="#710283"/>
<stop offset="1" stop-color="#E3004D"/>
</linearGradient>
<linearGradient id="paint17_linear" x1="914" y1="176.725" x2="914" y2="178.725" gradientUnits="userSpaceOnUse">
<stop stop-color="#A60151"/>
<stop offset="1" stop-color="#E93067"/>
</linearGradient>
<linearGradient id="paint18_linear" x1="934.5" y1="176.725" x2="934.5" y2="178.725" gradientUnits="userSpaceOnUse">
<stop stop-color="#710283"/>
<stop offset="1" stop-color="#E3004D"/>
</linearGradient>
<linearGradient id="paint19_linear" x1="914" y1="197.725" x2="914" y2="199.725" gradientUnits="userSpaceOnUse">
<stop stop-color="#A60151"/>
<stop offset="1" stop-color="#E93067"/>
</linearGradient>
<linearGradient id="paint20_linear" x1="935" y1="197.725" x2="935" y2="199.725" gradientUnits="userSpaceOnUse">
<stop stop-color="#710283"/>
<stop offset="1" stop-color="#E3004D"/>
</linearGradient>
<linearGradient id="paint21_linear" x1="914" y1="219.725" x2="914" y2="221.725" gradientUnits="userSpaceOnUse">
<stop stop-color="#A60151"/>
<stop offset="1" stop-color="#E93067"/>
</linearGradient>
<linearGradient id="paint22_linear" x1="935" y1="219.725" x2="935" y2="221.725" gradientUnits="userSpaceOnUse">
<stop stop-color="#710283"/>
<stop offset="1" stop-color="#E3004D"/>
</linearGradient>
<linearGradient id="paint23_linear" x1="914" y1="240.725" x2="914" y2="242.725" gradientUnits="userSpaceOnUse">
<stop stop-color="#A60151"/>
<stop offset="1" stop-color="#E93067"/>
</linearGradient>
<linearGradient id="paint24_linear" x1="935" y1="240.725" x2="935" y2="242.725" gradientUnits="userSpaceOnUse">
<stop stop-color="#710283"/>
<stop offset="1" stop-color="#E3004D"/>
</linearGradient>
<linearGradient id="paint25_linear" x1="914" y1="262.725" x2="914" y2="264.725" gradientUnits="userSpaceOnUse">
<stop stop-color="#A60151"/>
<stop offset="1" stop-color="#E93067"/>
</linearGradient>
<linearGradient id="paint26_linear" x1="935" y1="262.725" x2="935" y2="264.725" gradientUnits="userSpaceOnUse">
<stop stop-color="#710283"/>
<stop offset="1" stop-color="#E3004D"/>
</linearGradient>
<linearGradient id="paint27_linear" x1="914" y1="283.725" x2="914" y2="285.725" gradientUnits="userSpaceOnUse">
<stop stop-color="#A60151"/>
<stop offset="1" stop-color="#E93067"/>
</linearGradient>
<linearGradient id="paint28_linear" x1="935" y1="283.725" x2="935" y2="285.725" gradientUnits="userSpaceOnUse">
<stop stop-color="#710283"/>
<stop offset="1" stop-color="#E3004D"/>
</linearGradient>
<linearGradient id="paint29_linear" x1="930.986" y1="114.961" x2="930.986" y2="168.391" gradientUnits="userSpaceOnUse">
<stop stop-color="#710283"/>
<stop offset="1" stop-color="#E3004D"/>
</linearGradient>
<linearGradient id="paint30_linear" x1="836.705" y1="258.175" x2="836.705" y2="284.889" gradientUnits="userSpaceOnUse">
<stop stop-color="#770054"/>
<stop offset="1" stop-color="#770054" stop-opacity="0"/>
</linearGradient>
<linearGradient id="paint31_linear" x1="1061.09" y1="233.728" x2="1061.09" y2="301.876" gradientUnits="userSpaceOnUse">
<stop stop-color="#A60151"/>
<stop offset="0.703125" stop-color="#E93067"/>
<stop offset="1" stop-color="#E50848"/>
</linearGradient>
<linearGradient id="paint32_linear" x1="1098.46" y1="233.728" x2="1098.46" y2="301.096" gradientUnits="userSpaceOnUse">
<stop stop-color="#A60151"/>
<stop offset="1" stop-color="#E40244"/>
</linearGradient>
<linearGradient id="paint33_linear" x1="1060.21" y1="271.107" x2="1060.21" y2="301.161" gradientUnits="userSpaceOnUse">
<stop stop-color="#770054"/>
<stop offset="1" stop-color="#770054" stop-opacity="0"/>
</linearGradient>
<linearGradient id="paint34_linear" x1="1116.38" y1="259.378" x2="1116.38" y2="286.093" gradientUnits="userSpaceOnUse">
<stop stop-color="#770054"/>
<stop offset="1" stop-color="#770054" stop-opacity="0"/>
</linearGradient>
<linearGradient id="paint35_linear" x1="1116.38" y1="247.14" x2="1116.38" y2="268.512" gradientUnits="userSpaceOnUse">
<stop stop-color="#770054"/>
<stop offset="1" stop-color="#770054" stop-opacity="0"/>
</linearGradient>
<linearGradient id="paint36_linear" x1="1041.37" y1="193.904" x2="1041.37" y2="247.334" gradientUnits="userSpaceOnUse">
<stop stop-color="#710283"/>
<stop offset="1" stop-color="#E3004D"/>
</linearGradient>
<linearGradient id="paint37_linear" x1="440.658" y1="226.084" x2="440.658" y2="288.867" gradientUnits="userSpaceOnUse">
<stop stop-color="#770054"/>
<stop offset="1" stop-color="#770054" stop-opacity="0"/>
</linearGradient>
<linearGradient id="paint38_linear" x1="520.737" y1="226.034" x2="520.737" y2="288.817" gradientUnits="userSpaceOnUse">
<stop stop-color="#B10955"/>
<stop offset="1" stop-color="#E60E4C"/>
</linearGradient>
<linearGradient id="paint39_linear" x1="499.343" y1="226.034" x2="499.343" y2="288.817" gradientUnits="userSpaceOnUse">
<stop stop-color="#9B016F"/>
<stop offset="1" stop-color="#770054" stop-opacity="0"/>
</linearGradient>
<linearGradient id="paint40_linear" x1="462.104" y1="226.034" x2="462.104" y2="288.867" gradientUnits="userSpaceOnUse">
<stop stop-color="#770054"/>
<stop offset="1" stop-color="#770054" stop-opacity="0"/>
</linearGradient>
<linearGradient id="paint41_linear" x1="261.725" y1="196.826" x2="261.725" y2="300.52" gradientUnits="userSpaceOnUse">
<stop stop-color="#770054"/>
<stop offset="1" stop-color="#770054" stop-opacity="0"/>
</linearGradient>
<linearGradient id="paint42_linear" x1="400.634" y1="72.4507" x2="400.634" y2="91.1511" gradientUnits="userSpaceOnUse">
<stop stop-color="#A60151"/>
<stop offset="1" stop-color="#E93067"/>
</linearGradient>
<linearGradient id="paint43_linear" x1="391.95" y1="89.8153" x2="391.95" y2="99.8333" gradientUnits="userSpaceOnUse">
<stop stop-color="#710283"/>
<stop offset="1" stop-color="#E3004D"/>
</linearGradient>
<linearGradient id="paint44_linear" x1="409.314" y1="89.8153" x2="409.314" y2="99.8333" gradientUnits="userSpaceOnUse">
<stop stop-color="#A60151"/>
<stop offset="1" stop-color="#E93067"/>
</linearGradient>
<linearGradient id="paint45_linear" x1="383.934" y1="98.4975" x2="383.934" y2="119.869" gradientUnits="userSpaceOnUse">
<stop stop-color="#710283"/>
<stop offset="1" stop-color="#E3004D"/>
</linearGradient>
<linearGradient id="paint46_linear" x1="417.329" y1="98.4975" x2="417.329" y2="119.869" gradientUnits="userSpaceOnUse">
<stop stop-color="#A60151"/>
<stop offset="1" stop-color="#E93067"/>
</linearGradient>
<linearGradient id="paint47_linear" x1="380.596" y1="118.534" x2="380.596" y2="128.552" gradientUnits="userSpaceOnUse">
<stop stop-color="#710283"/>
<stop offset="1" stop-color="#E3004D"/>
</linearGradient>
<linearGradient id="paint48_linear" x1="420.668" y1="118.534" x2="420.668" y2="128.552" gradientUnits="userSpaceOnUse">
<stop stop-color="#A60151"/>
<stop offset="1" stop-color="#E93067"/>
</linearGradient>
<linearGradient id="paint49_linear" x1="375.254" y1="127.216" x2="375.254" y2="302.198" gradientUnits="userSpaceOnUse">
<stop stop-color="#710283"/>
<stop offset="1" stop-color="#E3004D"/>
</linearGradient>
<linearGradient id="paint50_linear" x1="426.203" y1="127.216" x2="426.203" y2="304.226" gradientUnits="userSpaceOnUse">
<stop stop-color="#A60151"/>
<stop offset="0.588542" stop-color="#E93067"/>
<stop offset="1" stop-color="#E40243"/>
</linearGradient>
<linearGradient id="paint51_linear" x1="426.117" y1="256.115" x2="426.117" y2="303.242" gradientUnits="userSpaceOnUse">
<stop stop-color="#770054"/>
<stop offset="1" stop-color="#770054" stop-opacity="0"/>
</linearGradient>
<linearGradient id="paint52_linear" x1="393.464" y1="259.454" x2="393.464" y2="286.168" gradientUnits="userSpaceOnUse">
<stop stop-color="#770054"/>
<stop offset="1" stop-color="#770054" stop-opacity="0"/>
</linearGradient>
<linearGradient id="paint53_linear" x1="302.454" y1="85.5748" x2="302.454" y2="302.198" gradientUnits="userSpaceOnUse">
<stop stop-color="#710283"/>
<stop offset="1" stop-color="#E3004D"/>
</linearGradient>
<linearGradient id="paint54_linear" x1="343.194" y1="141.909" x2="343.194" y2="302.198" gradientUnits="userSpaceOnUse">
<stop stop-color="#A60151"/>
<stop offset="0.6875" stop-color="#E93067"/>
<stop offset="1" stop-color="#E50949"/>
</linearGradient>
<linearGradient id="paint55_linear" x1="203.897" y1="210.68" x2="203.897" y2="302.178" gradientUnits="userSpaceOnUse">
<stop stop-color="#710283"/>
<stop offset="1" stop-color="#E3004D"/>
</linearGradient>
<linearGradient id="paint56_linear" x1="236.222" y1="210.68" x2="236.222" y2="302.178" gradientUnits="userSpaceOnUse">
<stop stop-color="#A60151"/>
<stop offset="0.598958" stop-color="#E93067"/>
<stop offset="1" stop-color="#E40244"/>
</linearGradient>
<linearGradient id="paint57_linear" x1="438.7" y1="92.1941" x2="438.7" y2="145.624" gradientUnits="userSpaceOnUse">
<stop stop-color="#710283"/>
<stop offset="1" stop-color="#E3004D"/>
</linearGradient>
<linearGradient id="paint58_linear" x1="335.85" y1="213.079" x2="335.85" y2="266.509" gradientUnits="userSpaceOnUse">
<stop stop-color="#710283"/>
<stop offset="1" stop-color="#E3004D"/>
</linearGradient>
<linearGradient id="paint59_linear" x1="186.913" y1="259.454" x2="186.913" y2="286.168" gradientUnits="userSpaceOnUse">
<stop stop-color="#770054"/>
<stop offset="1" stop-color="#770054" stop-opacity="0"/>
</linearGradient>
<linearGradient id="paint60_linear" x1="666" y1="80.0251" x2="667.221" y2="427.721" gradientUnits="userSpaceOnUse">
<stop offset="0.197473" stop-color="#E40143" stop-opacity="0"/>
<stop offset="0.599068" stop-color="#E40143"/>
</linearGradient>
<linearGradient id="paint61_linear" x1="753.065" y1="160.794" x2="582.274" y2="215.975" gradientUnits="userSpaceOnUse">
<stop stop-color="#DEA558"/>
<stop offset="0.0653371" stop-color="#E8D2B5"/>
<stop offset="0.121876" stop-color="#FCC16F"/>
<stop offset="0.220223" stop-color="#E1A858"/>
<stop offset="0.285072" stop-color="#E8D2B5"/>
<stop offset="0.357687" stop-color="#FCC16F"/>
<stop offset="0.430183" stop-color="#F0BE68"/>
<stop offset="0.528252" stop-color="#E4B161"/>
<stop offset="0.601903" stop-color="#D68E43"/>
<stop offset="0.667029" stop-color="#E4A967"/>
<stop offset="0.732156" stop-color="#E3B172"/>
<stop offset="0.805529" stop-color="#EBA55D"/>
<stop offset="0.853767" stop-color="#F1AF64"/>
<stop offset="0.909174" stop-color="#FDD8A4"/>
<stop offset="0.96157" stop-color="#E0A562"/>
<stop offset="1" stop-color="#BE8B4A"/>
</linearGradient>
<linearGradient id="paint62_linear" x1="727.033" y1="108.475" x2="602.744" y2="136.941" gradientUnits="userSpaceOnUse">
<stop stop-color="#DEA558"/>
<stop offset="0.0653371" stop-color="#E8D2B5"/>
<stop offset="0.121876" stop-color="#FCC16F"/>
<stop offset="0.220223" stop-color="#E1A858"/>
<stop offset="0.285072" stop-color="#E8D2B5"/>
<stop offset="0.357687" stop-color="#FCC16F"/>
<stop offset="0.430183" stop-color="#F0BE68"/>
<stop offset="0.528252" stop-color="#E4B161"/>
<stop offset="0.601903" stop-color="#D68E43"/>
<stop offset="0.667029" stop-color="#E4A967"/>
<stop offset="0.732156" stop-color="#E3B172"/>
<stop offset="0.805529" stop-color="#EBA55D"/>
<stop offset="0.853767" stop-color="#F1AF64"/>
<stop offset="0.909174" stop-color="#FDD8A4"/>
<stop offset="0.96157" stop-color="#E0A562"/>
<stop offset="1" stop-color="#BE8B4A"/>
</linearGradient>
<radialGradient id="paint63_radial" cx="0" cy="0" r="1" gradientUnits="userSpaceOnUse" gradientTransform="translate(725.404 124.792) rotate(90) scale(5.86054 5.86506)">
<stop stop-color="white"/>
<stop offset="0.457932" stop-color="#DEA253" stop-opacity="0.32"/>
<stop offset="1" stop-color="#C4C4C4" stop-opacity="0"/>
<stop offset="1" stop-color="white" stop-opacity="0"/>
</radialGradient>
<radialGradient id="paint64_radial" cx="0" cy="0" r="1" gradientUnits="userSpaceOnUse" gradientTransform="translate(0.308625 9.78431) rotate(90) scale(9.78431 0.308625)">
<stop stop-color="white"/>
<stop offset="0.270421" stop-color="white" stop-opacity="0.5"/>
<stop offset="1" stop-color="white" stop-opacity="0"/>
</radialGradient>
<radialGradient id="paint65_radial" cx="0" cy="0" r="1" gradientUnits="userSpaceOnUse" gradientTransform="translate(0.308458 10.7614) rotate(90) scale(10.7614 0.308458)">
<stop stop-color="white"/>
<stop offset="1" stop-color="white" stop-opacity="0"/>
</radialGradient>
<radialGradient id="paint66_radial" cx="0" cy="0" r="1" gradientUnits="userSpaceOnUse" gradientTransform="translate(0.203486 4.28311) rotate(90) scale(4.28311 0.203486)">
<stop stop-color="white"/>
<stop offset="1" stop-color="white" stop-opacity="0"/>
</radialGradient>
<radialGradient id="paint67_radial" cx="0" cy="0" r="1" gradientUnits="userSpaceOnUse" gradientTransform="translate(6.24144 6.23577) rotate(90) scale(6.23577 6.24144)">
<stop stop-color="white"/>
<stop offset="0.457932" stop-color="#DEA253" stop-opacity="0.32"/>
<stop offset="1" stop-color="#C4C4C4" stop-opacity="0"/>
<stop offset="1" stop-color="white" stop-opacity="0"/>
</radialGradient>
<radialGradient id="paint68_radial" cx="0" cy="0" r="1" gradientUnits="userSpaceOnUse" gradientTransform="translate(0.328444 10.4114) rotate(90) scale(10.4114 0.328444)">
<stop stop-color="white"/>
<stop offset="0.270421" stop-color="white" stop-opacity="0.5"/>
<stop offset="1" stop-color="white" stop-opacity="0"/>
</radialGradient>
<radialGradient id="paint69_radial" cx="0" cy="0" r="1" gradientUnits="userSpaceOnUse" gradientTransform="translate(0.32819 11.0637) rotate(90) scale(11.0637 0.32819)">
<stop stop-color="white"/>
<stop offset="1" stop-color="white" stop-opacity="0"/>
</radialGradient>
<clipPath id="clip0">
<rect width="1332" height="293" fill="white" transform="translate(0 0.724976)"/>
</clipPath>
</defs>
</svg>
