<svg xmlns="http://www.w3.org/2000/svg" width="74" height="25" viewBox="0 0 74 25">
    <g fill="none" fill-rule="evenodd">
        <path fill="#D2004C" d="M43.435 6c2.767 0 5.01 2.286 5.01 5.105l-.001 5.257h6.645c.844 0 1.536-.66 1.606-1.501l.006-.142v-4.554c0-.387.308-.701.688-.701h2.021c.38 0 .689.314.689.701v4.554c0 2.82-2.243 5.105-5.01 5.105h-4.876c-.396 0-.768-.189-1.007-.51l-.762-1.029v.84a.696.696 0 0 1-.593.693l-.094.006H37.32v.07c0 2.82-2.243 5.106-5.01 5.106h-6.3C23.243 25 21 22.714 21 19.895v-6.281c0-.388.308-.702.688-.702h2.021c.38 0 .688.314.688.702v6.28c0 .908.722 1.644 1.613 1.644h6.3c.89 0 1.613-.736 1.613-1.643l-.001-.071h-2.406a.694.694 0 0 1-.683-.607l-.006-.095v-2.058c0-.388.308-.702.689-.702h13.531v-5.257c0-.907-.722-1.643-1.612-1.643h-6.362c-.417 0-.654-.485-.403-.824l1.577-2.127c.239-.322.611-.511 1.007-.511zm-1.332 15.782c.38 0 .69.315.69.702v1.814a.696.696 0 0 1-.69.702h-2.02a.695.695 0 0 1-.688-.702v-1.814c0-.387.308-.702.689-.702zm15.481 0c.38 0 .689.315.689.702v1.814a.696.696 0 0 1-.689.702h-5.15a.696.696 0 0 1-.69-.702v-1.814c0-.387.309-.702.69-.702zM68.99 6C71.757 6 74 8.286 74 11.105v3.614c0 2.82-2.243 5.105-5.01 5.105h-6.352a.695.695 0 0 1-.688-.701v-2.06c0-.387.308-.701.688-.701h6.352c.89 0 1.613-.736 1.613-1.643v-3.614c0-.907-.722-1.643-1.613-1.643h-6.352a.695.695 0 0 1-.688-.701V6.7c0-.387.308-.701.688-.701h6.352z"/>
        <path fill="#FF6691" d="M1.672 11.896c.133.28.416.459.726.459h9.867V2.487a.803.803 0 0 0-.458-.725L8.417.15a.625.625 0 0 0-.893.564v6.899H.626a.625.625 0 0 0-.565.893l1.611 3.389z"/>
        <path fill="#D2004C" d="M18.14 8.115a.804.804 0 0 0-.725-.458H7.547v9.867c0 .31.179.593.459.726l3.39 1.61a.625.625 0 0 0 .892-.564v-6.898h6.899c.46 0 .762-.479.564-.893l-1.61-3.39z"/>
    </g>
</svg>
