<svg width="24" height="24" viewBox="0 0 24 24" fill="none" xmlns="http://www.w3.org/2000/svg">
<path fill-rule="evenodd" clip-rule="evenodd" d="M13 2C11.8954 2 11 2.89543 11 4V5.53513C10.0828 6.06571 9.39582 6.95003 9.12563 8.00155C11.4886 8.05982 13.4448 9.75738 13.9 12H20V9C20 7.51944 19.1956 6.22675 18 5.53513V4C18 2.89543 17.1046 2 16 2H13ZM13 5H16V4H13V5Z" fill="white"/>
<path d="M9 9C7.13617 9 5.57007 10.2748 5.12602 12H12.874C12.4299 10.2748 10.8638 9 9 9Z" fill="white"/>
<path fill-rule="evenodd" clip-rule="evenodd" d="M2.24455 13.3448C2.43449 13.1258 2.71012 13 3.00001 13H21C21.2899 13 21.5655 13.1258 21.7555 13.3448C21.9454 13.5638 22.031 13.8544 21.99 14.1414L20.99 21.1414C20.9196 21.6341 20.4977 22 20 22H4.00001C3.50236 22 3.08044 21.6341 3.01006 21.1414L2.01006 14.1414C1.96906 13.8544 2.05462 13.5638 2.24455 13.3448ZM9.00001 18H15V16H9.00001V18Z" fill="white"/>
</svg>
