<svg xmlns="http://www.w3.org/2000/svg" width="76" height="17" viewBox="0 0 76 17">
    <g fill="none">
        <path fill="#004CFF" d="M11.593 6.296v1.26c0 2.039-1.652 3.7-3.72 3.775l-.144.002H5.153v1.89c0 2.038-1.653 3.7-3.72 3.774L1.288 17H0v-6.926c0-2.039 1.652-3.7 3.72-3.775l.144-.003h7.73zM7.73 0c2.134 0 3.864 1.691 3.864 3.778v1.259H3.864C1.73 5.037 0 3.346 0 1.259V0h7.729z"/>
        <path fill="#0040FF" d="M39.288 4v9c0 2.21-1.826 4-4.079 4h-2.04l-1.147-2h3.187c1.126 0 2.04-.895 2.04-2h-4.08c-2.252 0-4.079-1.79-4.079-4V8c0-2.21 1.827-4 4.08-4h6.118zm28.554 0v5c0 1.105.913 2 2.04 2h4.078V4H76v9c0 2.21-1.826 4-4.08 4h-2.039l-1.147-2h3.187c1.126 0 2.04-.895 2.04-2h-4.08c-2.252 0-4.079-1.79-4.079-4V4h2.04zM49.486 4c2.253 0 4.079 1.79 4.079 4v1c0 2.21-1.826 4-4.08 4h-4.078v4h-2.04V4zM25.01 0v13h-6.118c-2.253 0-4.08-1.79-4.08-4V8c0-2.21 1.827-4 4.08-4h4.079V0h2.04zm39.771 4v9h-6.118c-2.253 0-4.08-1.79-4.08-4V8c0-2.21 1.827-4 4.08-4h6.118zM28.071 4v9h-2.04V4h2.04zm14.276 0v9h-2.04V4h2.04zM22.972 6h-4.08c-1.126 0-2.039.895-2.039 2v1c0 1.105.913 2 2.04 2h4.079V6zm14.277 0h-4.08c-1.126 0-2.04.895-2.04 2v1c0 1.105.914 2 2.04 2h4.08V6zm25.494 0h-4.08c-1.126 0-2.039.895-2.039 2v1c0 1.105.913 2 2.04 2h4.079V6zM49.486 6h-4.08v5h4.08c1.126 0 2.04-.895 2.04-2V8c0-1.105-.914-2-2.04-2zM28.07 0v2h-2.04V0h2.04zm14.276 0v2h-2.04V0h2.04z"/>
    </g>
</svg>
