<?xml version="1.0" encoding="UTF-8" standalone="no"?>
<svg width="92px" height="92px" viewBox="0 0 92 92" version="1.1" xmlns="http://www.w3.org/2000/svg" xmlns:xlink="http://www.w3.org/1999/xlink">
    <!-- Generator: Sketch 46.2 (44496) - http://www.bohemiancoding.com/sketch -->
    <title>Delivery</title>
    <desc>Created with Sketch.</desc>
    <defs></defs>
    <g id="Page-1" stroke="none" stroke-width="1" fill="none" fill-rule="evenodd">
        <g id="Steps-006" transform="translate(-702.000000, -1910.000000)">
            <g id="Group-11" transform="translate(150.000000, 1875.000000)">
                <g id="Group-7">
                    <g id="Group-8" transform="translate(546.000000, 36.000000)">
                        <g id="Delivery" transform="translate(7.000000, 0.000000)">
                            <ellipse id="Oval-4" stroke-opacity="0.2" stroke="#979797" fill="#FFFFFF" cx="44.9054622" cy="44.8398577" rx="44.9054622" ry="44.8398577"></ellipse>
                            <g id="free-delivery" transform="translate(12.000000, 24.000000)" fill-rule="nonzero">
                                <path d="M61.3798621,17.8050723 L59.6706908,10.9274903 C60.1379768,10.8276367 60.4886025,10.4105856 60.4886025,9.91092832 L60.4886025,8.80203412 C60.4886025,6.39439412 58.5414698,4.43570648 56.1483206,4.43570648 L48.3633991,4.43570648 L48.3633991,2.14853925 C48.3633991,0.963782212 47.405366,4.6629367e-15 46.2276762,4.6629367e-15 L6.54484091,0 C5.36715111,0 4.40911799,0.963782212 4.40911799,2.14853925 L4.40911799,21.0001297 C4.40911799,21.5742233 4.87176342,22.0397747 5.44256141,22.0397747 C6.01323049,22.0397747 6.47600484,21.574353 6.47600484,21.0001297 L6.47600484,2.14853925 C6.47600484,2.1230355 19.726519,2.09995245 46.2275473,2.07929009 C46.2528989,2.07929009 46.2758443,8.38632308 46.2963834,21.000389 C46.2963834,21.5744827 46.7590288,22.0400341 47.3298268,22.0400341 C47.9004959,22.0400341 48.3632702,21.5746123 48.3632702,21.000389 L48.3632702,19.8218566 L60.5534425,19.8218566 C62.0599728,19.8231534 63.333569,20.8136498 63.7708199,22.1784027 L60.5574386,22.1784027 C59.9867695,22.1784027 59.5239952,22.6438245 59.5239952,23.2180478 L59.5239952,25.4358362 C59.5239952,27.2320347 60.9765136,28.6932696 62.7619976,28.6932696 L63.9332421,28.6932696 L63.9332421,33.2674744 L61.231104,33.2674744 C60.3434538,30.6891754 57.906992,28.8317679 55.0459122,28.8317679 C52.1848324,28.8317679 49.7482417,30.6890457 48.8607204,33.2674744 L48.3631413,33.2674744 L48.3631413,25.4357065 C48.3631413,24.8616128 47.9004959,24.3960614 47.3296979,24.3960614 C46.7590288,24.3960614 46.2962545,24.8614832 46.2962545,25.4357065 L46.2962545,33.2673447 L24.855365,33.2673447 C23.9677148,30.6890457 21.531253,28.8316382 18.6701732,28.8316382 C15.8090934,28.8316382 13.3725027,30.6889161 12.4849814,33.2673447 L6.54484091,33.2673447 C6.5194893,33.2673447 6.49654394,32.4818726 6.47600484,30.9109283 L10.9540878,30.9109283 C11.5247569,30.9109283 11.9875312,30.4455066 11.9875312,29.8712833 C11.9875312,29.29706 11.5248858,28.8316382 10.9540878,28.8316382 L1.03344342,28.8316382 C0.462774341,28.8316382 0,29.29706 0,29.8712833 C0,30.4455066 0.462645435,30.9109283 1.03344342,30.9109283 L4.40924689,30.9109283 L4.40924689,33.1980956 C4.40924689,34.3828526 5.36728001,35.3466348 6.54496981,35.3466348 L12.127137,35.3466348 C12.1253323,39.0462773 15.0614357,42 18.6701732,42 C22.2789107,42 25.2150141,39.0462773 25.2150141,35.415884 C25.2150141,35.4003223 32.9775918,35.3772393 48.5027471,35.3466348 C48.5009424,39.0462773 51.4370458,42 55.0457833,42 C58.6545208,42 61.5906242,39.0462773 61.5906242,35.415884 C61.5906242,35.4003223 62.715935,35.3772393 64.9665566,35.3466348 C65.5372257,35.3466348 66,34.8812131 66,34.3069898 L66,23.2179181 C66.0001289,20.4798533 63.9921523,18.2050057 61.3798621,17.8050723 Z M48.3633991,6.51473721 L56.1483206,6.51473721 C57.4019363,6.51473721 58.4218446,7.54076585 58.4218446,8.80190444 L58.4218446,8.8711536 L48.3633991,8.8711536 L48.3633991,6.51473721 Z M48.3633991,17.7425666 L48.3633991,10.9504437 L57.5460538,10.9504437 L59.2339555,17.7425666 L48.3633991,17.7425666 Z M18.6701732,39.9208396 C16.2009691,39.9208396 14.1920902,37.8999055 14.1920902,35.415884 C14.1920902,32.9318624 16.2009691,30.9109283 18.6701732,30.9109283 C21.1393772,30.9109283 23.1482561,32.9318624 23.1482561,35.415884 C23.1482561,37.8999055 21.1393772,39.9208396 18.6701732,39.9208396 Z M55.0460411,39.9208396 C52.5768371,39.9208396 50.5679581,37.8999055 50.5679581,35.415884 C50.5679581,32.9318624 52.5768371,30.9109283 55.0460411,30.9109283 C57.5152451,30.9109283 59.5241241,32.9318624 59.5241241,35.415884 C59.5241241,37.8999055 57.5152451,39.9208396 55.0460411,39.9208396 Z M63.933371,26.6138498 L62.7621265,26.6138498 C62.1163049,26.6138498 61.590882,26.0852739 61.590882,25.4355768 L61.590882,24.2573038 L63.9332421,24.2573038 L63.9332421,26.6138498 L63.933371,26.6138498 Z" id="Shape" fill="#77787B"></path>
                                <path d="M19,33 C17.8971511,33 17,33.8971511 17,35 C17,36.1028489 17.8971511,37 19,37 C20.1028489,37 21,36.1028489 21,35 C21,33.8971511 20.1028489,33 19,33 Z" id="Shape" fill="#77787B"></path>
                                <path d="M55,33 C53.8971511,33 53,33.8971511 53,35 C53,36.1028489 53.8971511,37 55,37 C56.1028489,37 57,36.1028489 57,35 C57,33.8971511 56.1028489,33 55,33 Z" id="Shape" fill="#77787B"></path>
                                <path d="M42.9369724,29 L27.0630276,29 C26.4760221,29 26,29.4476737 26,30 C26,30.5523263 26.4758895,31 27.0630276,31 L42.9369724,31 C43.5239779,31 44,30.5523263 44,30 C44,29.4476737 43.5241105,29 42.9369724,29 Z" id="Shape" fill="#EF5662"></path>
                                <path d="M15.9864557,25 L3.01354427,25 C2.45386353,25 2,25.4476737 2,26 C2,26.5523263 2.4537371,27 3.01354427,27 L15.9864557,27 C16.5461365,27 17,26.5523263 17,26 C17,25.4476737 16.5461365,25 15.9864557,25 Z" id="Shape" fill="#EF5662"></path>
                            </g>
                        </g>
                    </g>
                </g>
            </g>
        </g>
    </g>
</svg>