<svg xmlns="http://www.w3.org/2000/svg" width="45" height="40" viewBox="0 0 45 40">
    <g fill="none" fill-rule="evenodd">
        <path fill="#81858B" fill-rule="nonzero" d="M45 0v40H2.5c-1.105 0-2-.895-2-2 0-.148.016-.295.049-.439L4.4 20.439c.065-.289.065-.589 0-.878L.55 2.439C.306 1.361.983.291 2.06.049 2.205.016 2.352 0 2.5 0H45z"/>
        <path fill="#FFF" d="M17.867 26.27c2.418 0 4.537-1.208 5.643-3.068l-2.23-1.284c-.62 1.135-1.913 1.842-3.413 1.842-2.57 0-4.257-1.767-4.257-4.26 0-2.511 1.688-4.278 4.257-4.278 1.5 0 2.775.707 3.412 1.86l2.231-1.284c-1.125-1.86-3.243-3.069-5.643-3.069-3.975 0-6.825 2.958-6.825 6.771 0 3.795 2.85 6.77 6.825 6.77zm10.345 0v-5.222h5.746v-2.554h-5.745v-3.211h5.745v-2.554h-8.333v13.542h2.587z"/>
    </g>
</svg>
