<svg xmlns="http://www.w3.org/2000/svg" width="512" height="565" viewBox="0 0 512 565">
    <defs>
        <linearGradient id="a" x1="-36.469%" x2="90.363%" y1="88.183%" y2="0%">
            <stop offset="0%" stop-color="#4FCCE9"/>
            <stop offset="100%" stop-color="#57CFB1"/>
        </linearGradient>
        <filter id="b" width="129.9%" height="123%" x="-14.9%" y="-11.5%" filterUnits="objectBoundingBox">
            <feOffset dx="4" dy="4" in="SourceAlpha" result="shadowOffsetOuter1"/>
            <feGaussianBlur in="shadowOffsetOuter1" result="shadowBlurOuter1" stdDeviation="10"/>
            <feColorMatrix in="shadowBlurOuter1" result="shadowMatrixOuter1" values="0 0 0 0 0 0 0 0 0 0 0 0 0 0 0 0 0 0 0.15 0"/>
            <feMerge>
                <feMergeNode in="shadowMatrixOuter1"/>
                <feMergeNode in="SourceGraphic"/>
            </feMerge>
        </filter>
        <linearGradient id="c" x1="50%" x2="75.814%" y1="33.747%" y2="58.304%">
            <stop offset="0%" stop-color="#434A54"/>
            <stop offset="100%" stop-color="#656D78"/>
        </linearGradient>
        <linearGradient id="d" x1="50%" x2="50%" y1="0%" y2="73.604%">
            <stop offset="0%" stop-color="#CDCCCC"/>
            <stop offset="100%" stop-color="#D8D8D8"/>
        </linearGradient>
        <linearGradient id="e" x1="47.053%" x2="47.053%" y1="21.906%" y2="81.386%">
            <stop offset="0%" stop-color="#EFF0F1"/>
            <stop offset="100%" stop-color="#FFF"/>
        </linearGradient>
    </defs>
    <g fill="none" fill-rule="evenodd">
        <path fill="url(#a)" d="M0 0h511.868L512 565 50.202 299.812A100 100 0 0 1 0 213.093V0z" opacity=".845"/>
        <g filter="url(#b)" transform="matrix(-1 0 0 1 362 76)">
            <path fill="#434A54" d="M81.496 337.502l113.69-28.004a8 8 0 0 1 6.663 1.33l7.555 5.574a4 4 0 0 1-.348 6.668L131.6 368.583a8 8 0 0 1-7.916.108l-43.163-23.802a4 4 0 0 1 .974-7.387z"/>
            <path fill="url(#c)" d="M77.664 333.955l77.4-45.058a8 8 0 0 1 7.888-.092l45.96 25.344a4 4 0 0 1 .081 6.96l-77.4 45.058a8 8 0 0 1-7.889.092l-45.96-25.344a4 4 0 0 1-.08-6.96z"/>
            <path fill="#434A54" fill-rule="nonzero" d="M12.114 162.434c92.66-53.65 164.656-95.445 215.99-125.386 37.001-22.392 33.342-20.763 53.265-14.249 8.58 53.838 6.683 123.568-5.692 209.188a8.144 8.144 0 0 1-4.053 7.044L21.144 398.982C-.404 398.982 0 387.663 0 382.601V183.539a24.435 24.435 0 0 1 12.114-21.105z"/>
            <path fill="#656D78" fill-rule="nonzero" d="M25.125 170.683L276.46 23.909c3.88-2.266 8.86-.95 11.12 2.937a8.16 8.16 0 0 1 1.107 4.103v209.336a8.151 8.151 0 0 1-4.053 7.049L25.243 397.882a8.128 8.128 0 0 1-4.098 1.1 8.128 8.128 0 0 1-7.017-4.062 8.16 8.16 0 0 1-1.097-4.087l-.018-199.03c0-8.698 4.612-16.74 12.112-21.12z"/>
            <path fill="#263238" fill-rule="nonzero" d="M24.3 181.43L278.573 33.048a2.4 2.4 0 0 1 3.61 2.073V205.71a4.8 4.8 0 0 1-2.39 4.151L23.937 358.411a2.4 2.4 0 0 1-3.605-2.075V188.34a8 8 0 0 1 3.968-6.91z"/>
            <path fill="#FFF" fill-rule="nonzero" d="M59.365 107.131L242.742 0v177.856L59.365 284.987z"/>
            <path fill="#FFF" d="M91.893 265.852v19.135c0 8.994-7.281 16.285-16.264 16.285-8.982 0-16.264-7.29-16.264-16.285v-19.135l32.528-19.134v19.134z"/>
            <path fill="#656D78" d="M102.058 222.697c.373-.2 47.268-27.477 140.684-81.832V154.3c-90.992 52.926-136.26 79.39-135.804 79.39-10.979 1.22-15.451 10.178-15.045 17.574v34.063c0 8.806-7.281 15.945-16.264 15.945-1.258 0-2.483-.14-3.659-.405 7.22-1.628 12.605-7.968 12.605-15.54v-34.063c0-6.175 0-19.203 17.483-28.567z" opacity=".1"/>
            <path fill="#D8D8D8" d="M75.63 301.272c10.842-1.357 16.263-7.735 16.263-17.823v-44.06c0-8.994 7.282-16.285 16.264-16.285 8.983 0 16.264 7.291 16.264 16.285v36.234c-16.535 9.5-30.088 17.507-40.66 24.02-2.44 1.222-5.692 1.63-8.132 1.63z"/>
            <path fill="url(#d)" d="M124.421 280.102v-40.713c0-8.994-7.281-16.285-16.264-16.285-8.982 0-16.264 7.291-16.264 16.285v21.578l32.528 19.135z" transform="matrix(-1 0 0 1 216.315 0)"/>
            <path fill="#434A54" d="M108.564 223.104c8.888 0 16.11 6.99 16.261 15.668l.003.278v100.9l-7.319 4.477V239.05c0-7.573-5.384-13.912-12.604-15.54a16.626 16.626 0 0 1 3.659-.406z" opacity=".104"/>
            <path fill="url(#e)" fill-rule="nonzero" d="M291.534 116.438c8.89 0 16.112 7.14 16.262 16.004l.002.28v112.889L124.421 352.74V239.39c0-5.858-2.609-10.41-7.828-13.656l-.304-.186c-5.25-2.628-9.97-3.047-14.161-1.257l-.223.098 178.651-103.88.147.066a16.192 16.192 0 0 1 10.831-4.136z"/>
            <path stroke="#DBDDDF" stroke-linecap="round" stroke-width="2.4" d="M77.032 137.47l148.197-86.532M77.032 161.898l148.197-86.532M77.032 186.326l148.197-86.533M122.986 183.92l102.243-59.7M143.125 259.153l148.198-86.532M143.125 234.726l148.198-86.533M143.125 283.58l148.198-86.532M189.08 281.176l102.243-59.7"/>
        </g>
    </g>
</svg>
