<svg xmlns="http://www.w3.org/2000/svg" width="80" height="80" viewBox="0 0 80 80">
    <g fill="none" fill-rule="evenodd">
        <path fill="#E2E2E2" d="M8 0h52v11a8 8 0 0 0 8 8h12v53a8 8 0 0 1-8 8H8a8 8 0 0 1-8-8V8a8 8 0 0 1 8-8z"/>
        <text fill="#606265" font-family="IRANYekan-Bold, IRANYekan" font-size="12" font-weight="bold">
            <tspan x="14.556" y="28">3D Photo</tspan>
        </text>
        <path fill="#606265" d="M60 0v11a8 8 0 0 0 8 8h12L60 0zM39.3 60.486v-1.997a2 2 0 0 1 2-2h2.3a2 2 0 0 1 2 2V72a2 2 0 0 1-2 2H35a2 2 0 0 1-2-2v-7.514a2 2 0 0 1 2-2h2.3a2 2 0 0 0 2-2zm-3.15 7.939c0 .843.683 1.526 1.527 1.526h3.246a1.527 1.527 0 1 0 0-3.053h-3.246c-.844 0-1.527.684-1.527 1.527zm3.15-16.508c0-.88.713-1.592 1.592-1.592h3.116a1.592 1.592 0 0 1 0 3.184h-3.116c-.88 0-1.592-.713-1.592-1.592zM33 55c0-.879.713-1.592 1.592-1.592h3.116a1.592 1.592 0 0 1 0 3.184h-3.116C33.712 56.592 33 55.88 33 55zm6.3-9.25c0-.879.713-1.591 1.592-1.591h3.116a1.592 1.592 0 1 1 0 3.183h-3.116c-.88 0-1.592-.712-1.592-1.591zM33 48.835c0-.88.713-1.592 1.592-1.592h3.116a1.592 1.592 0 0 1 0 3.184h-3.116c-.88 0-1.592-.713-1.592-1.592zm6.3-9.242c0-.88.713-1.592 1.592-1.592h3.116a1.592 1.592 0 0 1 0 3.184h-3.116c-.88 0-1.592-.713-1.592-1.592zm-6.3 3.08c0-.88.713-1.592 1.592-1.592h3.116a1.592 1.592 0 0 1 0 3.184h-3.116c-.88 0-1.592-.713-1.592-1.592z"/>
    </g>
</svg>
