<svg xmlns="http://www.w3.org/2000/svg" width="45" height="40" viewBox="0 0 45 40">
    <g fill="none" fill-rule="evenodd">
        <path fill="#57CFB1" fill-rule="nonzero" d="M45 0v40H2.5a2 2 0 0 1-1.951-2.439L4.4 20.439a2 2 0 0 0 0-.878L.55 2.439A2 2 0 0 1 2.5 0H45z"/>
        <path fill="#FFF" d="M28.75 12.208l-4.167 4.167h3.125v7.292a2.09 2.09 0 0 1-2.083 2.083 2.09 2.09 0 0 1-2.083-2.083v-7.292a4.166 4.166 0 0 0-4.167-4.167 4.166 4.166 0 0 0-4.167 4.167v7.292h-3.125l4.167 4.166 4.167-4.166h-3.125v-7.292a2.09 2.09 0 0 1 2.083-2.083 2.09 2.09 0 0 1 2.083 2.083v7.292a4.166 4.166 0 0 0 4.167 4.166 4.166 4.166 0 0 0 4.167-4.166v-7.292h3.125l-4.167-4.167z"/>
    </g>
</svg>
