<svg xmlns="http://www.w3.org/2000/svg" width="45" height="40" viewBox="0 0 45 40">
    <g fill="none" fill-rule="evenodd">
        <path fill="#6EC281" fill-rule="nonzero" d="M45 0v40H2.5c-1.105 0-2-.895-2-2 0-.148.016-.295.049-.439L4.4 20.439c.065-.289.065-.589 0-.878L.55 2.439C.306 1.361.983.291 2.06.049 2.205.016 2.352 0 2.5 0H45z"/>
        <path fill="#FFF" d="M18.954 27.833V14.31h4.588v-3.143h-12.5v3.143h4.563v13.523h3.35zm15.004-16.666l-2.916 6.666h2.916l-5.104 10v-7.5h-2.187v-9.166h7.291z"/>
    </g>
</svg>
