<?xml version="1.0" encoding="UTF-8" standalone="no"?>
<svg width="92px" height="92px" viewBox="0 0 92 92" version="1.1" xmlns="http://www.w3.org/2000/svg" xmlns:xlink="http://www.w3.org/1999/xlink">
    <!-- Generator: Sketch 46.2 (44496) - http://www.bohemiancoding.com/sketch -->
    <title>Tax</title>
    <desc>Created with Sketch.</desc>
    <defs></defs>
    <g id="Page-1" stroke="none" stroke-width="1" fill="none" fill-rule="evenodd">
        <g id="Steps-006" transform="translate(-873.000000, -1910.000000)">
            <g id="Group-11" transform="translate(150.000000, 1875.000000)">
                <g id="Group-7">
                    <g id="Group-8" transform="translate(717.000000, 36.000000)">
                        <g id="Tax" transform="translate(7.000000, 0.000000)">
                            <ellipse id="Oval-4" stroke-opacity="0.2" stroke="#979797" fill="#FFFFFF" cx="44.9054622" cy="44.8398577" rx="44.9054622" ry="44.8398577"></ellipse>
                            <g id="growth" transform="translate(14.000000, 22.000000)">
                                <path d="M14.31519,32.9872135 C14.0879719,32.9787144 13.8618309,32.9660036 13.636843,32.949157 L6.293,40.293 C5.902,40.684 5.902,41.316 6.293,41.707 L11.293,46.707 C11.488,46.902 11.744,47 12,47 C12.256,47 12.512,46.902 12.707,46.707 L23,36.414 L29.293,42.707 C29.684,43.098 30.316,43.098 30.707,42.707 L53,20.414 L53,21.5 C53,23.981 55.019,26 57.5,26 C59.981,26 62,23.981 62,21.5 L62,9.5 C62,7.019 59.981,5 57.5,5 L45.5,5 C43.019,5 41,7.019 41,9.5 C41,11.981 43.019,14 45.5,14 L46.586,14 L30,30.586 L27.4315702,28.0175702 C26.948148,28.4793629 26.4390437,28.9144983 25.9066167,29.3206167 L29.293,32.707 C29.684,33.098 30.316,33.098 30.707,32.707 L49.707,13.707 C49.993,13.421 50.079,12.991 49.924,12.617 C49.769,12.243 49.404,12 49,12 L45.5,12 C44.122,12 43,10.879 43,9.5 C43,8.121 44.122,7 45.5,7 L57.5,7 C58.878,7 60,8.121 60,9.5 L60,21.5 C60,22.879 58.878,24 57.5,24 C56.122,24 55,22.879 55,21.5 L55,18 C55,17.596 54.756,17.23 54.383,17.076 C54.008,16.92 53.579,17.007 53.293,17.293 L30,40.586 L23.707,34.293 C23.316,33.902 22.684,33.902 22.293,34.293 L12,44.586 L8.414,41 L16.4734391,32.9405609 C16.2304655,32.960246 15.9861281,32.9751058 15.7405229,32.9850443 C15.4949318,32.9949825 15.2480519,33 15,33 C14.7706976,33 14.5423967,32.9957123 14.315173,32.9872128 Z" id="Combined-Shape" fill="#77787B"></path>
                                <rect id="Rectangle-path" fill="#EF5662" fill-rule="nonzero" x="47" y="30" width="2" height="2"></rect>
                                <rect id="Rectangle-path" fill="#EF5662" fill-rule="nonzero" x="51" y="30" width="2" height="2"></rect>
                                <rect id="Rectangle-path" fill="#EF5662" fill-rule="nonzero" x="55" y="30" width="2" height="2"></rect>
                                <circle id="Oval" stroke="#EF5662" stroke-width="2" cx="15" cy="15" r="15"></circle>
                                <g id="Group" transform="translate(8.000000, 8.000000)" fill-rule="nonzero" fill="#EF5662">
                                    <rect id="Rectangle-path" transform="translate(6.740449, 6.172713) rotate(-47.723613) translate(-6.740449, -6.172713) " x="-0.692466585" y="5.17222441" width="14.8658313" height="2.00097729"></rect>
                                    <path d="M3,6 C4.654,6 6,4.654 6,3 C6,1.346 4.654,0 3,0 C1.346,0 0,1.346 0,3 C0,4.654 1.346,6 3,6 Z M3,2 C3.552,2 4,2.449 4,3 C4,3.551 3.552,4 3,4 C2.448,4 2,3.551 2,3 C2,2.449 2.448,2 3,2 Z" id="Shape"></path>
                                    <path d="M8,9 C8,10.654 9.346,12 11,12 C12.654,12 14,10.654 14,9 C14,7.346 12.654,6 11,6 C9.346,6 8,7.346 8,9 Z M12,9 C12,9.551 11.552,10 11,10 C10.448,10 10,9.551 10,9 C10,8.449 10.448,8 11,8 C11.552,8 12,8.449 12,9 Z" id="Shape"></path>
                                    <rect id="Rectangle-path" x="2" y="13" width="2" height="2"></rect>
                                    <rect id="Rectangle-path" x="6" y="13" width="2" height="2"></rect>
                                    <rect id="Rectangle-path" x="10" y="13" width="2" height="2"></rect>
                                </g>
                            </g>
                        </g>
                    </g>
                </g>
            </g>
        </g>
    </g>
</svg>