<?xml version="1.0" encoding="UTF-8" standalone="no"?>
<svg width="90px" height="90px" viewBox="0 0 90 90" version="1.1" xmlns="http://www.w3.org/2000/svg" xmlns:xlink="http://www.w3.org/1999/xlink">
    <!-- Generator: Sketch 46.2 (44496) - http://www.bohemiancoding.com/sketch -->
    <title>DK price</title>
    <desc>Created with Sketch.</desc>
    <defs></defs>
    <g id="Page-1" stroke="none" stroke-width="1" fill="none" fill-rule="evenodd">
        <g id="Steps-006" transform="translate(-186.000000, -1911.000000)">
            <g id="Group-11" transform="translate(150.000000, 1875.000000)">
                <g id="Group-7">
                    <g id="Group-8" transform="translate(22.000000, 36.000000)">
                        <g id="DK-price" transform="translate(14.000000, 0.000000)">
                            <ellipse id="Oval-4" fill="#EF5662" cx="44.9054622" cy="44.8398577" rx="44.9054622" ry="44.8398577"></ellipse>
                            <g id="price-tag" transform="translate(17.000000, 17.000000)" fill-rule="nonzero" fill="#FFFFFF">
                                <g>
                                    <path d="M56,25.5903611 L55.9997812,7.54188935 C55.9998906,3.38320201 52.6080493,0 48.4388767,0 L30.3451185,0 C30.0356955,0 29.7390693,0.122628799 29.5203184,0.34082951 L25.9834452,3.8688077 C25.3787085,3.81862153 24.768503,3.7780362 24.1535943,3.7483609 C16.3719702,3.37240108 9.73167864,4.72633649 7.23704389,7.19745953 C6.23768062,8.18754526 6.0606018,9.1829769 6.08783628,9.84347045 C6.18671167,12.2264404 9.04512908,14.369826 13.9975391,15.824461 L2.20675862,27.5856975 C0.783674936,29.0052022 0,30.8991844 0,32.918632 C0,34.9381886 0.783784312,36.8320617 2.20675862,38.2513482 L17.5257716,53.531944 C18.9744503,55.0864814 20.7102987,55.9070422 22.7333168,55.9936264 C24.6124949,56.0814892 26.5251555,55.2609283 28.4712987,53.531944 L55.6582018,26.4134142 C55.8771714,26.1949953 56,25.899006 56,25.5903611 Z M8.41928289,9.74724393 C8.41501725,9.64261669 8.40178282,9.32393456 8.88139407,8.84880251 C10.4900879,7.25517362 15.8307806,5.71674951 23.7842335,6.06248854 L15.898484,13.9284059 C10.4884472,12.5707611 8.45843929,10.6908529 8.41928289,9.74724393 Z M26.6949324,52.012176 C25.7126317,52.9921154 24.3996891,53.5318349 22.9984805,53.5318349 C21.5970531,53.5318349 20.2843292,52.9922245 19.3021379,52.012176 L3.85657756,36.6054603 C2.87416748,35.6257391 2.33308724,34.3163166 2.33308724,32.9185229 C2.33308724,31.52062 2.87416748,30.2111976 3.85657756,29.2313673 L26.8572455,6.28876267 C30.2331181,6.64093862 33.3498803,7.31834273 35.8317181,8.25475107 C37.4777089,8.8758594 38.5877601,9.51726039 39.2841535,10.0944013 C38.4433845,10.9367651 37.9226481,12.0973747 37.9226481,13.3773401 C37.9226481,13.7383531 37.9654139,14.0895472 38.0438361,14.4271037 C38.0490861,14.455688 38.0560862,14.4840541 38.0636331,14.512311 C38.0665862,14.5244212 38.0693206,14.5366404 38.0724925,14.5487506 C38.0727112,14.5497325 38.0730393,14.5507144 38.0734768,14.5515872 C38.5964008,16.5516149 40.4226423,18.0321067 42.5892601,18.0321067 C45.162317,18.0321067 47.2557627,15.944035 47.2557627,13.377231 C47.2557627,10.8104269 45.1624264,8.722137 42.5892601,8.722137 C42.1753835,8.722137 41.7741944,8.77679627 41.3919273,8.8781505 C40.4037203,7.83667851 38.812636,6.89099663 36.6571744,6.07776259 C34.4601502,5.24881809 31.8149055,4.61079921 28.9487225,4.20254568 L30.8283392,2.32754698 L48.4387673,2.32754698 C51.3212473,2.32754698 53.6663659,4.66676769 53.6663659,7.54199845 L53.6665846,25.1083557 L26.6949324,52.012176 Z M42.5808382,11.3967322 C42.5760257,11.2810858 42.5641038,11.1662032 42.5468224,11.0517569 C42.5610413,11.0515387 42.5749319,11.0495749 42.5892601,11.0495749 C43.8757339,11.0495749 44.9223474,12.0937744 44.9223474,13.3771219 C44.9223474,14.6603602 43.8757339,15.7044506 42.5892601,15.7044506 C41.786882,15.7044506 41.0780198,15.29827 40.6579088,14.6813075 C42.2848683,13.5283349 42.6176977,12.2889549 42.5808382,11.3967322 Z" id="Shape"></path>
                                    <g id="DK" transform="translate(28.000000, 28.000000) rotate(-45.000000) translate(-28.000000, -28.000000) translate(16.000000, 20.000000)">
                                        <polygon id="K" points="23.5159877 0 18.9376538 0 12.3476278 7.89632713 18.9376538 15.7926543 23.446619 15.7926543 16.856593 7.89632713"></polygon>
                                        <path d="M8.60171821,0 L0,0 L0,3.43318571 L7.63055647,3.43318571 C8.67108691,3.43318571 9.01793037,4.46314142 9.01793037,5.3557697 L9.01793037,10.7802031 C9.01793037,11.7414951 8.53234952,12.3594685 7.63055647,12.3594685 L0,12.3594685 L0,15.7926543 L8.60171821,15.7926543 C11.0989912,15.7926543 12.4863651,14.2133888 12.4863651,11.7414951 L12.4863651,4.60046886 C12.4863651,2.19723886 11.0296225,0 8.60171821,0 L8.60171821,0 Z" id="D"></path>
                                    </g>
                                </g>
                            </g>
                        </g>
                    </g>
                </g>
            </g>
        </g>
    </g>
</svg>