<svg xmlns="http://www.w3.org/2000/svg" width="45" height="40" viewBox="0 0 45 40">
    <g fill="none" fill-rule="evenodd">
        <path fill-rule="nonzero" stroke="#EF5661" stroke-width="2" d="M44 1H2.5a1 1 0 0 0-.976 1.22L5.377 19.34a3 3 0 0 1 0 1.318L1.524 37.78A1 1 0 0 0 2.5 39H44V1z"/>
        <path fill="#EF5661" d="M33.958 12.208l-6.412 7.743 6.412 7.742h-4.435l-6.412-7.742 6.412-7.743h4.435zm-15.1 0c2.364 0 4.252 1.909 4.252 4.299v6.932c0 2.405-1.848 4.254-4.252 4.254h-7.816v-3.409h6.855c.906 0 1.798-.89 1.798-1.796v-5.253c0-.865-.826-1.604-1.798-1.604h-6.855V12.21z"/>
    </g>
</svg>
