<svg xmlns="http://www.w3.org/2000/svg" width="45" height="40" viewBox="0 0 45 40">
    <g fill="none" fill-rule="evenodd">
        <path fill="#EF5661" fill-rule="nonzero" d="M45 0v40H2.5a2 2 0 0 1-1.951-2.439L4.4 20.439a2 2 0 0 0 0-.878L.55 2.439A2 2 0 0 1 2.5 0H45z"/>
        <path fill="#FFF" d="M25.625 10.125l1.906 2.083h3.302a2.09 2.09 0 0 1 2.084 2.084v12.5a2.09 2.09 0 0 1-2.084 2.083H14.167a2.09 2.09 0 0 1-2.084-2.083v-12.5a2.09 2.09 0 0 1 2.084-2.084h3.302l1.906-2.083h6.25zm3.125 6.25h-2.271l-3.285 4.167 3.284 4.166h2.272l-3.284-4.166 3.284-4.167zm-12.5 0v1.842h3.945l.118.006c.506.051.916.425.916.857v2.827l-.008.104c-.065.45-.542.863-1.026.863H16.25v1.834h4.498l.17-.005c1.3-.078 2.276-1.044 2.276-2.284v-3.73l-.005-.16c-.086-1.211-1.138-2.154-2.441-2.154z"/>
    </g>
</svg>
