<svg xmlns="http://www.w3.org/2000/svg" width="45" height="40" viewBox="0 0 45 40">
    <g fill="none" fill-rule="evenodd">
        <path fill-rule="nonzero" stroke="#41C1C6" stroke-width="2" d="M44 1H2.5a1 1 0 0 0-.976 1.22L5.377 19.34a3 3 0 0 1 0 1.318L1.524 37.78A1 1 0 0 0 2.5 39H44V1z"/>
        <path fill="#41C1C6" d="M16.324 12.99h-5.282v13.02h5.282c3.668 0 6.404-2.846 6.404-6.51 0-3.664-2.736-6.51-6.404-6.51zm0 10.565h-2.66v-8.11h2.66c2.3 0 3.896 1.655 3.896 4.055 0 2.4-1.596 4.055-3.896 4.055zm12.808 2.716c-2.718 0-4.504-1.284-5.226-3.218l2.242-1.284c.475 1.21 1.407 1.99 3.06 1.99 1.577 0 2.128-.65 2.128-1.376 0-.919-.806-1.3-2.581-1.815l-.288-.082c-2.034-.577-4.01-1.414-4.01-3.888 0-2.455 2.09-3.869 4.37-3.869 2.186 0 3.858 1.098 4.751 2.92l-2.204 1.247c-.475-.986-1.197-1.674-2.546-1.674-1.102 0-1.748.558-1.748 1.302 0 .727.424 1.147 2.014 1.664l1.17.364c1.892.61 3.694 1.41 3.694 3.794 0 2.437-1.995 3.925-4.826 3.925z"/>
    </g>
</svg>
