<svg xmlns="http://www.w3.org/2000/svg" width="36" height="36" viewBox="0 0 36 36">
    <g fill="none" fill-rule="evenodd">
        <path fill="#EF5661" d="M18 0c9.941 0 18 8.059 18 18s-8.059 18-18 18S0 27.941 0 18 8.059 0 18 0z" opacity=".8"/>
        <path fill="#FFF" d="M18 13.76c.402 0 .727.326.727.727v4.197a.727.727 0 0 1-1.454 0v-4.197c0-.401.325-.727.727-.727zm0 8.1a.724.724 0 0 1-.727-.72c0-.398.325-.72.727-.72.402 0 .727.322.727.72 0 .398-.325.72-.727.72zm2.99-12.137l6.498 11.088c.68 1.073.678 2.416.024 3.433-.563 1.1-1.683 1.756-3.009 1.756H11.494c-1.252 0-2.46-.686-2.977-1.702a3.215 3.215 0 0 1-.013-3.476l6.517-11.12C15.7 8.642 16.793 8 18 8c1.252 0 2.46.686 2.99 1.723zm5.387 11.774l-.014-.022-6.522-11.13c-.317-.62-1.067-1.046-1.842-1.046-.742 0-1.427.402-1.86 1.078L9.62 21.497c-.415.649-.415 1.455.031 2.159.317.62 1.068 1.045 1.842 1.045h13.01c.841 0 1.506-.39 1.873-1.1a1.934 1.934 0 0 0 0-2.104z"/>
    </g>
</svg>
