<?xml version="1.0" encoding="UTF-8" standalone="no"?>
<svg width="92px" height="92px" viewBox="0 0 92 92" version="1.1" xmlns="http://www.w3.org/2000/svg" xmlns:xlink="http://www.w3.org/1999/xlink">
    <!-- Generator: Sketch 46.2 (44496) - http://www.bohemiancoding.com/sketch -->
    <title>Packing</title>
    <desc>Created with Sketch.</desc>
    <defs></defs>
    <g id="Page-1" stroke="none" stroke-width="1" fill="none" fill-rule="evenodd">
        <g id="Steps-006" transform="translate(-529.000000, -1910.000000)">
            <g id="Group-11" transform="translate(150.000000, 1875.000000)">
                <g id="Group-7">
                    <g id="Group-8" transform="translate(373.000000, 36.000000)">
                        <g id="Packing" transform="translate(7.000000, 0.000000)">
                            <ellipse id="Oval-4" stroke-opacity="0.2" stroke="#979797" fill="#FFFFFF" cx="44.9054622" cy="44.8398577" rx="44.9054622" ry="44.8398577"></ellipse>
                            <g id="new-product" transform="translate(16.000000, 17.000000)" fill-rule="nonzero">
                                <path d="M51.395,25.553 C51.225,25.214 50.879,25 50.5,25 L48.5,25 L38.5,25 L38.5,17 C38.5,14.243 36.257,12 33.5,12 L23.5,12 C20.743,12 18.5,14.243 18.5,17 L18.5,25 L8.5,25 L6.5,25 C6.121,25 5.775,25.214 5.605,25.553 L0.605,35.553 C0.45,35.863 0.467,36.231 0.649,36.526 C0.831,36.821 1.153,37 1.5,37 L5.5,37 L5.5,52 C5.5,54.757 7.743,57 10.5,57 L18.5,57 L26.5,57 L38.5,57 L46.5,57 C49.257,57 51.5,54.757 51.5,52 L51.5,37 L55.5,37 C55.847,37 56.168,36.82 56.351,36.525 C56.534,36.23 56.55,35.862 56.395,35.552 L51.395,25.553 Z M20.5,17 C20.5,15.346 21.846,14 23.5,14 L33.5,14 C35.154,14 36.5,15.346 36.5,17 L36.5,25 L20.5,25 L20.5,17 Z M7.118,27 L8.5,27 L19.5,27 L36.882,27 L32.882,35 L3.118,35 L7.118,27 Z M7.5,52 L7.5,37 L33.5,37 C33.879,37 34.225,36.786 34.395,36.447 L37.5,30.236 L37.5,55 L27.5,55 L27.5,44 C27.5,43.653 27.32,43.332 27.026,43.149 C26.731,42.966 26.362,42.951 26.053,43.105 L24.5,43.882 L22.947,43.106 C22.665,42.965 22.334,42.965 22.052,43.106 L20.5,43.882 L18.947,43.106 C18.637,42.952 18.269,42.967 17.974,43.15 C17.68,43.332 17.5,43.653 17.5,44 L17.5,55 L10.5,55 C8.846,55 7.5,53.654 7.5,52 Z M19.5,55 L19.5,45.618 L20.053,45.894 C20.334,46.035 20.666,46.035 20.948,45.894 L22.5,45.118 L24.053,45.894 C24.335,46.035 24.666,46.035 24.948,45.894 L25.5,45.618 L25.5,55 L19.5,55 Z M49.5,52 C49.5,53.654 48.154,55 46.5,55 L39.5,55 L39.5,30.236 L42.605,36.447 C42.775,36.786 43.121,37 43.5,37 L49.5,37 L49.5,52 Z M44.118,35 L40.118,27 L48.5,27 L49.882,27 L53.882,35 L44.118,35 Z" id="Shape" fill="#77787B"></path>
                                <path d="M8.5,23 L10.5,23 C10.5,17.486 6.014,13 0.5,13 L0.5,15 C4.911,15 8.5,18.589 8.5,23 Z" id="Shape" fill="#EF5662"></path>
                                <path d="M12.5,14 L14.5,14 C14.5,6.832 8.668,1 1.5,1 L1.5,3 C7.565,3 12.5,7.935 12.5,14 Z" id="Shape" fill="#EF5662"></path>
                                <path d="M23.5,10 L25.5,10 C25.5,5.037 21.462,1 16.5,1 L16.5,3 C20.36,3 23.5,6.141 23.5,10 Z" id="Shape" fill="#EF5662"></path>
                                <path d="M46.5,23 L48.5,23 C48.5,18.589 52.089,15 56.5,15 L56.5,13 C50.986,13 46.5,17.486 46.5,23 Z" id="Shape" fill="#EF5662"></path>
                                <path d="M55.5,3 L55.5,1 C48.332,1 42.5,6.832 42.5,14 L44.5,14 C44.5,7.935 49.435,3 55.5,3 Z" id="Shape" fill="#EF5662"></path>
                                <path d="M40.5,3 L40.5,1 C35.538,1 31.5,5.037 31.5,10 L33.5,10 C33.5,6.141 36.64,3 40.5,3 Z" id="Shape" fill="#EF5662"></path>
                                <rect id="Rectangle-path" fill="#EF5662" x="12.5" y="16" width="2" height="2"></rect>
                                <rect id="Rectangle-path" fill="#EF5662" x="12.5" y="20" width="2" height="2"></rect>
                                <rect id="Rectangle-path" fill="#EF5662" x="42.5" y="16" width="2" height="2"></rect>
                                <rect id="Rectangle-path" fill="#EF5662" x="42.5" y="20" width="2" height="2"></rect>
                                <rect id="Rectangle-path" fill="#EF5662" x="12.5" y="1" width="2" height="2"></rect>
                                <rect id="Rectangle-path" fill="#EF5662" x="42.5" y="1" width="2" height="2"></rect>
                                <rect id="Rectangle-path" fill="#EF5662" x="27.5" y="8" width="2" height="2"></rect>
                                <rect id="Rectangle-path" fill="#EF5662" x="27.5" y="4" width="2" height="2"></rect>
                                <rect id="Rectangle-path" fill="#EF5662" x="27.5" y="0" width="2" height="2"></rect>
                                <rect id="Rectangle-path" fill="#EF5662" x="17.5" y="8" width="2" height="2"></rect>
                                <rect id="Rectangle-path" fill="#EF5662" x="37.5" y="8" width="2" height="2"></rect>
                            </g>
                        </g>
                    </g>
                </g>
            </g>
        </g>
    </g>
</svg>