<?xml version="1.0" encoding="UTF-8"?>
<svg width="45px" height="40px" viewBox="0 0 45 40" version="1.1" xmlns="http://www.w3.org/2000/svg" xmlns:xlink="http://www.w3.org/1999/xlink">
    <!-- Generator: Sketch 55.2 (78181) - https://sketchapp.com -->
    <title>Badge / Flag / Dk</title>
    <desc>Created with Sketch.</desc>
    <g id="Badge-/-Flag-/-Dk" stroke="none" stroke-width="1" fill="none" fill-rule="evenodd">
        <path d="M2.5,-2.5 L42.5,-2.5 L42.5,40 C42.5,41.1045695 41.6045695,42 40.5,42 C40.3523063,42 40.205067,41.9836401 40.0609756,41.9512195 L22.9390244,38.0987805 C22.6499548,38.0337398 22.3500452,38.0337398 22.0609756,38.0987805 L4.93902439,41.9512195 C3.86139561,42.193686 2.79124696,41.5166532 2.54878049,40.4390244 C2.51635992,40.294933 2.5,40.1476937 2.5,40 L2.5,-2.5 Z" id="Rectangle" fill="#EF5661" fill-rule="nonzero" transform="translate(22.500000, 20.000000) rotate(90.000000) translate(-22.500000, -20.000000) "></path>
        <g id="Icon-/-DK" transform="translate(10.000000, 7.000000)" fill="#FFFFFF">
            <path d="M23.9583333,5.20833333 L17.545811,12.9513613 L23.9576502,20.6934784 L19.5225556,20.6934784 L13.1107164,12.9513613 L19.5232388,5.20833333 L23.9583333,5.20833333 Z M8.85824473,5.20878875 C11.2216398,5.20878875 13.1104887,7.11653749 13.1104887,9.5068023 L13.1104887,16.4389573 C13.1104887,18.8435678 11.2619444,20.693023 8.85824473,20.693023 L1.04166667,20.693023 L1.04166667,17.2842144 L7.89731137,17.2842144 C8.80313908,17.2842144 9.69462109,16.3934155 9.69462109,15.4882709 L9.69462109,10.234789 C9.69462109,9.36994899 8.86917478,8.63125994 7.89731137,8.63125994 L1.04166667,8.63125994 L1.04166667,5.20878875 L8.85824473,5.20878875 Z" id="Combined-Shape"></path>
        </g>
    </g>
</svg>