<svg xmlns="http://www.w3.org/2000/svg" width="107" height="102" viewBox="0 0 107 102">
    <g fill="none" fill-rule="evenodd" transform="translate(1)">
        <circle cx="46.667" cy="54.167" r="41.667" fill="#EF5661"/>
        <circle cx="45.833" cy="4.167" r="4.167" fill="#EF5661"/>
        <circle cx="93.333" cy="54.167" r="12.5" fill="#EF5661"/>
        <circle cx="90.417" cy="77.917" r="6.25" fill="#EF5661"/>
        <circle cx="102.083" cy="71.25" r="2.083" fill="#EF5661"/>
        <circle cx="41.667" cy="58.667" r="41.667" stroke="#646870" stroke-width="2"/>
        <path fill="#FFF" fill-rule="nonzero" d="M44.159 58.667L56.57 71.079l1.246 1.246a1.762 1.762 0 0 1-2.492 2.492L41.667 61.16 28.008 74.817a1.762 1.762 0 0 1-2.492-2.492l1.246-1.246 12.413-12.412-13.659-13.659a1.762 1.762 0 0 1 2.492-2.492l13.659 13.659 13.658-13.659a1.762 1.762 0 0 1 2.492 2.492L44.16 58.667z"/>
    </g>
</svg>
