<?xml version="1.0" encoding="UTF-8" standalone="no"?>
<svg width="291px" height="43px" viewBox="0 0 291 43" version="1.1" xmlns="http://www.w3.org/2000/svg" xmlns:xlink="http://www.w3.org/1999/xlink">
    <!-- Generator: Sketch 46.2 (44496) - http://www.bohemiancoding.com/sketch -->
    <title>Page 1</title>
    <desc>Created with Sketch.</desc>
    <defs></defs>
    <g id="Page-1" stroke="none" stroke-width="1" fill="none" fill-rule="evenodd">
        <g id="Steps-001" transform="translate(-110.000000, -24.000000)">
            <g id="Header">
                <g id="Page-1" transform="translate(110.000000, 24.000000)">
                    <path d="M161.1862,9.66829053 L161.1862,33.2416235 L283.672545,33.2416235 C287.331612,33.2416235 290.146199,30.4259969 290.146199,26.765197 L290.146199,16.2116238 C290.146199,12.5726638 287.270599,9.66829053 283.672545,9.66829053 L161.1862,9.66829053 Z" id="Fill-1" fill="#FDC364"></path>
                    <polygon id="Fill-3" fill="#FFFFFF" points="124.553518 33.2415195 129.753518 33.2415195 129.753518 0.502319993 124.553518 0.502319993"></polygon>
                    <polygon id="Fill-4" fill="#FFFFFF" points="64.2376791 33.2415195 69.437679 33.2415195 69.437679 9.67373319 64.2376791 9.67373319"></polygon>
                    <polygon id="Fill-5" fill="#FFFFFF" points="27.6057596 33.2415195 32.8057595 33.2415195 32.8057595 9.67373319 27.6057596 9.67373319"></polygon>
                    <g id="Group-10" transform="translate(96.719999, 9.658133)" fill="#FFFFFF">
                        <path d="M43.4376794,0.0101573332 C39.8396261,0.0101573332 36.9640261,2.91453062 36.9640261,6.55349057 L36.9640261,17.1070638 C36.9640261,20.7678637 39.7786128,23.5834903 43.4376794,23.5834903 L60.5373591,23.5834903 L60.5373591,0.0101573332 L43.4376794,0.0101573332 Z M55.3377059,18.3938904 L44.9009594,18.3938904 C43.5215727,18.3938904 42.1643727,17.0377304 42.1643727,15.6597304 L42.1643727,7.66178389 C42.1643727,6.34514391 43.4210394,5.22055726 44.9009594,5.22055726 L55.3377059,5.22055726 L55.3377059,18.3938904 Z" id="Fill-6"></path>
                        <path d="M6.8059679,0.0101573332 C3.20791462,0.0101573332 0.332314662,2.91453062 0.332314662,6.55349057 L0.332314662,17.1070638 C0.332314662,20.7678637 3.14655462,23.5834903 6.8059679,23.5834903 L23.9056477,23.5834903 L23.9056477,0.0101573332 L6.8059679,0.0101573332 Z M18.7059944,18.3938904 L8.26890121,18.3938904 C6.88986123,18.3938904 5.53266125,17.0377304 5.53266125,15.6597304 L5.53266125,7.66178389 C5.53266125,6.34514391 6.7893279,5.22055726 8.26890121,5.22055726 L18.7059944,5.22055726 L18.7059944,18.3938904 Z" id="Fill-8"></path>
                    </g>
                    <polygon id="Fill-11" fill="#FFFFFF" points="73.3709589 33.2415195 78.5709589 33.2415195 78.5709589 0.502319993 73.3709589 0.502319993"></polygon>
                    <polygon id="Fill-12" fill="#FFFFFF" points="95.0854306 9.66690386 88.3334041 9.66690386 78.5709242 21.454957 88.3323641 33.2416235 95.0843906 33.2416235 85.3226041 21.454957"></polygon>
                    <g id="Group-17" transform="translate(36.746666, 9.658133)" fill="#FFFFFF">
                        <path d="M23.573333,0.0101573332 L6.47365324,0.0101573332 C2.87559996,0.0101573332 0,2.91453062 0,6.55349057 L0,17.1070638 C0,20.7678637 2.81458663,23.5834903 6.47365324,23.5834903 L23.573333,23.5834903 L23.573333,0.0101573332 Z M5.20034659,15.6597304 L5.20034659,7.66178389 C5.20034659,6.34514391 6.45735991,5.22055726 7.93693322,5.22055726 L18.3736797,5.22055726 L18.3736797,18.3938904 L7.93693322,18.3938904 C6.55754657,18.3938904 5.20034659,17.0377304 5.20034659,15.6597304 L5.20034659,15.6597304 Z" id="Fill-13"></path>
                        <path d="M18.3728131,17.7438904 L18.3728131,24.781917 C18.3728131,26.1613036 17.0166531,27.5185036 15.6386531,27.5185036 L10.4809465,27.5185036 L5.19809326,27.5174636 L9.12859987,32.7188502 L17.0863331,32.7188502 C20.7467864,32.7188502 23.562413,29.9042636 23.562413,26.245197 L23.562413,17.7438904 L18.3728131,17.7438904 Z" id="Fill-15"></path>
                    </g>
                    <polygon id="Fill-18" fill="#FFFFFF" points="27.5984796 5.69746659 32.7984795 5.69746659 32.7984795 0.499199993 27.5984796 0.499199993"></polygon>
                    <polygon id="Fill-19" fill="#FFFFFF" points="64.2376791 5.69746659 69.437679 5.69746659 69.437679 0.499199993 64.2376791 0.499199993"></polygon>
                    <g id="Group-24" transform="translate(0.000000, 0.298133)">
                        <path d="M18.4676264,0.201135997 L18.4676264,9.25052253 L18.4676264,9.37012253 L6.56829324,9.37012253 C2.90922663,9.37012253 0.0946399986,12.1857492 0.0946399986,15.8465491 L0.0946399986,26.4001223 C0.0946399986,30.0390822 2.97023996,32.9434555 6.56829324,32.9434555 L23.667973,32.9434555 L23.667973,10.4066559 L23.667973,9.22140253 L23.667973,0.201135997 L18.4676264,0.201135997 Z M18.4683197,27.7330556 L8.03157322,27.7330556 C6.55199991,27.7330556 5.29498659,26.608469 5.29498659,25.291829 L5.29498659,25.0280156 C5.29463992,25.0179623 5.29325326,25.007909 5.29325326,24.9982023 L5.29325326,17.0002558 C5.29325326,15.6836158 6.55026657,14.5590291 8.02983989,14.5590291 L18.4665864,14.5590291 L18.4665864,14.5597225 L18.4683197,14.5597225 L18.4683197,27.7330556 Z" id="Fill-20" fill="#FFFFFF"></path>
                        <path d="M165.915288,24.956117 L168.168622,23.8024103 C168.439022,24.902037 169.232195,25.6771836 170.800515,25.6771836 C172.170542,25.6771836 172.891955,25.1003303 173.036168,24.361237 C173.252488,23.3517437 172.242648,22.972837 170.800515,22.486117 C168.835608,21.8191304 167.105048,20.846037 167.537688,18.4120904 C167.970328,15.9965171 170.097475,14.9509705 172.134488,14.9509705 C174.225928,14.9509705 175.740168,16.0145438 176.371101,17.7631304 L174.189875,18.9168371 C173.793288,17.9794504 173.162008,17.3485171 171.936195,17.3485171 C170.908675,17.3485171 170.223662,17.8352371 170.061422,18.5563037 C169.863128,19.5297437 170.800515,19.944357 172.206595,20.4491037 C173.991582,21.080037 176.064648,21.8732104 175.577928,24.577557 C175.163315,26.8849703 173.180382,28.0747303 170.602568,28.0747303 C167.988355,28.0747303 166.365955,26.8308903 165.915288,24.956117" id="Fill-22" fill="#FEFEFE"></path>
                    </g>
                    <polygon id="Fill-25" fill="#FEFEFE" points="180.228843 17.8809624 179.742123 20.5849624 184.537216 20.5849624 184.104576 22.9104023 179.345536 22.9104023 178.840789 25.7409356 184.158656 25.7409356 183.744043 28.1204556 175.938149 28.1204556 178.155776 15.5014424 185.871189 15.5014424 185.456576 17.8809624"></polygon>
                    <polygon id="Fill-26" fill="#FEFEFE" points="192.540917 25.740901 192.126304 28.1204209 184.825157 28.1204209 185.239771 25.740901 187.042784 15.5014078 189.530464 15.5014078 187.727797 25.740901"></polygon>
                    <polygon id="Fill-27" fill="#FEFEFE" points="200.580602 25.740901 200.165989 28.1204209 192.864843 28.1204209 193.279456 25.740901 195.082469 15.5014078 197.570149 15.5014078 195.767483 25.740901"></polygon>
                    <polygon id="Fill-28" fill="#FEFEFE" points="205.195256 17.8809624 204.708536 20.5849624 209.503629 20.5849624 209.070989 22.9104023 204.311949 22.9104023 203.807202 25.7409356 209.125069 25.7409356 208.710456 28.1204556 200.904562 28.1204556 203.122189 15.5014424 210.837602 15.5014424 210.422989 17.8809624"></polygon>
                    <g id="Group-33" transform="translate(209.733330, 15.204800)" fill="#FEFEFE">
                        <path d="M7.75607722,8.21048788 L9.66690386,12.9157945 L7.14317056,12.9157945 L5.39458392,8.53531454 L3.32151729,8.53531454 L2.54637063,12.9157945 L0.0583439992,12.9157945 L2.27562397,0.296434662 L7.19725056,0.296434662 C9.4866372,0.296434662 11.1995172,2.3518213 10.7845572,4.6592346 C10.4784505,6.35374124 9.3243972,7.65166122 7.75607722,8.21048788 M6.78263724,2.6222213 L4.34903727,2.6222213 L3.70007728,6.35374124 L6.25986391,6.35374124 C7.2873839,6.35374124 8.13463722,5.52451459 8.31490388,4.47896794 C8.49517055,3.43342128 7.86423722,2.6222213 6.78263724,2.6222213" id="Fill-29"></path>
                        <path d="M14.8583411,6.42584791 C15.4712478,2.73003463 18.6259144,0.0440613327 22.3217277,0.0440613327 C24.791381,0.0440613327 26.5399676,1.21579465 27.3691943,3.03683462 L25.0978343,4.22659461 C24.5930876,3.16267462 23.6376743,2.4599813 22.087381,2.4599813 C19.6718077,2.4599813 17.7426077,4.17251461 17.3279944,6.60611457 C16.8953544,9.0400612 18.2296744,10.7342212 20.5551144,10.7342212 C22.141461,10.7342212 23.385301,10.0495545 24.2145277,8.89584787 L26.251541,10.2114479 C24.899541,12.0321412 22.736341,13.1681678 20.3928744,13.1681678 C16.4987678,13.1681678 14.2274078,10.0852612 14.8583411,6.42584791" id="Fill-31"></path>
                    </g>
                    <polygon id="Fill-34" fill="#FEFEFE" points="240.653431 17.8809624 240.166711 20.5849624 244.961804 20.5849624 244.529164 22.9104023 239.770125 22.9104023 239.265378 25.7409356 244.583244 25.7409356 244.168631 28.1204556 236.362738 28.1204556 238.580365 15.5014424 246.295778 15.5014424 245.881164 17.8809624"></polygon>
                    <polygon id="Fill-35" fill="#FEFEFE" points="247.467442 15.5013731 249.342215 15.5013731 253.398562 23.379373 254.768588 15.5013731 257.256268 15.5013731 255.038988 28.1203863 253.164215 28.1203863 249.125895 20.2423864 247.737842 28.1203863 245.250162 28.1203863"></polygon>
                    <polygon id="Fill-36" fill="#FEFEFE" points="266.86417 17.8809624 263.456783 17.8809624 261.654116 28.1204556 259.166436 28.1204556 260.96945 17.8809624 257.58009 17.8809624 257.994703 15.5014424 267.278783 15.5014424"></polygon>
                    <polygon id="Fill-37" fill="#FEFEFE" points="270.072708 17.8809624 269.585988 20.5849624 274.381081 20.5849624 273.948441 22.9104023 269.189401 22.9104023 268.684655 25.7409356 274.002521 25.7409356 273.587908 28.1204556 265.782015 28.1204556 267.999641 15.5014424 275.715055 15.5014424 275.300441 17.8809624"></polygon>
                    <path d="M282.36686,23.4152877 L284.277687,28.1205943 L281.753953,28.1205943 L280.005367,23.7401143 L277.9323,23.7401143 L277.157153,28.1205943 L274.669127,28.1205943 L276.886407,15.5012344 L281.808033,15.5012344 C284.09742,15.5012344 285.8103,17.5566211 285.39534,19.8640344 C285.089233,21.558541 283.93518,22.856461 282.36686,23.4152877 M281.39342,17.8270211 L278.95982,17.8270211 L278.31086,21.558541 L280.870647,21.558541 C281.898167,21.558541 282.74542,20.7293144 282.925687,19.6837677 C283.105953,18.6382211 282.47502,17.8270211 281.39342,17.8270211" id="Fill-38" fill="#FEFEFE"></path>
                </g>
            </g>
        </g>
    </g>
</svg>