<svg xmlns="http://www.w3.org/2000/svg" width="75" height="25" viewBox="0 0 75 25">
    <g fill="none" fill-rule="evenodd">
        <path d="M0 0h72v20H0z"/>
        <g fill="#FB3448" fill-rule="nonzero">
            <path d="M68.262 9.237a127.388 127.388 0 0 1 1.258-1.28c.223.215.436.422.64.622.204.2.421.42.652.658-.215.208-.425.416-.629.623a21.76 21.76 0 0 1-.663.647l-1.258-1.27zM65.712 9.237a127.388 127.388 0 0 1 1.258-1.28c.223.215.436.422.64.622.204.2.421.42.652.658-.215.208-.425.416-.629.623a21.76 21.76 0 0 1-.663.647l-1.258-1.27zM70.812 9.237a127.388 127.388 0 0 1 1.258-1.28c.223.215.437.422.64.622.204.2.422.42.652.658-.215.208-.425.416-.628.623a21.76 21.76 0 0 1-.664.647l-1.258-1.27zM37.66 13.063a127.388 127.388 0 0 1 1.257-1.281c.223.215.437.423.64.623.204.2.422.42.653.658-.216.207-.425.415-.63.623a21.76 21.76 0 0 1-.663.646l-1.258-1.27zM35.11 13.063a127.392 127.392 0 0 1 1.257-1.281c.223.215.437.423.64.623.204.2.422.42.652.658-.215.207-.425.415-.629.623a21.76 21.76 0 0 1-.663.646l-1.258-1.27zM27.459 13.063a127.38 127.38 0 0 1 1.257-1.281c.223.215.437.423.64.623.205.2.422.42.653.658-.216.207-.425.415-.63.623-.203.207-.424.423-.663.646l-1.257-1.27zM8.97 18.482a127.382 127.382 0 0 1 1.257-1.281c.223.215.437.423.64.623.205.2.422.42.653.658-.216.207-.425.415-.63.623-.203.208-.424.423-.663.646l-1.258-1.27zM6.42 18.482A127.382 127.382 0 0 1 7.676 17.2c.223.215.437.423.64.623.204.2.422.42.652.658-.215.207-.425.415-.628.623-.204.208-.426.423-.664.646l-1.258-1.27zM51.048 8.28A127.387 127.387 0 0 1 52.306 7c.223.215.436.423.64.623.204.2.421.42.652.658-.215.208-.425.415-.629.623a21.76 21.76 0 0 1-.663.646l-1.258-1.27zM3.55 9.237a127.38 127.38 0 0 1 1.258-1.28c.223.215.437.422.64.622.204.2.422.42.652.658-.215.208-.425.416-.628.623-.204.208-.425.423-.664.647L3.55 9.237z"/>
            <path d="M48.817 16.245a2.33 2.33 0 0 1-.836-.23c-.27-.13-.52-.305-.753-.524a3.207 3.207 0 0 1-.75.52c-.267.133-.778.21-1.53.234h-9.839v-1.322h9.838c.58-.019.927-.057 1.041-.117a1.037 1.037 0 0 0 .507-.565 1.2 1.2 0 0 0 .075-.435V11.26h1.308v2.547a1.153 1.153 0 0 0 .285.77c.084.094.183.171.297.23.115.06.233.098.357.117v.007h1.246a4.593 4.593 0 0 1-.178-.593 2.366 2.366 0 0 1-.062-.51v-1.294c0-.334.064-.647.192-.939a2.467 2.467 0 0 1 1.291-1.288 2.34 2.34 0 0 1 .942-.191c.333 0 .647.064.942.192a2.467 2.467 0 0 1 1.29 1.287c.128.292.192.605.192.939v1.294c0 .155-.021.325-.065.51a5.037 5.037 0 0 1-.181.593h6.923c.192 0 .36-.029.504-.086a.975.975 0 0 0 .352-.23.958.958 0 0 0 .206-.325 1.03 1.03 0 0 0-.004-.753 1.005 1.005 0 0 0-.565-.579 1.267 1.267 0 0 0-.493-.089h-3.774a1.757 1.757 0 0 1-.53-.051 1.253 1.253 0 0 1-.439-.206.969.969 0 0 1-.407-.812v-.081a1.525 1.525 0 0 1 .106-.483 2.382 2.382 0 0 1 .387-.637c.082-.098.169-.2.26-.305a2.75 2.75 0 0 0 .069-.096l.986-1.123c.329-.374.657-.751.986-1.13a103.147 103.147 0 0 0 .986.85l-2.39 2.752h3.788a2.453 2.453 0 0 1 1.732.692c.215.21.384.455.507.736.123.281.185.574.185.88 0 .265-.087.624-.26 1.076h.9c.123-.019.238-.071.352-.13a1.036 1.036 0 0 0 .507-.565 1.2 1.2 0 0 0 .075-.435v-2.548h1.308V13.8c0 .178.032.337.096.479a1.066 1.066 0 0 0 .603.575 1.131 1.131 0 0 0 .808 0 1.066 1.066 0 0 0 .602-.575c.064-.142.096-.301.096-.48v-2.547h1.315V13.8c0 .178.031.336.093.476a1.065 1.065 0 0 0 .596.571c.13.05.263.078.4.083.137-.005.27-.032.4-.083a1.075 1.075 0 0 0 .6-.571c.064-.14.096-.298.096-.476v-2.548h1.308v2.575c0 .324-.065.629-.195.914-.13.286-.305.537-.524.754-.22.216-.473.391-.76.524a2.5 2.5 0 0 1-.911.226 2.472 2.472 0 0 1-.931-.216 3.08 3.08 0 0 1-.836-.545 2.51 2.51 0 0 1-.846.555c-.299.114-.601.183-.907.206a2.408 2.408 0 0 1-.911-.202 2.835 2.835 0 0 1-.843-.559 3.178 3.178 0 0 1-.753.52 2.29 2.29 0 0 1-.838.24H48.817zm2.328-2.439c0 .178.031.337.093.476a1.065 1.065 0 0 0 .599.576c.132.052.267.08.404.085h-.007c.142.01.279-.008.411-.051a.996.996 0 0 0 .61-.565c.063-.146.095-.32.095-.52v-1.24c0-.201-.032-.375-.095-.52a1.044 1.044 0 0 0-.25-.36.999.999 0 0 0-.357-.21 1.142 1.142 0 0 0-.407-.06 1.33 1.33 0 0 0-.404.092 1.065 1.065 0 0 0-.6.575c-.061.14-.092.3-.092.483v1.24z"/>
            <path d="M55.59 11.224a1.445 1.445 0 0 1-.055-.63 1.806 1.806 0 0 1 .304-.784c.076-.112.159-.221.25-.329.092-.107.185-.218.281-.332l1.671-1.924.576.513-3.028 3.486zM32.681 8.095v5.684c0 .215-.005.435-.014.66-.009.227-.032.45-.068.669-.037.219-.09.428-.161.626-.07.199-.168.376-.291.531a14.08 14.08 0 0 0-.439-.253 26.834 26.834 0 0 1-.424-.24c.027-.146.049-.306.065-.48.016-.173.024-.362.024-.568v-.15a.92.92 0 0 0-.014-.165V8.095h1.322zM9.317 14.93c.58-.019.927-.057 1.041-.117a1.036 1.036 0 0 0 .507-.565 1.2 1.2 0 0 0 .076-.435v-2.547h1.308v2.547a1.153 1.153 0 0 0 .284.77 1.125 1.125 0 0 0 .654.346h9.646c.192 0 .36-.028.504-.085a.975.975 0 0 0 .352-.23.958.958 0 0 0 .206-.325 1.03 1.03 0 0 0-.004-.753 1.005 1.005 0 0 0-.565-.579 1.267 1.267 0 0 0-.493-.089H19.06a1.757 1.757 0 0 1-.53-.051 1.253 1.253 0 0 1-.439-.206.969.969 0 0 1-.407-.812v-.081a1.525 1.525 0 0 1 .106-.483 2.382 2.382 0 0 1 .387-.637c.082-.098.169-.2.26-.305a2.75 2.75 0 0 0 .069-.096l.986-1.123c.329-.374.657-.751.986-1.13a103.133 103.133 0 0 0 .986.85l-2.39 2.752h3.788a2.453 2.453 0 0 1 1.732.692c.215.21.384.455.507.736.123.281.185.574.185.88 0 .265-.087.624-.26 1.076h4.972v1.315h-16.81v.006a2.33 2.33 0 0 1-.836-.229c-.269-.13-.52-.305-.753-.524a3.207 3.207 0 0 1-.75.52c-.267.133-.777.21-1.53.233v-.006H5.163a6.526 6.526 0 0 1-.202.808c-.08.246-.177.456-.291.63a2.657 2.657 0 0 1-1.01.866c-.432.222-.965.332-1.6.332A5.639 5.639 0 0 1 1 18.78v-1.267c.16.054.326.094.5.12.173.025.345.037.514.037.219 0 .432-.025.64-.075.208-.05.397-.13.568-.237a1.485 1.485 0 0 0 .682-1.044c.023-.324.042-.662.058-1.014.016-.351.024-.719.024-1.102v-.288c0-.11-.002-.208-.007-.294v-2.363h1.322v2.87l-.003.27-.007.28-.01.258h4.036z"/>
            <path d="M17.073 11.224a1.445 1.445 0 0 1-.054-.63 1.806 1.806 0 0 1 .304-.784c.076-.112.159-.221.25-.329.092-.107.185-.218.281-.332l1.671-1.924.575.513-3.027 3.486z"/>
        </g>
    </g>
</svg>
