<?xml version="1.0" encoding="UTF-8"?>
<svg width="24px" height="24px" viewBox="0 0 24 24" version="1.1" xmlns="http://www.w3.org/2000/svg" xmlns:xlink="http://www.w3.org/1999/xlink">
    <title>DK Logo Colored</title>
    <defs>
        <linearGradient x1="99.9752205%" y1="0%" x2="0.0247795378%" y2="100%" id="linearGradient-1">
            <stop stop-color="#D22C4E" offset="0%"></stop>
            <stop stop-color="#EE384E" offset="41.6769953%"></stop>
            <stop stop-color="#EF5662" offset="100%"></stop>
        </linearGradient>
    </defs>
    <g id="Page-1" stroke="none" stroke-width="1" fill="none" fill-rule="evenodd">
        <g id="Group">
            <path d="M1.2405913,0 C0.555443478,0 0,0.55533913 0,1.2405913 L0,1.2405913 L0.00605217391,22.763687 C0.00834782609,23.4471652 0.56306087,24 1.24653913,24 L1.24653913,24 L15.1309565,24 C20.025913,24 23.9940522,20.0317565 23.9940522,15.1369043 L23.9940522,15.1369043 L23.9940522,8.86309565 C23.9940522,3.96813913 20.025913,0 15.1309565,0 L15.1309565,0 L1.2405913,0 Z" id="Fill-1" fill="url(#linearGradient-1)"></path>
            <path d="M11.997047,15.8543478 C9.36748174,15.8543478 6.88327304,14.6748 5.21798609,12.6669391 C4.96901217,12.3666261 5.03318609,11.9163652 5.35269913,11.6927478 L6.46817739,10.9125391 C6.75273391,10.7132348 7.13871652,10.7681217 7.36536,11.0313913 C8.52017739,12.3732 10.2104035,13.1584174 11.997047,13.1584174 C13.7837948,13.1584174 15.4740209,12.3732 16.6287339,11.0313913 C16.8553774,10.7681217 17.24136,10.7132348 17.5260209,10.9125391 L18.6413948,11.6927478 C18.9610122,11.9163652 19.0251861,12.3666261 18.7761078,12.6669391 C17.1109252,14.6748 14.6266122,15.8543478 11.997047,15.8543478" id="Fill-4" fill="#FFFFFF"></path>
        </g>
    </g>
</svg>