<svg xmlns="http://www.w3.org/2000/svg" width="45" height="40" viewBox="0 0 45 40">
    <g fill="none" fill-rule="evenodd">
        <path fill="#303134" fill-rule="nonzero" d="M45 0v40H2.5a2 2 0 0 1-1.951-2.439L4.4 20.439a2 2 0 0 0 0-.878L.55 2.439A2 2 0 0 1 2.5 0H45z"/>
        <path fill="#FFF" d="M25.72 9.595l1.79 3.011 3.418.777-.322 3.484 2.31 2.633-2.31 2.633.322 3.484-3.419.777-1.79 3.011-3.219-1.382-3.22 1.392-1.79-3.012-3.418-.776.322-3.494-2.31-2.633 2.31-2.642-.322-3.485 3.419-.767 1.79-3.011 3.219 1.382 3.22-1.382zm.94 4.697L22.5 18.45l-4.16-4.16-1.048 1.05L21.45 19.5l-4.16 4.16 1.05 1.048L22.5 20.55l4.16 4.16 1.048-1.05L23.55 19.5l4.16-4.16-1.05-1.048z"/>
    </g>
</svg>
