<svg xmlns="http://www.w3.org/2000/svg" xmlns:xlink="http://www.w3.org/1999/xlink" width="476" height="370" viewBox="0 0 476 370">
    <defs>
        <linearGradient id="5ood24ymqa" x1="77.822%" x2="22.178%" y1="0%" y2="100%">
            <stop offset="0%" stop-color="#D22C4E"/>
            <stop offset="41.677%" stop-color="#EE384E"/>
            <stop offset="100%" stop-color="#EF5662"/>
        </linearGradient>
        <linearGradient id="xtis6zz7zf" x1="50%" x2="50%" y1="0%" y2="100%">
            <stop offset="0%" stop-color="#91CBE3"/>
            <stop offset="100%" stop-color="#589CC3"/>
        </linearGradient>
        <linearGradient id="rxnqiv2hkg" x1="50%" x2="50%" y1="0%" y2="100%">
            <stop offset="0%" stop-color="#91CBE3"/>
            <stop offset="100%" stop-color="#589CC3"/>
        </linearGradient>
        <linearGradient id="aok20kjirh" x1="77.969%" x2="22.031%" y1="0%" y2="100%">
            <stop offset="0%" stop-color="#D22C4E"/>
            <stop offset="41.677%" stop-color="#EE384E"/>
            <stop offset="100%" stop-color="#EF5662"/>
        </linearGradient>
        <linearGradient id="o48jcuz0bi" x1="77.822%" x2="22.178%" y1="0%" y2="100%">
            <stop offset="0%" stop-color="#D22C4E"/>
            <stop offset="41.677%" stop-color="#EE384E"/>
            <stop offset="100%" stop-color="#EF5662"/>
        </linearGradient>
        <linearGradient id="r9oxle2j9j" x1="77.822%" x2="22.178%" y1="0%" y2="100%">
            <stop offset="0%" stop-color="#D22C4E"/>
            <stop offset="41.677%" stop-color="#EE384E"/>
            <stop offset="100%" stop-color="#EF5662"/>
        </linearGradient>
        <linearGradient id="bipwgc1kwk" x1="77.822%" x2="22.178%" y1="0%" y2="100%">
            <stop offset="0%" stop-color="#D22C4E"/>
            <stop offset="41.677%" stop-color="#EE384E"/>
            <stop offset="100%" stop-color="#EF5662"/>
        </linearGradient>
        <linearGradient id="p4sw03cvdl" x1="77.969%" x2="22.031%" y1="0%" y2="100%">
            <stop offset="0%" stop-color="#D22C4E"/>
            <stop offset="41.677%" stop-color="#EE384E"/>
            <stop offset="100%" stop-color="#EF5662"/>
        </linearGradient>
        <path id="p8g1jg7vqb" d="M50.94 25.46L2.123 1.011 2.123 29.193 50.94 53.643z"/>
        <path id="th3u2ilhbd" d="M50.714 25.349L1.896 0.895 1.896 51.739 50.714 76.188 50.714 25.349z"/>
    </defs>
    <g fill="none" fill-rule="evenodd">
        <g>
            <g>
                <g>
                    <g>
                        <g>
                            <path fill="#BBBFBC" d="M181.296 223.68l-13.16 6.591 13.16 6.592 13.16-6.592-13.16-6.592zm65.359 4.192l-5.3 2.659 5.3 2.654 5.304-2.654-5.304-2.66zm-116.604-3.035l-5.3 2.655 5.3 2.659 5.304-2.66-5.304-2.654zm188.335-3.136l-5.304 2.66 5.304 2.654 5.299-2.655-5.3-2.659zm-232.843-9.023l-5.3 2.654 5.3 2.654 5.304-2.654-5.304-2.654zm270.807-11.27l-13.16 6.591 13.16 6.592 13.16-6.592-13.16-6.592zm-83.929 2.584l-4.81 2.409 4.81 2.409 4.81-2.409-4.81-2.409zm38.705-18.936l-13.16 6.591 13.16 6.592 13.16-6.592-13.16-6.591zm117.602-7.63l-4.809 2.409 4.81 2.409 4.808-2.41-4.809-2.408zM381.52 173.6l-4.805 2.409 4.805 2.408 4.809-2.408-4.81-2.41zM91.379 162.367l-5.304 2.659 5.304 2.654 5.3-2.654-5.3-2.66zm318.667-6.138l-4.804 2.409 4.804 2.408 4.81-2.408-4.81-2.41zm50.289-19.697l-13.156 6.592 13.156 6.592 13.16-6.592-13.16-6.592zm-86.847 2.845l-4.81 2.404 4.81 2.409 4.804-2.41-4.804-2.403zM320.61 110.48l-4.81 2.408 4.81 2.41 4.809-2.41-4.81-2.408zm135.193-5.198l-5.304 2.654 5.304 2.66 5.3-2.66-5.3-2.654zM34.238 89.33l-5.3 2.654 5.3 2.659 5.304-2.66-5.304-2.653zm421.8-1.177l-4.808 2.409 4.809 2.404 4.809-2.404-4.81-2.409zm13.013-41.315l-4.804 2.404 4.804 2.409 4.81-2.41-4.81-2.403zM433.82 35.864l-13.16 6.592 13.16 6.591 13.156-6.591-13.156-6.592zm-31.754-18.557l-5.304 2.654 5.304 2.655 5.304-2.655-5.304-2.654z" transform="translate(-1060 -366) translate(960) translate(100 366) translate(0 .58) translate(0 127.915)"/>
                            <path fill="#C1C600" d="M171.433 205.6l-6.576 3.293 6.576 3.298 6.58-3.298-6.58-3.293zm65.793-1.15l-6.575 3.294 6.575 3.294 6.58-3.294-6.58-3.293zm-30.173-8.069l-6.58 3.299 6.58 3.293 6.58-3.293-6.58-3.299zm-63.689-2.862l-6.58 3.293 6.58 3.294 6.58-3.294-6.58-3.293zM370.565 79.968l27.38-13.716.254.13 17.188-8.612 19.741 9.885-17.193 8.612 23.838 11.937-48.494 24.292 9.383 4.701-15.422 7.722 17.937 8.987-32.896 16.477-17.443-8.737-26.108 13.077 10.47 5.244-32.897 16.477-32.902-16.477 24.148-12.095-42.608 21.341-27.278-13.665-18.58 9.31 10.64 5.328-47.81 23.949-32.896-16.477 41.581-20.827-10.64-5.332 24.809-12.428-51.403-25.746 3.783-1.895-7.02-2.45-6.39-4.058-44.832 22.452-45.47-22.772 43.639-21.86-14.465-7.244-9.692 4.859L30.02 63.88l32.897-16.477 6.506 3.256 13.184-6.6-24.509-12.276 32.897-16.477 45.206 22.638 17.36-8.695 1.498.75L212.93 1.011l157.634 78.957zm-131.53 98.361l-13.161 6.592 13.16 6.592 13.156-6.592-13.156-6.592zm37.34 3.614l-6.58 3.293 6.58 3.298 6.58-3.298-6.58-3.293zm59.93-9.45l-6.58 3.293 6.58 3.294 6.575-3.294-6.576-3.293zm26.843-17.348l-6.58 3.293 6.58 3.299 6.58-3.299-6.58-3.293zm58.5-18.853l-6.58 3.293 6.58 3.298 6.576-3.298-6.575-3.293zm-364.72-13.819l-13.16 6.592 13.16 6.592 13.161-6.592-13.16-6.592zm369.618-8.365l-13.16 6.591 13.16 6.592 13.155-6.592-13.155-6.591zm3.88-16.913l-6.58 3.298 6.58 3.294 6.58-3.294-6.58-3.298zM8.78 88.06l-6.58 3.298 6.58 3.294 6.58-3.294-6.58-3.298zm441.316-20.868l-6.576 3.293 6.576 3.299 6.58-3.299-6.58-3.293zm-75.523-39.638l-6.58 3.293 6.58 3.298 6.58-3.298-6.58-3.293z" transform="translate(-1060 -366) translate(960) translate(100 366) translate(0 .58) translate(0 127.915)"/>
                            <path fill="#D0D11B" d="M172.256 166.897l-19.74 9.89 19.74 9.885 19.736-9.885-19.736-9.89zm25.59-3.011l-9.872 4.943 9.872 4.942 9.869-4.942-9.869-4.943zm109.02-2.816L297 166.012l9.868 4.947 9.868-4.947-9.868-4.942zM205.496 131.51l-19.74 9.885 19.74 9.886 19.736-9.886-19.736-9.885zm166.25-7.74l-19.742 9.885 19.741 9.885 19.736-9.885-19.736-9.885zm-153.427-12.957l-13.16 6.592 13.16 6.591 13.156-6.591-13.156-6.592zm163.673.361l-9.868 4.948 9.868 4.942 9.868-4.942-9.868-4.948zm-61.381-4.97l-9.868 4.947 9.868 4.943 9.868-4.943-9.868-4.947zm29.428-.713l-9.868 4.942 9.868 4.943 9.868-4.943-9.868-4.942zm-252.403-1.02l-9.872 4.943 9.872 4.943 9.868-4.943-9.868-4.943zm-24.832-3.052l-9.872 4.942 9.872 4.943 9.868-4.943-9.868-4.942zm60.041-3.924l-9.873 4.943 9.873 4.943 9.868-4.943-9.868-4.943zm277.854-19.265l-19.74 9.885 19.74 9.89 19.737-9.89-19.737-9.885zm-297.29-2.224l-19.74 9.885 19.74 9.886 19.737-9.886-19.736-9.885zM63.18 53.087l-19.736 9.885 19.736 9.885 19.737-9.885-19.737-9.885zm30.381-31.088l-19.74 9.886 19.74 9.885 19.737-9.885-19.737-9.886z" transform="translate(-1060 -366) translate(960) translate(100 366) translate(0 .58) translate(0 127.915)"/>
                        </g>
                        <g>
                            <g>
                                <g>
                                    <path fill="#91531F" d="M9.818 0.899L5.952 2.835 5.952 41.033 9.818 39.096z" transform="translate(-1060 -366) translate(960) translate(100 366) translate(0 .58) translate(35.208) translate(0 101.91) translate(18.497 50.955)"/>
                                    <path fill="#AB6A30" d="M5.952 2.835L2.082 0.899 2.082 39.096 5.952 41.033z" transform="translate(-1060 -366) translate(960) translate(100 366) translate(0 .58) translate(35.208) translate(0 101.91) translate(18.497 50.955)"/>
                                </g>
                                <g>
                                    <path fill="#9AB650" d="M48.074 12.258L24.449 24.093 24.449 48.325 48.074 36.494z" transform="translate(-1060 -366) translate(960) translate(100 366) translate(0 .58) translate(35.208) translate(0 101.91) translate(0 26.005)"/>
                                    <path fill="#79913C" d="M24.449 24.093L0.824 12.258 0.824 36.494 24.449 48.325z" transform="translate(-1060 -366) translate(960) translate(100 366) translate(0 .58) translate(35.208) translate(0 101.91) translate(0 26.005)"/>
                                    <path fill="#C4D44F" d="M24.449 0.427L0.824 12.258 24.449 24.093 48.074 12.258z" transform="translate(-1060 -366) translate(960) translate(100 366) translate(0 .58) translate(35.208) translate(0 101.91) translate(0 26.005)"/>
                                </g>
                                <g>
                                    <path fill="#9AB650" d="M33.928 8.672L18.039 16.631 18.039 34.067 33.928 26.108 33.928 8.672z" transform="translate(-1060 -366) translate(960) translate(100 366) translate(0 .58) translate(35.208) translate(0 101.91) translate(6.41 12.108)"/>
                                    <path fill="#79913C" d="M18.039 16.631L2.15 8.672 2.15 26.164 18.039 34.117 18.039 16.631z" transform="translate(-1060 -366) translate(960) translate(100 366) translate(0 .58) translate(35.208) translate(0 101.91) translate(6.41 12.108)"/>
                                    <path fill="#C4D44F" d="M18.039 0.714L2.15 8.672 18.039 16.631 33.928 8.672 18.039 0.714z" transform="translate(-1060 -366) translate(960) translate(100 366) translate(0 .58) translate(35.208) translate(0 101.91) translate(6.41 12.108)"/>
                                </g>
                                <g>
                                    <path fill="#9AB650" d="M21.217 5.892L10.576 11.224 10.576 25.084 21.217 19.757z" transform="translate(-1060 -366) translate(960) translate(100 366) translate(0 .58) translate(35.208) translate(0 101.91) translate(13.873)"/>
                                    <path fill="#79913C" d="M10.576 11.224L0.445 6.147 0.445 20.007 10.576 25.084z" transform="translate(-1060 -366) translate(960) translate(100 366) translate(0 .58) translate(35.208) translate(0 101.91) translate(13.873)"/>
                                    <path fill="#C4D44F" d="M11.08 0.82L0.445 6.147 10.576 11.224 21.217 5.892 11.08 0.82z" transform="translate(-1060 -366) translate(960) translate(100 366) translate(0 .58) translate(35.208) translate(0 101.91) translate(13.873)"/>
                                </g>
                            </g>
                            <g>
                                <path fill="#D2AD7D" d="M31.657 1.834L1.188 17.098 24.693 28.873 55.167 13.61z" transform="translate(-1060 -366) translate(960) translate(100 366) translate(0 .58) translate(35.208) translate(325.48 157.497)"/>
                                <path fill="#C49455" d="M24.693 28.873L1.188 17.098 1.188 40.051 24.693 51.826z" transform="translate(-1060 -366) translate(960) translate(100 366) translate(0 .58) translate(35.208) translate(325.48 157.497)"/>
                                <path fill="#CBA16A" d="M55.167 13.61L24.693 28.873 24.693 51.868 55.167 36.604z" transform="translate(-1060 -366) translate(960) translate(100 366) translate(0 .58) translate(35.208) translate(325.48 157.497)"/>
                                <path fill="#2A2A2A" d="M55.167 13.61L47.671 17.362 47.671 40.361 55.167 36.604z" transform="translate(-1060 -366) translate(960) translate(100 366) translate(0 .58) translate(35.208) translate(325.48 157.497)"/>
                                <path fill="#3E3E3E" d="M31.602 1.807L24.106 5.559 47.671 17.362 55.167 13.61z" transform="translate(-1060 -366) translate(960) translate(100 366) translate(0 .58) translate(35.208) translate(325.48 157.497)"/>
                                <path fill="#FFF" fill-opacity=".3" d="M40.323 6.189L9.877 21.438 16.027 24.523 46.478 9.269 40.323 6.189z" transform="translate(-1060 -366) translate(960) translate(100 366) translate(0 .58) translate(35.208) translate(325.48 157.497)"/>
                                <path fill="#FFF" fill-opacity=".3" d="M16.027 24.523L9.877 21.438 9.877 44.414 16.027 47.499z" transform="translate(-1060 -366) translate(960) translate(100 366) translate(0 .58) translate(35.208) translate(325.48 157.497)"/>
                                <path fill="#FFF" d="M30.238 9.709L16.906 16.389 26.113 20.998 39.449 14.323z" transform="translate(-1060 -366) translate(960) translate(100 366) translate(0 .58) translate(35.208) translate(325.48 157.497)"/>
                                <path fill="url(#5ood24ymqa)" d="M39.518 27.7c2.388-1.193 4.323-.22 4.323 2.171v3.066c0 2.392-1.935 5.298-4.323 6.49l-6.773 3.383c-.334.166-.604.031-.606-.302l-.003-10.516c0-.335.271-.742.606-.909l6.776-3.384zm1.168 4.749c-.139-.028-.327.092-.438.276-.563.937-1.387 1.733-2.26 2.168-.87.435-1.695.463-2.259.089-.11-.074-.298-.006-.437.16l-.544.653c-.156.188-.188.423-.066.51.812.575 2.024.546 3.307-.095 1.283-.64 2.495-1.822 3.307-3.209.121-.207.09-.411-.066-.443l-.544-.11z" transform="translate(-1060 -366) translate(960) translate(100 366) translate(0 .58) translate(35.208) translate(325.48 157.497)"/>
                            </g>
                            <g>
                                <path fill="#D2D2D2" d="M279.672 140.353L170.786 194.889 170.786 267.565 279.672 213.029z" transform="translate(-1060 -366) translate(960) translate(100 366) translate(0 .58) translate(35.208) translate(57.276)"/>
                                <path fill="#BEBEBE" d="M170.786 194.889L4.902 111.805 4.902 184.48 170.786 267.565z" transform="translate(-1060 -366) translate(960) translate(100 366) translate(0 .58) translate(35.208) translate(57.276)"/>
                                <g>
                                    <path fill="#CCC" d="M2.919 56.992L52.726 81.932 52.726 80.894 2.919 55.935 2.919 56.992z" transform="translate(-1060 -366) translate(960) translate(100 366) translate(0 .58) translate(35.208) translate(57.276) translate(95.323 174.238)"/>
                                    <path fill="#333" d="M52.726 29.49L4.902 5.536 4.902 56.931 52.726 80.885z" transform="translate(-1060 -366) translate(960) translate(100 366) translate(0 .58) translate(35.208) translate(57.276) translate(95.323 174.238)"/>
                                    <path fill="#9B9B9B" d="M4.902 0.677L2.919 1.673 2.919 56.992 4.902 55.996 4.902 0.677z" transform="translate(-1060 -366) translate(960) translate(100 366) translate(0 .58) translate(35.208) translate(57.276) translate(95.323 174.238)"/>
                                    <path fill="#EF5662" d="M52.726 30.092L3.908 5.643 3.908 33.826 52.726 58.275z" transform="translate(-1060 -366) translate(960) translate(100 366) translate(0 .58) translate(35.208) translate(57.276) translate(95.323 174.238)"/>
                                    <g transform="translate(-1060 -366) translate(960) translate(100 366) translate(0 .58) translate(35.208) translate(57.276) translate(95.323 174.238) translate(1.786 4.632)">
                                        <mask id="h02pv6onlc" fill="#fff">
                                            <use xlink:href="#p8g1jg7vqb"/>
                                        </mask>
                                        <path fill="#AD3C44" d="M50.94 51.41L2.123 26.956v.556L50.94 51.96v-.551zm0-4.392L2.123 22.565v.555L50.94 47.57v-.552zm0-4.391L2.123 18.173v.556L50.94 43.18v-.552zm0-4.391L2.123 13.782v.556L50.94 38.79v-.555zm0-4.392L2.123 9.39v.556L50.94 34.4v-.556zm0-4.391L2.123 4.999v.556L50.94 30.009v-.556zm0-4.392L2.123.608v.555L50.94 25.617v-.556z" mask="url(#h02pv6onlc)"/>
                                    </g>
                                    <g>
                                        <path fill="#D2D2D2" d="M54.728 25.145L51.228 26.9 51.228 30.921 54.728 29.166z" transform="translate(-1060 -366) translate(960) translate(100 366) translate(0 .58) translate(35.208) translate(57.276) translate(95.323 174.238)"/>
                                        <path fill="#C8C8C8" d="M1.772 6.148L51.228 30.921 51.228 26.9 1.772 2.127z" transform="translate(-1060 -366) translate(960) translate(100 366) translate(0 .58) translate(35.208) translate(57.276) translate(95.323 174.238)"/>
                                        <path fill="#F2F2F2" d="M1.878 2.183L51.228 26.9 54.728 25.145 5.383 0.427z" transform="translate(-1060 -366) translate(960) translate(100 366) translate(0 .58) translate(35.208) translate(57.276) translate(95.323 174.238)"/>
                                    </g>
                                </g>
                                <g>
                                    <path fill="#CCC" d="M2.687 56.876L52.499 81.821 52.499 80.783 2.687 55.824z" transform="translate(-1060 -366) translate(960) translate(100 366) translate(0 .58) translate(35.208) translate(57.276) translate(21.335 137.18)"/>
                                    <path fill="#9B9B9B" d="M4.676 0.561L2.687 1.557 2.687 56.876 4.676 55.88 4.676 0.561z" transform="translate(-1060 -366) translate(960) translate(100 366) translate(0 .58) translate(35.208) translate(57.276) translate(21.335 137.18)"/>
                                    <path fill="#EF5662" d="M52.499 29.981L3.682 5.527 3.682 56.371 52.499 80.82 52.499 29.981z" transform="translate(-1060 -366) translate(960) translate(100 366) translate(0 .58) translate(35.208) translate(57.276) translate(21.335 137.18)"/>
                                    <g transform="translate(-1060 -366) translate(960) translate(100 366) translate(0 .58) translate(35.208) translate(57.276) translate(21.335 137.18) translate(1.786 4.632)">
                                        <mask id="o31dz5pjhe" fill="#fff">
                                            <use xlink:href="#th3u2ilhbd"/>
                                        </mask>
                                        <path fill="#AD3C44" d="M50.714 73.25L1.896 48.798v.556l48.818 24.45v-.552zm0-4.39L1.896 44.406v.556l48.818 24.453v-.555zm0-4.392L1.896 40.014v.556l48.818 24.454v-.556zm0-4.391L1.896 35.623v.556l48.818 24.454v-.556zm0-4.392L1.896 31.232v.555l48.818 24.454v-.556zm0-4.391L1.896 26.84v.556L50.714 51.85v-.556zm0-4.391L1.896 22.449v.556l48.818 24.453v-.555zm0-4.392L1.896 18.062v.551l48.818 24.454v-.556zm0-4.391L1.896 13.67v.552l48.818 24.454v-.556zm0-4.392L1.896 9.28v.551l48.818 24.454v-.556zm0-4.391L1.896 4.887v.552l48.818 24.454v-.556zm0-4.391L1.896.496v.552L50.714 25.5v-.555z" mask="url(#o31dz5pjhe)"/>
                                    </g>
                                    <g>
                                        <path fill="#D2D2D2" d="M54.502 25.034L50.996 26.785 50.996 30.805 54.502 29.054z" transform="translate(-1060 -366) translate(960) translate(100 366) translate(0 .58) translate(35.208) translate(57.276) translate(21.335 137.18)"/>
                                        <path fill="#C8C8C8" d="M1.541 6.037L50.996 30.805 50.996 26.785 1.541 2.016z" transform="translate(-1060 -366) translate(960) translate(100 366) translate(0 .58) translate(35.208) translate(57.276) translate(21.335 137.18)"/>
                                        <path fill="#F2F2F2" d="M1.647 2.067L50.996 26.785 54.502 25.034 5.152 0.316z" transform="translate(-1060 -366) translate(960) translate(100 366) translate(0 .58) translate(35.208) translate(57.276) translate(21.335 137.18)"/>
                                    </g>
                                </g>
                                <g>
                                    <path fill="#F2F2F2" d="M113.769 2.539L1.577 58.733 170.786 143.485 282.978 87.291z" transform="translate(-1060 -366) translate(960) translate(100 366) translate(0 .58) translate(35.208) translate(57.276) translate(0 53.798)"/>
                                    <path fill="#C8C8C8" d="M170.786 143.485L1.577 58.733 1.577 65.821 170.786 150.573zM262.4 79.676L112.673 4.679 112.673 11.767 262.4 86.759z" transform="translate(-1060 -366) translate(960) translate(100 366) translate(0 .58) translate(35.208) translate(57.276) translate(0 53.798)"/>
                                    <path fill="#E6E6E6" d="M112.673 4.679L20.018 51.09 20.018 58.173 112.673 11.767z" transform="translate(-1060 -366) translate(960) translate(100 366) translate(0 .58) translate(35.208) translate(57.276) translate(0 53.798)"/>
                                    <path fill="#EB2C3B" d="M170.129 130.432L11.611 51.039 11.611 58.122 170.129 137.519z" transform="translate(-1060 -366) translate(960) translate(100 366) translate(0 .58) translate(35.208) translate(57.276) translate(0 53.798)"/>
                                    <path fill="#EF5662" d="M112.696.408L11.611 51.04l158.518 79.393L271.209 79.8 112.696.408zm-.023 4.271L20.018 51.09l150.01 75.131 92.65-46.406L112.673 4.679z" transform="translate(-1060 -366) translate(960) translate(100 366) translate(0 .58) translate(35.208) translate(57.276) translate(0 53.798)"/>
                                    <path fill="#E6E6E6" d="M282.978 87.291L170.786 143.485 170.786 150.573 282.978 94.379z" transform="translate(-1060 -366) translate(960) translate(100 366) translate(0 .58) translate(35.208) translate(57.276) translate(0 53.798)"/>
                                    <path fill="#ED404E" d="M271.695 79.56L170.129 130.432 170.129 137.519 271.695 86.647z" transform="translate(-1060 -366) translate(960) translate(100 366) translate(0 .58) translate(35.208) translate(57.276) translate(0 53.798)"/>
                                </g>
                                <path fill="#D2D2D2" d="M197.726 52.868L124.414 89.588 124.414 144.874 197.726 108.15 197.726 52.868z" transform="translate(-1060 -366) translate(960) translate(100 366) translate(0 .58) translate(35.208) translate(57.276)"/>
                                <g>
                                    <path fill="url(#xtis6zz7zf)" d="M22.968 0.908L1.41 11.706 1.41 46.3 22.968 35.502z" transform="translate(-1060 -366) translate(960) translate(100 366) translate(0 .58) translate(35.208) translate(57.276) translate(166.471 64.852)"/>
                                    <path fill="#BEBEBE" d="M23.306 3.062L21.003 1.908 21.003 34.404 23.306 35.557z" transform="translate(-1060 -366) translate(960) translate(100 366) translate(0 .58) translate(35.208) translate(57.276) translate(166.471 64.852)"/>
                                    <path fill="#F2F2F2" d="M21.003 34.399L3.376 43.228 5.679 44.382 23.306 35.553z" transform="translate(-1060 -366) translate(960) translate(100 366) translate(0 .58) translate(35.208) translate(57.276) translate(166.471 64.852)"/>
                                    <path fill="#BEBEBE" d="M3.713 12.859L1.41 11.706 1.41 46.415 3.713 47.569z" transform="translate(-1060 -366) translate(960) translate(100 366) translate(0 .58) translate(35.208) translate(57.276) translate(166.471 64.852)"/>
                                    <path fill="#E6E6E6" d="M25.271 36.771L3.713 47.573V12.86L25.271 2.061v34.71zM5.68 14.077v30.31l17.627-8.83V5.248c-5.877 2.942-11.75 5.883-17.627 8.83z" transform="translate(-1060 -366) translate(960) translate(100 366) translate(0 .58) translate(35.208) translate(57.276) translate(166.471 64.852)"/>
                                    <path fill="#F2F2F2" d="M22.968 0.908L1.41 11.706 3.713 12.859 25.271 2.061z" transform="translate(-1060 -366) translate(960) translate(100 366) translate(0 .58) translate(35.208) translate(57.276) translate(166.471 64.852)"/>
                                </g>
                                <g>
                                    <path fill="url(#rxnqiv2hkg)" d="M23.862 0.825L2.304 11.628 2.304 46.222 23.862 35.424z" transform="translate(-1060 -366) translate(960) translate(100 366) translate(0 .58) translate(35.208) translate(57.276) translate(132.316 81.592)"/>
                                    <path fill="#BEBEBE" d="M24.195 2.984L21.896 1.831 21.896 34.321 24.195 35.475z" transform="translate(-1060 -366) translate(960) translate(100 366) translate(0 .58) translate(35.208) translate(57.276) translate(132.316 81.592)"/>
                                    <path fill="#F2F2F2" d="M21.896 34.321L4.269 43.15 6.572 44.304 24.199 35.475z" transform="translate(-1060 -366) translate(960) translate(100 366) translate(0 .58) translate(35.208) translate(57.276) translate(132.316 81.592)"/>
                                    <path fill="#BEBEBE" d="M4.606 12.777L2.304 11.623 2.304 46.337 4.606 47.491z" transform="translate(-1060 -366) translate(960) translate(100 366) translate(0 .58) translate(35.208) translate(57.276) translate(132.316 81.592)"/>
                                    <path fill="#E6E6E6" d="M26.164 36.693L4.606 47.491V12.777L26.164 1.979v34.714zM6.572 13.995v30.309l17.627-8.83V5.167c-5.877 2.946-11.755 5.887-17.627 8.829z" transform="translate(-1060 -366) translate(960) translate(100 366) translate(0 .58) translate(35.208) translate(57.276) translate(132.316 81.592)"/>
                                    <path fill="#F2F2F2" d="M23.862 0.825L2.304 11.628 4.606 12.777 26.164 1.979z" transform="translate(-1060 -366) translate(960) translate(100 366) translate(0 .58) translate(35.208) translate(57.276) translate(132.316 81.592)"/>
                                </g>
                                <path fill="#BEBEBE" d="M124.414 89.588L39.375 46.994 39.375 102.281 124.414 144.874 124.414 89.588z" transform="translate(-1060 -366) translate(960) translate(100 366) translate(0 .58) translate(35.208) translate(57.276)"/>
                                <path fill="url(#aok20kjirh)" d="M80.777 82.954c5.086 2.516 9.208 8.685 9.208 13.78v6.529c0 5.094-4.122 7.185-9.208 4.67l-14.425-7.135c-.71-.351-1.287-1.212-1.289-1.924l-.006-22.404c0-.713.577-1.006 1.289-.654l14.431 7.138zm2.489 12.588c-.296-.353-.697-.494-.933-.337-1.2.803-2.955.752-4.812-.166-1.856-.918-3.612-2.604-4.812-4.594-.235-.39-.636-.646-.932-.585l-1.159.239c-.332.068-.399.504-.14.945 1.73 2.945 4.311 5.45 7.043 6.8 2.732 1.352 5.313 1.4 7.043.167.26-.185.192-.686-.14-1.083l-1.158-1.386z" transform="translate(-1060 -366) translate(960) translate(100 366) translate(0 .58) translate(35.208) translate(57.276)"/>
                                <g>
                                    <path fill="#F2F2F2" d="M76.823 3.632L1.716 41.25 89.206 85.067 164.308 47.453z" transform="translate(-1060 -366) translate(960) translate(100 366) translate(0 .58) translate(35.208) translate(57.276) translate(35.208)"/>
                                    <path fill="#C8C8C8" d="M89.206 85.067L1.716 41.25 1.716 47.124 89.206 90.941 89.206 85.067zM150.953 41.343L76.837 4.22 76.837 10.094 150.953 47.217z" transform="translate(-1060 -366) translate(960) translate(100 366) translate(0 .58) translate(35.208) translate(57.276) translate(35.208)"/>
                                    <path fill="#E6E6E6" d="M76.837 4.22L15.076 35.154 15.076 41.028 76.837 10.094z" transform="translate(-1060 -366) translate(960) translate(100 366) translate(0 .58) translate(35.208) translate(57.276) translate(35.208)"/>
                                    <path fill="#EB2C3B" d="M89.206 75.816L8.024 35.154 8.024 41.028 89.206 81.69z" transform="translate(-1060 -366) translate(960) translate(100 366) translate(0 .58) translate(35.208) translate(57.276) translate(35.208)"/>
                                    <path fill="#EF5662" d="M76.841.686L8.024 35.154l81.182 40.662 68.818-34.468L76.84.686zm-.018 3.543l-61.83 30.967 74.125 37.132 61.835-30.971-74.13-37.128z" transform="translate(-1060 -366) translate(960) translate(100 366) translate(0 .58) translate(35.208) translate(57.276) translate(35.208)"/>
                                    <path fill="#E6E6E6" d="M164.308 47.453L89.206 85.067 89.206 90.941 164.308 53.327 164.308 47.453z" transform="translate(-1060 -366) translate(960) translate(100 366) translate(0 .58) translate(35.208) translate(57.276) translate(35.208)"/>
                                    <path fill="#ED404E" d="M158.024 41.348L89.206 75.816 89.206 81.69 158.024 47.221z" transform="translate(-1060 -366) translate(960) translate(100 366) translate(0 .58) translate(35.208) translate(57.276) translate(35.208)"/>
                                </g>
                                <path fill="#EE384E" d="M241.597 205.028l5.472-2.75v-7.31l-5.472 2.75c-.945.475-1.825 1.8-1.825 2.745v3.654c0 .944.88 1.385 1.825.91zm21.89-11.003l5.472-2.75v-7.31l-5.473 2.751c-.944.475-1.824 1.8-1.824 2.744v3.655c0 .944.88 1.385 1.824.91zm-12.77-3.632v12.791c0 .403-.508 1.17-.912 1.372l-1.824.936c-.403.203-.912-.07-.912-.474v-.609l-.828 1.412c-.252.47-.874.966-1.3 1.18l-3.344 1.681c-2.935 1.475-5.473.202-5.473-2.731v-3.655c0-2.932 2.538-6.757 5.473-8.232l8.208-4.126c.403-.203.912.052.912.455zm21.89-11.002v12.791c0 .403-.508 1.17-.912 1.372l-1.824.936c-.404.203-.912-.071-.912-.474v-.61l-.828 1.412c-.252.47-.874.967-1.3 1.181l-3.345 1.681c-2.934 1.475-5.472.201-5.472-2.731v-3.655c0-2.933 2.538-6.758 5.472-8.233l8.209-4.125c.403-.203.912.052.912.455zm-60.805 33.303l-5.472 2.75c-.945.475-1.824 1.8-1.824 2.745v3.654c0 .944.88 1.385 1.824.91l5.472-2.75v-7.31zm3.649-4.575v14.01c0 2.932-2.538 6.453-5.473 7.928l-2.82 1.417c-.42.21-.815.213-1.068.005l-1.605-1.316c-.267-.218-.117-.941.325-1.163l5.168-2.598c.944-.475 1.824-1.496 1.824-2.44v-.304l-5.472 2.75c-2.934 1.475-5.473.202-5.473-2.731v-3.655c0-2.932 2.539-6.757 5.473-8.232l3.344-1.681c.419-.21.875-.103 1.17.02l.958.433v-.61c0-.402.51-1.169.912-1.371l1.824-.917c.404-.203.913.052.913.455zm-32.835 24.727c0 .943.88 1.385 1.824.91l5.473-2.75v-7.31l-5.473 2.75c-.944.475-1.824 1.801-1.824 2.745v3.655zm10.033-19.053c.404-.203.912.052.912.455v17.665c0 .403-.508 1.169-.912 1.372l-1.824.917c-.404.202-.912-.052-.912-.456v-.609l-.957 1.506c-.259.419-.759.88-1.172 1.087l-3.344 1.68c-2.934 1.476-5.472.202-5.472-2.73v-3.628c0-2.932 2.538-6.785 5.472-8.26l5.473-2.75v-3.96c0-.403.508-1.169.912-1.372l1.824-.917zm37.699-6.766l5.077-8.99c.283-.493.033-.89-.418-.663l-2.904 1.46c-.22.11-.427.314-.566.554l-5.142 9.016v-10.659c0-.403-.508-.658-.912-.455l-1.824.917c-.403.203-.912.968-.912 1.372v17.664c0 .403.509.658.912.455l1.824-.917c.404-.203.912-.969.912-1.372v-5.786l5.145 3.86c.138.103.348.099.569-.013l2.901-1.458c.45-.226.7-.874.418-1.082l-5.08-3.903zm-12.161-6.07c-.404.203-.912.97-.912 1.372v1.828c0 .403.508.658.912.455l1.824-.917c.403-.203.912-.969.912-1.372v-1.827c0-.404-.509-.658-.912-.456l-1.824.917zm0 4.873c-.404.203-.912.97-.912 1.372v12.791c0 .404.651.606 1.055.403l1.68-.864c.404-.203.913-.97.913-1.372v-12.792c0-.403-.509-.658-.912-.455l-1.824.917zm-21.89 6.13c-.403.202-.912.968-.912 1.372v1.827c0 .403.509.658.912.455l1.824-.917c.404-.202.912-.969.912-1.372v-1.827c0-.403-.508-.658-.912-.455l-1.824.917zm0 4.872c-.403.203-.912.97-.912 1.373v12.79c0 .404.509.659.912.456l1.824-.917c.404-.203.912-.969.912-1.372v-12.791c0-.403-.508-.658-.912-.455l-1.824.916zm59.893-34.062v17.664c0 .403-.509 1.169-.912 1.372l-1.824.917c-.404.203-.913-.052-.913-.456v-17.664c0-.403.509-1.169.913-1.372l1.824-.917c.403-.202.912.052.912.456z" transform="translate(-1060 -366) translate(960) translate(100 366) translate(0 .58) translate(35.208) translate(57.276)"/>
                            </g>
                            <g>
                                <path fill="#D2AD7D" d="M26.677 0.408L0.046 13.744 27.112 27.298 53.738 13.962z" transform="translate(-1060 -366) translate(960) translate(100 366) translate(0 .58) translate(35.208) translate(24.907 176.026)"/>
                                <path fill="#C49455" d="M27.112 27.298L0.046 13.744 0.046 33.802 27.112 47.356z" transform="translate(-1060 -366) translate(960) translate(100 366) translate(0 .58) translate(35.208) translate(24.907 176.026)"/>
                                <path fill="#CBA16A" d="M53.738 13.962L27.112 27.298 27.112 47.393 53.738 34.056z" transform="translate(-1060 -366) translate(960) translate(100 366) translate(0 .58) translate(35.208) translate(24.907 176.026)"/>
                                <path fill="#2A2A2A" d="M53.738 13.962L47.19 17.241 47.19 37.336 53.738 34.056z" transform="translate(-1060 -366) translate(960) translate(100 366) translate(0 .58) translate(35.208) translate(24.907 176.026)"/>
                                <path fill="#3E3E3E" d="M26.677 0.408L20.129 3.687 47.19 17.241 53.738 13.962z" transform="translate(-1060 -366) translate(960) translate(100 366) translate(0 .58) translate(35.208) translate(24.907 176.026)"/>
                                <path fill="#FFF" fill-opacity=".3" d="M37.521 5.837L10.913 19.164 16.291 21.855 42.894 8.533zM16.268 21.855L10.89 19.164 10.89 39.24 16.268 41.936z" transform="translate(-1060 -366) translate(960) translate(100 366) translate(0 .58) translate(35.208) translate(24.907 176.026)"/>
                                <path fill="#FFF" d="M26.598 9.969L14.945 15.805 22.996 19.835 34.645 13.999z" transform="translate(-1060 -366) translate(960) translate(100 366) translate(0 .58) translate(35.208) translate(24.907 176.026)"/>
                                <path fill="url(#o48jcuz0bi)" d="M38.79 26.72c2.124-1.06 3.844-.195 3.844 1.931v2.726c0 2.126-1.72 4.709-3.843 5.769l-6.02 3.006c-.297.148-.538.028-.539-.268l-.002-9.348c0-.298.24-.66.538-.808l6.023-3.007zm1.04 4.222c-.124-.025-.291.083-.39.246-.5.833-1.233 1.54-2.008 1.927-.775.387-1.508.412-2.008.079-.099-.065-.266-.005-.39.143l-.483.58c-.139.166-.167.376-.059.452.723.512 1.8.487 2.94-.083s2.218-1.62 2.94-2.852c.108-.185.08-.366-.059-.394l-.484-.098z" transform="translate(-1060 -366) translate(960) translate(100 366) translate(0 .58) translate(35.208) translate(24.907 176.026)"/>
                            </g>
                            <g>
                                <path fill="#D2AD7D" d="M23.408 1.682L1.407 12.702 21.018 22.523 43.02 11.503z" transform="translate(-1060 -366) translate(960) translate(100 366) translate(0 .58) translate(35.208) translate(4.624 202.031)"/>
                                <path fill="#C49455" d="M21.018 22.523L1.407 12.702 1.407 21.907 21.018 31.732 21.018 22.523z" transform="translate(-1060 -366) translate(960) translate(100 366) translate(0 .58) translate(35.208) translate(4.624 202.031)"/>
                                <path fill="#CBA16A" d="M43.02 11.503L21.018 22.523 21.018 31.732 43.02 20.707 43.02 11.503z" transform="translate(-1060 -366) translate(960) translate(100 366) translate(0 .58) translate(35.208) translate(4.624 202.031)"/>
                                <path fill="#2A2A2A" d="M43.02 11.503L37.947 14.046 37.947 23.232 43.02 20.689z" transform="translate(-1060 -366) translate(960) translate(100 366) translate(0 .58) translate(35.208) translate(4.624 202.031)"/>
                                <path fill="#3E3E3E" d="M23.408 1.682L18.336 4.221 37.947 14.046 43.02 11.503 23.408 1.682z" transform="translate(-1060 -366) translate(960) translate(100 366) translate(0 .58) translate(35.208) translate(4.624 202.031)"/>
                                <path fill="#FFF" fill-opacity=".3" d="M30.525 5.245L8.523 16.265 13.901 18.961 35.903 7.94zM13.901 18.965L8.523 16.269 8.523 25.464 13.901 28.16z" transform="translate(-1060 -366) translate(960) translate(100 366) translate(0 .58) translate(35.208) translate(4.624 202.031)"/>
                                <path fill="#FFF" d="M21.346 8.506L9.693 14.342 17.739 18.372 29.392 12.536z" transform="translate(-1060 -366) translate(960) translate(100 366) translate(0 .58) translate(35.208) translate(4.624 202.031)"/>
                                <path fill="url(#r9oxle2j9j)" d="M30.678 19.81c1.061-.53 1.921-.097 1.921.966v1.363c0 1.063-.86 2.354-1.921 2.884l-3.01 1.504c-.149.074-.269.014-.27-.135V21.72c0-.15.12-.33.268-.404l3.012-1.504zm.519 2.112c-.062-.013-.145.04-.195.123-.25.416-.616.77-1.004.963-.387.193-.754.206-1.004.04-.05-.033-.133-.003-.194.07l-.242.291c-.07.083-.084.188-.03.226.362.256.9.243 1.47-.041.57-.285 1.109-.81 1.47-1.427.054-.092.04-.183-.03-.197l-.241-.048z" transform="translate(-1060 -366) translate(960) translate(100 366) translate(0 .58) translate(35.208) translate(4.624 202.031)"/>
                            </g>
                            <g>
                                <path fill="#D2AD7D" d="M18.367 0.774L0.375 9.783 12.333 15.773 30.321 6.763z" transform="translate(-1060 -366) translate(960) translate(100 366) translate(0 .58) translate(35.208) translate(11.034 194.556)"/>
                                <path fill="#C49455" d="M12.333 15.773L0.375 9.783 0.375 18.992 12.333 24.977z" transform="translate(-1060 -366) translate(960) translate(100 366) translate(0 .58) translate(35.208) translate(11.034 194.556)"/>
                                <path fill="#CBA16A" d="M30.321 6.763L12.333 15.773 12.333 24.977 30.321 15.967z" transform="translate(-1060 -366) translate(960) translate(100 366) translate(0 .58) translate(35.208) translate(11.034 194.556)"/>
                                <path fill="#2A2A2A" d="M30.321 6.763L26.21 8.82 26.21 18.006 30.321 15.949z" transform="translate(-1060 -366) translate(960) translate(100 366) translate(0 .58) translate(35.208) translate(11.034 194.556)"/>
                                <path fill="#3E3E3E" d="M18.367 0.774L14.256 2.83 26.21 8.82 30.321 6.763z" transform="translate(-1060 -366) translate(960) translate(100 366) translate(0 .58) translate(35.208) translate(11.034 194.556)"/>
                                <path fill="#FFF" fill-opacity=".3" d="M22.511 2.849L4.518 11.859 8.189 13.698 26.178 4.688 22.511 2.849zM8.189 13.702L4.518 11.863 4.518 21.058 8.189 22.897z" transform="translate(-1060 -366) translate(960) translate(100 366) translate(0 .58) translate(35.208) translate(11.034 194.556)"/>
                                <path fill="#FFF" d="M15.204 4.98L5.133 10.029 11.847 13.392 21.923 8.347z" transform="translate(-1060 -366) translate(960) translate(100 366) translate(0 .58) translate(35.208) translate(11.034 194.556)"/>
                                <path fill="url(#r9oxle2j9j)" d="M19.875 14.027c1.062-.53 1.922-.098 1.922.966v1.362c0 1.063-.86 2.355-1.922 2.885l-3.01 1.503c-.148.074-.268.014-.269-.134l-.001-4.674c0-.149.12-.33.269-.404l3.011-1.504zm.52 2.111c-.062-.012-.146.041-.195.123-.25.416-.617.77-1.004.963-.387.194-.754.206-1.004.04-.05-.033-.133-.003-.195.071l-.242.29c-.069.084-.083.188-.029.227.361.255.9.243 1.47-.042s1.109-.81 1.47-1.426c.054-.093.04-.183-.03-.197l-.241-.049z" transform="translate(-1060 -366) translate(960) translate(100 366) translate(0 .58) translate(35.208) translate(11.034 194.556)"/>
                            </g>
                            <g>
                                <path fill="#D2AD7D" d="M30.4 2.237L1.498 16.713 20.707 26.334 49.608 11.859z" transform="translate(-1060 -366) translate(960) translate(100 366) translate(0 .58) translate(35.208) translate(260.741 240.878)"/>
                                <path fill="#C49455" d="M20.707 26.334L1.498 16.713 1.498 31.504 20.707 41.125z" transform="translate(-1060 -366) translate(960) translate(100 366) translate(0 .58) translate(35.208) translate(260.741 240.878)"/>
                                <path fill="#CBA16A" d="M49.608 11.859L20.707 26.334 20.707 41.125 49.608 26.649z" transform="translate(-1060 -366) translate(960) translate(100 366) translate(0 .58) translate(35.208) translate(260.741 240.878)"/>
                                <path fill="#2A2A2A" d="M49.608 11.859L43.005 15.166 43.005 29.924 49.608 26.617z" transform="translate(-1060 -366) translate(960) translate(100 366) translate(0 .58) translate(35.208) translate(260.741 240.878)"/>
                                <path fill="#3E3E3E" d="M30.4 2.237L23.801 5.545 43.005 15.166 49.608 11.859z" transform="translate(-1060 -366) translate(960) translate(100 366) translate(0 .58) translate(35.208) translate(260.741 240.878)"/>
                                <path fill="#FFF" fill-opacity=".3" d="M37.058 5.573L8.152 20.048 14.048 23.004 42.954 8.523zM14.048 23.009L8.152 20.058 8.152 34.83 14.048 37.785 14.048 23.009z" transform="translate(-1060 -366) translate(960) translate(100 366) translate(0 .58) translate(35.208) translate(260.741 240.878)"/>
                                <path fill="#FFF" d="M25.322 8.996L9.137 17.102 19.93 22.508 36.115 14.402z" transform="translate(-1060 -366) translate(960) translate(100 366) translate(0 .58) translate(35.208) translate(260.741 240.878)"/>
                                <path fill="url(#bipwgc1kwk)" d="M33.238 23.652c1.592-.794 2.883-.146 2.883 1.449v2.043c0 1.595-1.29 3.532-2.883 4.327l-4.515 2.255c-.222.111-.403.021-.404-.201l-.002-7.011c0-.223.181-.494.404-.606l4.517-2.256zm.78 3.167c-.093-.02-.219.062-.293.184-.375.625-.925 1.155-1.506 1.445-.58.29-1.13.31-1.506.06-.074-.05-.2-.005-.292.106l-.363.436c-.104.125-.125.282-.044.34.542.383 1.35.364 2.205-.063.855-.428 1.663-1.215 2.205-2.14.08-.138.06-.274-.044-.295l-.363-.073z" transform="translate(-1060 -366) translate(960) translate(100 366) translate(0 .58) translate(35.208) translate(260.741 240.878)"/>
                            </g>
                            <g>
                                <path fill="#D2AD7D" d="M33.23 0.982L1.138 17.056 23.089 28.053 55.181 11.979 33.23 0.982z" transform="translate(-1060 -366) translate(960) translate(100 366) translate(0 .58) translate(35.208) translate(172.881 250.143)"/>
                                <path fill="#C49455" d="M23.089 28.053L1.138 17.056 1.138 37.554 23.089 48.546z" transform="translate(-1060 -366) translate(960) translate(100 366) translate(0 .58) translate(35.208) translate(172.881 250.143)"/>
                                <path fill="url(#p4sw03cvdl)" d="M9.972 27.984c1.507.746 2.73 2.575 2.73 4.085v1.935c0 1.51-1.223 2.13-2.73 1.385l-4.276-2.115c-.21-.104-.382-.36-.382-.57l-.002-6.642c0-.211.17-.298.382-.193l4.278 2.115zm.737 3.732c-.088-.105-.206-.147-.276-.1-.356.238-.876.223-1.427-.05-.55-.272-1.07-.771-1.426-1.361-.07-.116-.189-.192-.276-.174l-.344.071c-.098.02-.118.15-.041.28.512.873 1.278 1.616 2.087 2.016.81.4 1.575.415 2.088.05.077-.055.057-.204-.041-.322l-.344-.41z" transform="translate(-1060 -366) translate(960) translate(100 366) translate(0 .58) translate(35.208) translate(172.881 250.143)"/>
                                <path fill="#2A2A2A" d="M55.181 11.979L23.089 28.053 23.089 48.546 55.181 32.472z" transform="translate(-1060 -366) translate(960) translate(100 366) translate(0 .58) translate(35.208) translate(172.881 250.143)"/>
                                <path fill="#FFF" d="M42.901 30.063l1.368-.688v-1.827l-1.368.687c-.236.12-.456.45-.456.687v.913c0 .236.22.346.456.228zm5.473-2.75l1.368-.688v-1.828l-1.368.688c-.236.119-.456.45-.456.686v.914c0 .236.22.346.456.227zm-3.193-.909v3.198c0 .1-.127.292-.228.343l-.456.234c-.1.05-.228-.018-.228-.119v-.152l-.207.353c-.063.118-.218.242-.325.295l-.836.42c-.733.37-1.368.05-1.368-.682v-.914c0-.733.635-1.69 1.368-2.058l2.052-1.032c.101-.05.228.013.228.114zm5.473-2.75v3.197c0 .101-.127.293-.228.343l-.456.234c-.101.051-.228-.017-.228-.118v-.152l-.207.352c-.063.118-.219.242-.325.296l-.836.42c-.734.369-1.369.05-1.369-.683v-.914c0-.733.635-1.689 1.369-2.058l2.052-1.031c.1-.05.228.013.228.114zm-15.201 8.325l-1.369.688c-.236.119-.456.45-.456.686v.914c0 .236.22.346.456.227l1.369-.687v-1.828zm.912-1.143V34.338c0 .733-.635 1.613-1.368 1.982l-.705.354c-.105.053-.204.054-.267.002l-.402-.33c-.066-.054-.03-.235.081-.29l1.293-.65c.236-.118.456-.374.456-.61v-.076l-1.369.688c-.733.369-1.368.05-1.368-.683v-.914c0-.733.635-1.689 1.368-2.058l.837-.42c.104-.053.218-.026.292.005l.24.108v-.152c0-.1.127-.292.228-.343l.456-.23c.1-.05.228.014.228.115zm-8.209 6.181c0 .236.22.347.456.228l1.368-.688V34.73l-1.368.688c-.236.118-.456.45-.456.686v.913zm2.508-4.763c.101-.05.228.013.228.114v4.416c0 .1-.127.292-.228.343l-.456.23c-.1.05-.228-.014-.228-.115v-.152l-.239.377c-.065.104-.19.22-.293.271l-.836.42c-.734.37-1.368.05-1.368-.682v-.907c0-.733.634-1.696 1.368-2.065l1.368-.688v-.99c0-.1.127-.292.228-.343l.456-.229zm9.425-1.691l1.27-2.248c.07-.123.007-.222-.105-.166l-.726.365c-.055.028-.107.079-.142.139l-1.285 2.254v-2.665c0-.1-.127-.164-.228-.114l-.456.23c-.101.05-.228.242-.228.343v4.416c0 .1.127.164.228.113l.456-.229c.1-.05.228-.242.228-.343v-1.446l1.286.965c.035.025.087.024.142-.004l.725-.364c.113-.057.176-.219.105-.27l-1.27-.976zm-3.04-1.518c-.101.05-.228.242-.228.343v.457c0 .1.127.165.228.114l.456-.23c.1-.05.228-.242.228-.342v-.457c0-.101-.127-.165-.228-.114l-.456.23zm0 1.218c-.101.051-.228.243-.228.343v3.198c0 .101.163.152.263.1l.42-.215c.102-.05.229-.242.229-.343v-3.198c0-.1-.127-.165-.228-.114l-.456.23zm-5.473 1.533c-.1.05-.228.242-.228.343v.457c0 .1.127.164.228.113l.456-.229c.101-.05.228-.242.228-.343v-.457c0-.1-.127-.164-.228-.113l-.456.229zm0 1.218c-.1.05-.228.242-.228.343v3.198c0 .1.127.164.228.114l.456-.23c.101-.05.228-.242.228-.343V32.9c0-.101-.127-.165-.228-.114l-.456.229zm14.973-8.516v4.416c0 .101-.127.293-.228.343l-.456.23c-.1.05-.228-.013-.228-.114v-4.416c0-.101.127-.293.228-.343l.456-.23c.101-.05.228.013.228.114z" transform="translate(-1060 -366) translate(960) translate(100 366) translate(0 .58) translate(35.208) translate(172.881 250.143)"/>
                                <path fill="#3E3E3E" d="M16.772 24.889L23.089 28.053 55.181 11.979 48.869 8.815z" transform="translate(-1060 -366) translate(960) translate(100 366) translate(0 .58) translate(35.208) translate(172.881 250.143)"/>
                                <path fill="#161616" d="M23.089 28.053L16.772 24.889 16.772 45.387 23.089 48.546 23.089 28.053z" transform="translate(-1060 -366) translate(960) translate(100 366) translate(0 .58) translate(35.208) translate(172.881 250.143)"/>
                                <path fill="#FFF" fill-opacity=".3" d="M14.585 10.321L36.536 21.318 41.724 18.719 19.773 7.722z" transform="translate(-1060 -366) translate(960) translate(100 366) translate(0 .58) translate(35.208) translate(172.881 250.143)"/>
                                <path fill="#FFF" fill-opacity=".3" d="M41.729 18.714L36.54 21.313 36.54 41.811 41.729 39.212z" transform="translate(-1060 -366) translate(960) translate(100 366) translate(0 .58) translate(35.208) translate(172.881 250.143)"/>
                                <path fill="#FFF" d="M15.551 12.09L26.788 17.718 34.552 13.832 23.315 8.204z" transform="translate(-1060 -366) translate(960) translate(100 366) translate(0 .58) translate(35.208) translate(172.881 250.143)"/>
                            </g>
                            <g>
                                <path fill="#D2AD7D" d="M11.93 0.009L0.467 5.749 22.418 16.746 33.882 11.002 11.93 0.009z" transform="translate(-1060 -366) translate(960) translate(100 366) translate(0 .58) translate(35.208) translate(320.856 194.556)"/>
                                <path fill="#C49455" d="M22.418 16.746L0.467 5.749 0.467 26.246 22.418 37.239z" transform="translate(-1060 -366) translate(960) translate(100 366) translate(0 .58) translate(35.208) translate(320.856 194.556)"/>
                                <path fill="url(#p4sw03cvdl)" d="M9.341 16.746c1.508.745 2.73 2.574 2.73 4.084v1.936c0 1.51-1.222 2.13-2.73 1.384l-4.276-2.115c-.21-.104-.381-.36-.382-.57l-.002-6.641c0-.212.171-.299.382-.194l4.278 2.116zm.738 3.731c-.088-.105-.207-.147-.277-.1-.355.238-.876.223-1.426-.05-.55-.271-1.07-.771-1.426-1.36-.07-.117-.189-.192-.277-.174l-.343.07c-.099.02-.118.15-.042.28.513.874 1.278 1.616 2.088 2.017.81.4 1.575.415 2.088.049.077-.055.057-.204-.042-.321l-.343-.41z" transform="translate(-1060 -366) translate(960) translate(100 366) translate(0 .58) translate(35.208) translate(320.856 194.556)"/>
                                <path fill="#2A2A2A" d="M33.835 11.025L22.418 16.746 22.418 37.239 33.835 31.523 33.835 11.025z" transform="translate(-1060 -366) translate(960) translate(100 366) translate(0 .58) translate(35.208) translate(320.856 194.556)"/>
                                <path fill="#3E3E3E" d="M16.106 13.582L22.418 16.746 33.882 11.002 27.569 7.838z" transform="translate(-1060 -366) translate(960) translate(100 366) translate(0 .58) translate(35.208) translate(320.856 194.556)"/>
                                <path fill="#161616" d="M22.418 16.746L16.106 13.582 16.106 34.075 22.418 37.239z" transform="translate(-1060 -366) translate(960) translate(100 366) translate(0 .58) translate(35.208) translate(320.856 194.556)"/>
                                <path fill="#FFF" fill-opacity=".3" d="M4.384 3.789L26.335 14.782 29.965 12.966 8.014 1.969 4.384 3.789z" transform="translate(-1060 -366) translate(960) translate(100 366) translate(0 .58) translate(35.208) translate(320.856 194.556)"/>
                                <path fill="#FFF" fill-opacity=".3" d="M29.965 12.966L26.335 14.782 26.335 35.279 29.965 33.459 29.965 12.966z" transform="translate(-1060 -366) translate(960) translate(100 366) translate(0 .58) translate(35.208) translate(320.856 194.556)"/>
                                <path fill="#FFF" d="M5.563 5.883L15.935 11.08 22.982 7.551 12.606 2.353z" transform="translate(-1060 -366) translate(960) translate(100 366) translate(0 .58) translate(35.208) translate(320.856 194.556)"/>
                            </g>
                            <g>
                                <path fill="#D2AD7D" d="M26.618 0.158L0.939 13.022 22.891 24.014 48.569 11.155 26.618 0.158z" transform="translate(-1060 -366) translate(960) translate(100 366) translate(0 .58) translate(35.208) translate(221.962 239.09)"/>
                                <path fill="#C49455" d="M22.891 24.014L0.939 13.022 0.939 50.252 22.891 61.244 22.891 24.014z" transform="translate(-1060 -366) translate(960) translate(100 366) translate(0 .58) translate(35.208) translate(221.962 239.09)"/>
                                <path fill="#CBA16A" d="M48.569 11.155L22.891 24.014 22.891 61.244 48.569 48.38z" transform="translate(-1060 -366) translate(960) translate(100 366) translate(0 .58) translate(35.208) translate(221.962 239.09)"/>
                                <path fill="#2A2A2A" d="M48.569 11.155L42.257 14.319 42.257 51.544 48.569 48.38z" transform="translate(-1060 -366) translate(960) translate(100 366) translate(0 .58) translate(35.208) translate(221.962 239.09)"/>
                                <path fill="#3E3E3E" d="M26.618 0.158L20.306 3.322 42.257 14.319 48.569 11.155z" transform="translate(-1060 -366) translate(960) translate(100 366) translate(0 .58) translate(35.208) translate(221.962 239.09)"/>
                                <path fill="#FFF" fill-opacity=".3" d="M34.992 4.364L9.332 17.214 14.516 19.813 40.18 6.958zM14.507 19.813L9.323 17.214 9.323 54.453 14.507 57.052z" transform="translate(-1060 -366) translate(960) translate(100 366) translate(0 .58) translate(35.208) translate(221.962 239.09)"/>
                                <path fill="#FFF" d="M22.678 9.238L11.441 14.87 19.205 18.757 30.442 13.129 22.678 9.238z" transform="translate(-1060 -366) translate(960) translate(100 366) translate(0 .58) translate(35.208) translate(221.962 239.09)"/>
                                <path fill="url(#o48jcuz0bi)" d="M34.612 31.626c2.123-1.06 3.843-.195 3.843 1.93v2.726c0 2.126-1.72 4.71-3.843 5.77l-6.02 3.006c-.297.148-.538.028-.539-.269l-.002-9.348c0-.297.24-.659.538-.807l6.023-3.008zm1.039 4.222c-.124-.025-.291.082-.39.246-.5.833-1.233 1.54-2.008 1.927-.775.386-1.508.411-2.008.079-.099-.066-.266-.006-.39.142l-.483.58c-.139.167-.166.376-.058.453.722.512 1.799.486 2.94-.083 1.14-.57 2.217-1.62 2.939-2.853.108-.184.08-.366-.059-.394l-.483-.097z" transform="translate(-1060 -366) translate(960) translate(100 366) translate(0 .58) translate(35.208) translate(221.962 239.09)"/>
                            </g>
                            <g>
                                <path fill="#D2AD7D" d="M18.968 1.658L0.976 10.668 12.934 16.658 30.922 7.643z" transform="translate(-1060 -366) translate(960) translate(100 366) translate(0 .58) translate(35.208) translate(302.359 213.085)"/>
                                <path fill="#C49455" d="M12.934 16.658L0.976 10.668 0.976 19.872 12.934 25.862z" transform="translate(-1060 -366) translate(960) translate(100 366) translate(0 .58) translate(35.208) translate(302.359 213.085)"/>
                                <path fill="#CBA16A" d="M30.922 7.643L12.934 16.658 12.934 25.862 30.922 16.852z" transform="translate(-1060 -366) translate(960) translate(100 366) translate(0 .58) translate(35.208) translate(302.359 213.085)"/>
                                <path fill="#2A2A2A" d="M30.922 7.643L26.816 9.705 26.816 18.89 30.922 16.829z" transform="translate(-1060 -366) translate(960) translate(100 366) translate(0 .58) translate(35.208) translate(302.359 213.085)"/>
                                <path fill="#3E3E3E" d="M18.968 1.658L14.858 3.715 26.816 9.705 30.922 7.643 18.968 1.658z" transform="translate(-1060 -366) translate(960) translate(100 366) translate(0 .58) translate(35.208) translate(302.359 213.085)"/>
                                <path fill="#FFF" fill-opacity=".3" d="M23.112 3.734L5.119 12.743 8.791 14.582 26.779 5.568zM8.791 14.587L5.119 12.748 5.119 21.943 8.791 23.782z" transform="translate(-1060 -366) translate(960) translate(100 366) translate(0 .58) translate(35.208) translate(302.359 213.085)"/>
                                <path fill="#FFF" d="M15.806 5.864L5.734 10.909 12.448 14.272 22.524 9.227z" transform="translate(-1060 -366) translate(960) translate(100 366) translate(0 .58) translate(35.208) translate(302.359 213.085)"/>
                                <path fill="url(#r9oxle2j9j)" d="M20.606 14.881c1.06-.53 1.921-.098 1.921.965v1.363c0 1.063-.86 2.355-1.921 2.885l-3.01 1.503c-.149.074-.27.014-.27-.134l-.001-4.674c0-.15.12-.33.269-.404l3.012-1.504zm.519 2.11c-.062-.012-.146.042-.195.124-.25.416-.617.77-1.004.963-.387.194-.754.206-1.004.04-.05-.033-.133-.003-.195.071l-.241.29c-.07.083-.084.188-.03.226.361.256.9.243 1.47-.041.57-.285 1.109-.81 1.47-1.427.054-.092.04-.183-.03-.197l-.241-.048z" transform="translate(-1060 -366) translate(960) translate(100 366) translate(0 .58) translate(35.208) translate(302.359 213.085)"/>
                            </g>
                            <g>
                                <path fill="#2D3540" fill-opacity=".13" d="M107.3 51.243c-1.16-.584-2.857-.676-3.786-.213l-98.94 49.56c-.93.464-.74 1.312.42 1.895l37.873 18.97c1.16.583 2.858.676 3.787.212l98.94-49.556c.93-.467.74-1.315-.421-1.899l-37.872-18.969z" transform="translate(-1060 -366) translate(960) translate(100 366) translate(0 .58) translate(35.208) translate(23.121 211.296)"/>
                                <path fill="#ACACAC" d="M63.496 57.515L31.274 41.376 31.274 87.435 63.496 103.574 63.496 57.515z" transform="translate(-1060 -366) translate(960) translate(100 366) translate(0 .58) translate(35.208) translate(23.121 211.296)"/>
                                <g>
                                    <path fill="#E4E5E6" d="M6.137 12.346L38.359 28.485 33.096 77.188 0.875 61.05 1.624 54.138 1.624 41.839 3.33 38.342 6.137 12.346z" transform="translate(-1060 -366) translate(960) translate(100 366) translate(0 .58) translate(35.208) translate(23.121 211.296) translate(0 41.69)"/>
                                    <path fill="#A5A5A5" d="M24.333 55.292L10.905 48.566 10.905 48.982 24.306 55.695zM24.333 56.399L10.905 49.673 10.905 50.094 24.306 56.802 24.333 56.399zM24.333 57.45L10.905 50.729 10.905 51.146 24.306 57.858 24.333 57.45zM24.333 58.506L10.905 51.78 10.905 52.202 24.306 58.914zM24.333 59.563L10.905 52.836 10.905 53.258 24.306 59.97zM24.333 60.619L10.905 53.893 10.905 54.314 24.306 61.022zM24.333 61.675L10.905 54.949 10.905 55.37 24.306 62.078z" transform="translate(-1060 -366) translate(960) translate(100 366) translate(0 .58) translate(35.208) translate(23.121 211.296) translate(0 41.69)"/>
                                    <path fill="#BEBEBE" d="M32.948 68.494L0.537 52.137 0.537 60.132 32.976 76.378z" transform="translate(-1060 -366) translate(960) translate(100 366) translate(0 .58) translate(35.208) translate(23.121 211.296) translate(0 41.69)"/>
                                    <g>
                                        <path fill="#A5A5A5" d="M7.964 4.628L0.671 0.927 0.348 1.089 0.671 4.48 7.635 8.297 7.964 8.13z" transform="translate(-1060 -366) translate(960) translate(100 366) translate(0 .58) translate(35.208) translate(23.121 211.296) translate(0 41.69) translate(23.121 64.852)"/>
                                        <path fill="#F4EFDA" d="M7.631 4.795L0.348 1.089 0.348 4.642 7.635 8.297 7.631 4.795z" transform="translate(-1060 -366) translate(960) translate(100 366) translate(0 .58) translate(35.208) translate(23.121 211.296) translate(0 41.69) translate(23.121 64.852)"/>
                                        <path fill="#F3B454" d="M7.635 4.795L6.535 4.193 6.535 7.746 7.635 8.297z" transform="translate(-1060 -366) translate(960) translate(100 366) translate(0 .58) translate(35.208) translate(23.121 211.296) translate(0 41.69) translate(23.121 64.852)"/>
                                    </g>
                                    <g>
                                        <path fill="#A5A5A5" d="M10.035 6.193L2.748 2.492 2.419 2.659 2.748 6.05 9.712 9.862 10.035 9.7z" transform="translate(-1060 -366) translate(960) translate(100 366) translate(0 .58) translate(35.208) translate(23.121 211.296) translate(0 41.69) translate(0 52.744)"/>
                                        <path fill="#F4EFDA" d="M9.707 6.36L2.419 2.659 2.419 6.212 9.712 9.862z" transform="translate(-1060 -366) translate(960) translate(100 366) translate(0 .58) translate(35.208) translate(23.121 211.296) translate(0 41.69) translate(0 52.744)"/>
                                        <path fill="#F3B454" d="M3.52 3.206L2.419 2.659 2.419 6.212 3.52 6.763 3.52 3.206z" transform="translate(-1060 -366) translate(960) translate(100 366) translate(0 .58) translate(35.208) translate(23.121 211.296) translate(0 41.69) translate(0 52.744)"/>
                                    </g>
                                    <path fill="#B7D4E4" d="M36.759 29.606L7.326 14.866 4.694 39 34.127 53.74z" transform="translate(-1060 -366) translate(960) translate(100 366) translate(0 .58) translate(35.208) translate(23.121 211.296) translate(0 41.69)"/>
                                    <path fill="#F2F2F2" d="M30.118 0.344L6.137 12.355 38.349 28.489 62.326 16.478z" transform="translate(-1060 -366) translate(960) translate(100 366) translate(0 .58) translate(35.208) translate(23.121 211.296) translate(0 41.69)"/>
                                    <path fill="#707070" d="M62.326 62.458L58.52 64.366 50.714 62.05 60.36 58.539 62.326 62.458z" transform="translate(-1060 -366) translate(960) translate(100 366) translate(0 .58) translate(35.208) translate(23.121 211.296) translate(0 41.69)"/>
                                    <g>
                                        <path fill="#2D3540" d="M8.804 2.692c2.16-1.08 6.784-1.32 8.32-.861 1.387.412.073 1.612.073 3.603 0 4.156-3.366 9.214-7.514 11.294-1.16.579.513 1.765-.467 1.83-1.332.088-2.724-.144-3.921-.737-1.457-.718-2.627-1.964-3.048-3.794-.074-.329-.078-.69-.078-1.065 0-4.155 2.488-8.19 6.635-10.27z" transform="translate(-1060 -366) translate(960) translate(100 366) translate(0 .58) translate(35.208) translate(23.121 211.296) translate(0 41.69) translate(38.78 60.22)"/>
                                        <path fill="#434A54" d="M12.772 2.618c4.148-2.08 7.514-.394 7.514 3.761 0 4.156-3.366 9.214-7.514 11.294-4.148 2.075-7.514.389-7.514-3.766s3.366-9.214 7.514-11.289z" transform="translate(-1060 -366) translate(960) translate(100 366) translate(0 .58) translate(35.208) translate(23.121 211.296) translate(0 41.69) translate(38.78 60.22)"/>
                                        <path fill="#77787B" d="M12.772 5.712c2.442-1.223 4.425-.231 4.425 2.215 0 2.445-1.983 5.429-4.425 6.652-2.442 1.222-4.425.227-4.425-2.22 0-2.445 1.983-5.424 4.425-6.647z" transform="translate(-1060 -366) translate(960) translate(100 366) translate(0 .58) translate(35.208) translate(23.121 211.296) translate(0 41.69) translate(38.78 60.22)"/>
                                        <path fill="#828386" d="M12.966 5.615c2.294-1.149 4.157-.2 4.157 2.122 0 2.316-1.863 5.132-4.157 6.286-2.298 1.148-4.162.199-4.162-2.122 0-2.32 1.864-5.137 4.162-6.286z" transform="translate(-1060 -366) translate(960) translate(100 366) translate(0 .58) translate(35.208) translate(23.121 211.296) translate(0 41.69) translate(38.78 60.22)"/>
                                    </g>
                                    <path fill="#F2F2F2" d="M41.521 72.89l-8.503 4.257.467-18.52 2.067-4.174 2.797-25.964 23.977-12.011v45.989l-3.112 1.561c-1.337-2.668-4.796-3.317-8.846-1.288-4.051 2.03-7.51 6.138-8.847 10.15z" transform="translate(-1060 -366) translate(960) translate(100 366) translate(0 .58) translate(35.208) translate(23.121 211.296) translate(0 41.69)"/>
                                    <path fill="#B7D4E4" d="M60.763 41.219L37.138 53.054 39.764 30.046 60.763 19.526z" transform="translate(-1060 -366) translate(960) translate(100 366) translate(0 .58) translate(35.208) translate(23.121 211.296) translate(0 41.69)"/>
                                    <path fill="#A5A5A5" d="M1.647 52.369l31.297 15.675v.454L.537 52.137l.328-.162.324.162-.324-.162.87-.436-.088.83zm39.884 11.956l-8.587 4.169v-.45l8.143-3.942.444.223z" transform="translate(-1060 -366) translate(960) translate(100 366) translate(0 .58) translate(35.208) translate(23.121 211.296) translate(0 41.69)"/>
                                    <path fill="#BEBEBE" d="M41.531 72.07L32.948 76.368 32.948 68.494 41.531 64.325z" transform="translate(-1060 -366) translate(960) translate(100 366) translate(0 .58) translate(35.208) translate(23.121 211.296) translate(0 41.69)"/>
                                </g>
                                <path fill="#F2F2F2" d="M112.91 0.459L31.246 41.362 63.496 57.515 145.159 16.612z" transform="translate(-1060 -366) translate(960) translate(100 366) translate(0 .58) translate(35.208) translate(23.121 211.296)"/>
                                <path fill="#707070" d="M135.975 67.266L131.772 69.383 123.98 67.044 133.622 63.532z" transform="translate(-1060 -366) translate(960) translate(100 366) translate(0 .58) translate(35.208) translate(23.121 211.296)"/>
                                <g>
                                    <path fill="#2D3540" d="M8.078 1.27c2.16-1.085 6.784-1.326 8.32-.867 1.391.417.073 1.617.073 3.609 0 4.15-3.366 9.213-7.514 11.288-1.16.584.518 1.765-.462 1.83-1.332.088-2.724-.143-3.926-.736-1.457-.718-2.627-1.964-3.043-3.794-.079-.33-.083-.69-.083-1.066 0-4.15 2.492-8.19 6.635-10.265z" transform="translate(-1060 -366) translate(960) translate(100 366) translate(0 .58) translate(35.208) translate(23.121 211.296) translate(112.767 66.64)"/>
                                    <path fill="#434A54" d="M12.046 1.19C16.194-.885 19.56.801 19.56 4.957c0 4.15-3.366 9.213-7.514 11.288-4.148 2.076-7.514.39-7.514-3.761 0-4.155 3.366-9.214 7.514-11.294z" transform="translate(-1060 -366) translate(960) translate(100 366) translate(0 .58) translate(35.208) translate(23.121 211.296) translate(112.767 66.64)"/>
                                    <path fill="#77787B" d="M12.046 4.285c2.442-1.223 4.425-.232 4.425 2.219 0 2.446-1.983 5.424-4.425 6.647-2.442 1.223-4.425.232-4.425-2.214 0-2.45 1.983-5.43 4.425-6.652z" transform="translate(-1060 -366) translate(960) translate(100 366) translate(0 .58) translate(35.208) translate(23.121 211.296) translate(112.767 66.64)"/>
                                    <path fill="#828386" d="M12.24 4.188c2.294-1.15 4.157-.2 4.157 2.121 0 2.32-1.863 5.137-4.157 6.286-2.298 1.149-4.162.2-4.162-2.121 0-2.317 1.864-5.138 4.162-6.286z" transform="translate(-1060 -366) translate(960) translate(100 366) translate(0 .58) translate(35.208) translate(23.121 211.296) translate(112.767 66.64)"/>
                                </g>
                                <path fill="#D2D2D2" d="M145.122 16.631L63.496 57.515 63.496 97.204 145.122 56.315 145.122 16.631z" transform="translate(-1060 -366) translate(960) translate(100 366) translate(0 .58) translate(35.208) translate(23.121 211.296)"/>
                                <path fill="#BEBEBE" d="M115.772 77.388l-52.276 26.186V96.43l81.626-40.89v7.148l-12.707 6.365c-1.267-2.663-4.518-3.381-8.324-1.478-3.8 1.904-7.052 5.879-8.319 9.812z" transform="translate(-1060 -366) translate(960) translate(100 366) translate(0 .58) translate(35.208) translate(23.121 211.296)"/>
                                <path fill="#B2B2B2" d="M145.122 55.542L63.496 96.431 63.496 96.709 145.122 55.824 145.122 55.542z" transform="translate(-1060 -366) translate(960) translate(100 366) translate(0 .58) translate(35.208) translate(23.121 211.296)"/>
                                <path fill="#EE384E" d="M82.877 59.648l.43-.198c3.265-1.395 5.876-.065 6.088 3.102l.014.423v4.632l-.014.437c-.212 3.375-2.823 7.277-6.089 9.097l-.43.225-10.232 5.038-.183.072c-.357.102-.638-.04-.712-.36l-.019-.175-.004-15.887.018-.194c.073-.394.355-.814.712-1.063l.184-.11 10.237-5.04zm41.394-14.822c1.363-.671 2.437-.222 2.583 1.024l.017.301v2.606l3.121-1.536c.405-.2.625-.47.68-.842l.013-.195v-2.432c0-.161.093-.332.234-.445l.113-.073 1.04-.512c.162-.08.287-.048.33.071l.017.106v2.432c0 1.366-.826 2.699-2.12 3.461l-.307.166-2.254 1.11c-.157.077-.282.113-.388.082l-.1-.054-.379-.297v.348c0 .161-.093.333-.233.445l-.113.073-5.548 2.731c0 1.374-1.138 3.165-2.483 3.985l-.291.16-3.121 1.537c-1.449.713-2.3.383-2.414-.92l-.013-.317v-3.474c0-.162.092-.333.233-.446l.113-.072 1.04-.512c.162-.08.287-.048.33.07l.017.106v3.475c0 .405.163.546.507.431l.187-.078 3.12-1.537c.414-.203.9-.878 1.016-1.36l.025-.194-1.387.683c-.162.08-.287.048-.33-.071l-.017-.106v-1.042c0-.162.093-.333.233-.446l.114-.072 7.282-3.585v-2.606c0-.414-.302-.62-.694-.509l-.173.067-3.468 1.708c-.184.09-.274-.104-.222-.312l.049-.124.693-1.384c.076-.138.235-.259.396-.355l.298-.16 2.254-1.11zm7.108 4.491c.162-.08.287-.048.33.071l.017.106v1.042c0 .162-.093.333-.233.446l-.114.072-2.774 1.366c-.162.08-.287.048-.33-.071l-.017-.106v-1.042c0-.162.093-.333.233-.445l.114-.073 2.774-1.366zm-7.802 3.841c.162-.08.287-.048.33.071l.017.106v1.042c0 .162-.093.333-.233.446l-.114.072-1.213.598c-.162.08-.287.048-.33-.071l-.017-.106v-1.042c0-.162.093-.333.233-.446l.114-.072 1.213-.598zm13.35-14.563c1.364-.671 2.288-.298 2.413.937l.014.3v2.084c0 1.367-.826 2.7-2.12 3.462l-.307.165-3.12 1.537c-.162.08-.287.048-.33-.071l-.018-.106v-1.042c0-.162.093-.333.234-.446l.113-.072 3.12-1.537c.406-.2.626-.47.68-.842l.014-.194v-2.084c0-.406-.162-.547-.506-.432l-.187.078-3.12 1.537c-.162.079-.287.048-.33-.072l-.018-.105V40.65c0-.162.093-.333.234-.446l.113-.073 3.12-1.536zM108.44 49.841c.23-.113.37.047.299.279l-.055.12-1.75 3.122.866-.427c1.872-.921 3.292-.308 3.453 1.429l.015.338v3.127c0 .162-.093.333-.234.446l-.113.072-7.975 3.927c-1.45.713-2.599.53-2.756-.751l-.018-.315v-5.56c0-.16.093-.332.233-.445l.114-.072 1.04-.512c.161-.08.286-.048.33.07l.017.106v5.559c0 .4.182.535.515.427l.178-.074 6.935-3.414v-1.737c0-.904-.613-1.298-1.47-.995l-.264.111-3.987 1.964c-.268.131-.35-.034-.243-.297l.07-.139 2.92-5.174c.101-.173.24-.325.392-.435l.156-.094 1.332-.656zm-9.655 6.143c.161-.08.286-.048.33.072l.017.105v5.559c0 1.451-.748 2.672-2.104 3.454l-.324.173-3.814 1.878c-.161.08-.286.048-.33-.071l-.017-.106v-1.042c0-.162.093-.333.234-.446l.113-.072 3.814-1.878c.406-.2.626-.47.68-.842l.014-.195v-5.558c0-.162.093-.333.233-.446l.114-.072 1.04-.513zM83.98 67.248c-.851 1.41-2.097 2.603-3.414 3.251-1.316.648-2.562.682-3.413.11-.134-.09-.343-.044-.528.107l-.133.131-.822.98c-.236.282-.283.638-.1.769 1.228.878 3.058.848 4.996-.107 1.938-.954 3.77-2.726 4.996-4.812.147-.25.146-.498.02-.612l-.119-.059-.822-.171c-.21-.044-.494.137-.661.413zm9.484-8.645c.185-.09.386-.11.436.044l1.422 4.125c.054.166-.069.374-.268.472l-1.13.557c-.188.093-.354.049-.404-.108l-1.324-4.118c-.055-.166.146-.419.346-.518l.922-.454z" transform="translate(-1060 -366) translate(960) translate(100 366) translate(0 .58) translate(35.208) translate(23.121 211.296)"/>
                            </g>
                        </g>
                    </g>
                </g>
            </g>
        </g>
    </g>
</svg>
