<svg xmlns="http://www.w3.org/2000/svg" width="34" height="23" viewBox="0 0 34 23">
    <g fill="#000" fill-rule="evenodd">
        <path d="M7.671 1C13.094 1 17 5.68 17 11.5S13.095 22 7.671 22H0V1h7.671zm.01 18C11.426 19 14 15.737 14 11.5 14 7.264 11.426 4 7.681 4H3v15h4.681zM26.84 22c-3.935 0-6.746-1.938-7.84-4.975l2.367-1.33c.74 2.226 2.514 3.672 5.532 3.672 2.93 0 4.378-1.301 4.378-3.123 0-2.083-1.833-2.777-4.88-3.703-3.314-1.041-6.51-2.053-6.51-5.814 0-3.644 3.048-5.727 6.51-5.727 3.401 0 5.857 1.88 7.011 4.425l-2.307 1.302c-.74-1.736-2.19-3.124-4.705-3.124-2.218 0-3.757 1.157-3.757 3.008 0 1.88 1.45 2.575 4.349 3.471C30.598 11.24 34 12.28 34 16.185 34 19.742 31.07 22 26.84 22V22z"/>
    </g>
</svg>
