<?xml version="1.0" encoding="UTF-8" standalone="no"?>
<svg width="92px" height="92px" viewBox="0 0 92 92" version="1.1" xmlns="http://www.w3.org/2000/svg" xmlns:xlink="http://www.w3.org/1999/xlink">
    <!-- Generator: Sketch 46.2 (44496) - http://www.bohemiancoding.com/sketch -->
    <title>Commission</title>
    <desc>Created with Sketch.</desc>
    <defs></defs>
    <g id="Page-1" stroke="none" stroke-width="1" fill="none" fill-rule="evenodd">
        <g id="Steps-006" transform="translate(-357.000000, -1910.000000)">
            <g id="Group-11" transform="translate(150.000000, 1875.000000)">
                <g id="Group-7">
                    <g id="Group-8" transform="translate(201.000000, 36.000000)">
                        <g id="Commission" transform="translate(7.000000, 0.000000)">
                            <ellipse id="Oval-4" stroke-opacity="0.2" stroke="#979797" fill="#FFFFFF" cx="44.9054622" cy="44.8398577" rx="44.9054622" ry="44.8398577"></ellipse>
                            <g id="commission" transform="translate(20.000000, 17.000000)" fill-rule="nonzero">
                                <path d="M50.836,37.196 C50.095,36.572 49.116,36.313 48.172,36.477 L28.34,39.926 L22.707,34.293 C22.52,34.105 22.266,34 22,34 L12,34 C12,33.448 11.553,33 11,33 L7,33 L0,33 L0,35 L6,35 L6,49 L0,49 L0,51 L7,51 L11,51 C11.553,51 12,50.552 12,50 L14.764,50 L25.455,55.346 C25.918,55.577 26.418,55.693 26.918,55.692 C27.486,55.692 28.055,55.543 28.564,55.246 L50.38,42.52 C51.379,41.936 52,40.854 52,39.697 C52,38.73 51.575,37.818 50.836,37.196 Z M10,49 L8,49 L8,35 L10,35 L10,49 Z M49.371,40.793 L27.556,53.518 C27.186,53.734 26.735,53.749 26.35,53.557 L15.448,48.106 C15.309,48.036 15.155,48 15,48 L12,48 L12,36 L21.586,36 L29.465,43.878 C29.81,44.224 30,44.683 30,45.171 C30,46.18 29.18,47 28.172,47 C27.691,47 27.22,46.805 26.879,46.464 L21.707,41.293 L20.293,42.707 L25.465,47.878 C26.188,48.602 27.148,49 28.172,49 C30.282,49 32,47.283 32,45.171 C32,44.149 31.602,43.188 30.879,42.464 L30.07,41.655 L48.514,38.447 C48.886,38.382 49.261,38.485 49.548,38.726 C49.835,38.968 50,39.322 50,39.697 C50,40.146 49.759,40.566 49.371,40.793 Z" id="Shape" fill="#77787B"></path>
                                <rect id="Rectangle-path" fill="#77787B" transform="translate(30.000520, 16.502286) rotate(-47.723613) translate(-30.000520, -16.502286) " x="22.5676043" y="15.5017977" width="14.8658313" height="2.00097729"></rect>
                                <path d="M26,16.5 C27.654,16.5 29,15.154 29,13.5 C29,11.846 27.654,10.5 26,10.5 C24.346,10.5 23,11.846 23,13.5 C23,15.154 24.346,16.5 26,16.5 Z M26,12.5 C26.552,12.5 27,12.949 27,13.5 C27,14.051 26.552,14.5 26,14.5 C25.448,14.5 25,14.051 25,13.5 C25,12.949 25.448,12.5 26,12.5 Z" id="Shape" fill="#77787B"></path>
                                <path d="M31,19.5 C31,21.154 32.346,22.5 34,22.5 C35.654,22.5 37,21.154 37,19.5 C37,17.846 35.654,16.5 34,16.5 C32.346,16.5 31,17.846 31,19.5 Z M35,19.5 C35,20.051 34.552,20.5 34,20.5 C33.448,20.5 33,20.051 33,19.5 C33,18.949 33.448,18.5 34,18.5 C34.552,18.5 35,18.949 35,19.5 Z" id="Shape" fill="#77787B"></path>
                                <path d="M29.274,37.688 C29.464,37.887 29.726,38 30,38 C30.274,38 30.536,37.887 30.726,37.688 L46.584,20.98 C51.126,16.194 51.126,8.407 46.584,3.622 C44.367,1.286 41.416,0 38.274,0 C35.148,0 32.212,1.272 30,3.584 C27.788,1.272 24.852,0 21.726,0 C18.584,0 15.633,1.286 13.416,3.622 C8.874,8.408 8.874,16.195 13.416,20.98 L29.274,37.688 Z M14.867,4.999 C16.702,3.065 19.138,2 21.726,2 C24.315,2 26.75,3.065 28.585,4.999 L29.274,5.726 C29.653,6.123 30.346,6.123 30.725,5.726 L31.414,4.999 C33.25,3.065 35.686,2 38.274,2 C40.862,2 43.297,3.065 45.132,4.999 C48.954,9.025 48.954,15.577 45.132,19.603 L30,35.547 L14.867,19.603 C11.045,15.577 11.045,9.025 14.867,4.999 Z" id="Shape" fill="#EF5662"></path>
                                <rect id="Rectangle-path" fill="#77787B" x="25" y="24" width="2" height="2"></rect>
                                <rect id="Rectangle-path" fill="#77787B" x="29" y="24" width="2" height="2"></rect>
                                <rect id="Rectangle-path" fill="#77787B" x="33" y="24" width="2" height="2"></rect>
                            </g>
                        </g>
                    </g>
                </g>
            </g>
        </g>
    </g>
</svg>