<?xml version="1.0" encoding="UTF-8" standalone="no"?>
<svg width="40px" height="40px" viewBox="0 0 40 40" version="1.1" xmlns="http://www.w3.org/2000/svg" xmlns:xlink="http://www.w3.org/1999/xlink">
    <!-- Generator: Sketch 46.2 (44496) - http://www.bohemiancoding.com/sketch -->
    <title>equal</title>
    <desc>Created with Sketch.</desc>
    <defs></defs>
    <g id="Page-1" stroke="none" stroke-width="1" fill="none" fill-rule="evenodd">
        <g id="Steps-006---minimized" transform="translate(-1015.000000, -1303.000000)">
            <g id="equal" transform="translate(1015.000000, 1303.000000)">
                <circle id="Oval-2" fill="#FDC364" cx="20" cy="20" r="20"></circle>
                <g id="Group-13" transform="translate(7.000000, 13.000000)" fill="#FFFFFF">
                    <path d="M24.7295455,12.7636364 L1.90227273,12.7636364 C0.851710909,12.7636364 0,11.9434703 0,10.9318182 C0,9.92016606 0.851710909,9.1 1.90227273,9.1 L24.7295455,9.1 C25.7801073,9.1 26.6318182,9.92016606 26.6318182,10.9318182 C26.6318182,11.9434703 25.7801073,12.7636364 24.7295455,12.7636364 Z" id="XMLID_26_-path"></path>
                    <path d="M24.7295455,3.66363636 L1.90227273,3.66363636 C0.851710909,3.66363636 0,2.8434703 0,1.83181818 C0,0.820166061 0.851710909,0 1.90227273,0 L24.7295455,0 C25.7801073,0 26.6318182,0.820166061 26.6318182,1.83181818 C26.6318182,2.8434703 25.7801073,3.66363636 24.7295455,3.66363636 Z" id="XMLID_26_-path"></path>
                </g>
            </g>
        </g>
    </g>
</svg>